M48
INCH,TZ
T1C0.0669
T2C0.1575
%
G90
G05
T1
X19850Y-4724
X23850Y-4724
X2724Y-18504
X6724Y-18504
X2724Y-50000
X6724Y-50000
X2724Y-26378
X6724Y-26378
X53315Y-62598
X57315Y-62598
X81858Y-42126
X85858Y-42126
X2724Y-42126
X6724Y-42126
X42291Y-4724
X46291Y-4724
X42094Y-62598
X46094Y-62598
X81858Y-50000
X85858Y-50000
X31071Y-4724
X35071Y-4724
X53709Y-4724
X57709Y-4724
X2724Y-34252
X6724Y-34252
X81858Y-26378
X85858Y-26378
X64929Y-4724
X68929Y-4724
X81858Y-18504
X85858Y-18504
X64535Y-62598
X68535Y-62598
X19654Y-62598
X23654Y-62598
X81858Y-34252
X85858Y-34252
X30874Y-62598
X34874Y-62598
T2
X83858Y-34252
X32874Y-62598
X21850Y-4724
X4724Y-18504
X4724Y-50000
X4724Y-26378
X55315Y-62598
X83858Y-42126
X4724Y-42126
X44291Y-4724
X44094Y-62598
X83858Y-50000
X33071Y-4724
X55709Y-4724
X4724Y-34252
X83858Y-26378
X66929Y-4724
X83858Y-18504
X66535Y-62598
X21654Y-62598
T0
M30
