%TF.GenerationSoftware,KiCad,Pcbnew,(5.1.9)-1*%
%TF.CreationDate,2021-03-29T18:53:15-04:00*%
%TF.ProjectId,wildcatmfd_kicad,77696c64-6361-4746-9d66-645f6b696361,rev?*%
%TF.SameCoordinates,Original*%
%TF.FileFunction,Soldermask,Bot*%
%TF.FilePolarity,Negative*%
%FSLAX46Y46*%
G04 Gerber Fmt 4.6, Leading zero omitted, Abs format (unit mm)*
G04 Created by KiCad (PCBNEW (5.1.9)-1) date 2021-03-29 18:53:15*
%MOMM*%
%LPD*%
G01*
G04 APERTURE LIST*
%ADD10C,4.000000*%
%ADD11C,1.600000*%
%ADD12R,1.600000X1.600000*%
%ADD13C,1.700000*%
%ADD14C,2.200000*%
G04 APERTURE END LIST*
D10*
%TO.C,REF\u002A\u002A*%
X43080000Y-158650000D03*
%TD*%
%TO.C,REF\u002A\u002A*%
X186080000Y-158550000D03*
%TD*%
%TO.C,REF\u002A\u002A*%
X186080000Y-43550000D03*
%TD*%
%TO.C,REF\u002A\u002A*%
X43080000Y-43550000D03*
%TD*%
D11*
%TO.C,U1*%
X102870000Y-96980000D03*
X100330000Y-96980000D03*
X97790000Y-96980000D03*
X95250000Y-96980000D03*
X92710000Y-96980000D03*
X99060000Y-106680000D03*
X96520000Y-106680000D03*
X93980000Y-106680000D03*
X88900000Y-106680000D03*
X86360000Y-109220000D03*
X88900000Y-109220000D03*
X91440000Y-109220000D03*
X93980000Y-109220000D03*
X96520000Y-109220000D03*
X99060000Y-109220000D03*
X101600000Y-109220000D03*
X104140000Y-109220000D03*
X106680000Y-109220000D03*
X109220000Y-109220000D03*
X111760000Y-109220000D03*
X114300000Y-109220000D03*
X116840000Y-109220000D03*
X119380000Y-109220000D03*
X121920000Y-109220000D03*
X124460000Y-109220000D03*
D12*
X86360000Y-93980000D03*
D11*
X88900000Y-93980000D03*
X91440000Y-93980000D03*
X93980000Y-93980000D03*
X96520000Y-93980000D03*
X99060000Y-93980000D03*
X101600000Y-93980000D03*
X104140000Y-93980000D03*
X106680000Y-93980000D03*
X109220000Y-93980000D03*
X111760000Y-93980000D03*
X114300000Y-93980000D03*
X116840000Y-93980000D03*
X127000000Y-109220000D03*
X129540000Y-109220000D03*
X132080000Y-109220000D03*
X134620000Y-109220000D03*
X137160000Y-109220000D03*
X139700000Y-109220000D03*
X142240000Y-109220000D03*
X144780000Y-109220000D03*
X132080000Y-106680000D03*
X132080000Y-104140000D03*
X132080000Y-101600000D03*
X132080000Y-99060000D03*
X132080000Y-96520000D03*
X144780000Y-93980000D03*
X142240000Y-93980000D03*
X139700000Y-93980000D03*
X137160000Y-93980000D03*
X119380000Y-93980000D03*
X121920000Y-93980000D03*
X124460000Y-93980000D03*
X134620000Y-93980000D03*
X132080000Y-93980000D03*
X129540000Y-93980000D03*
X127000000Y-93980000D03*
%TD*%
D13*
%TO.C,SW20*%
X33020000Y-58420000D03*
X22860000Y-58420000D03*
D10*
X27940000Y-58420000D03*
D14*
X24130000Y-55880000D03*
X30480000Y-53340000D03*
%TD*%
D13*
%TO.C,SW19*%
X33020000Y-80010000D03*
X22860000Y-80010000D03*
D10*
X27940000Y-80010000D03*
D14*
X24130000Y-77470000D03*
X30480000Y-74930000D03*
%TD*%
D13*
%TO.C,SW18*%
X33020000Y-101600000D03*
X22860000Y-101600000D03*
D10*
X27940000Y-101600000D03*
D14*
X24130000Y-99060000D03*
X30480000Y-96520000D03*
%TD*%
D13*
%TO.C,SW17*%
X33020000Y-123190000D03*
X22860000Y-123190000D03*
D10*
X27940000Y-123190000D03*
D14*
X24130000Y-120650000D03*
X30480000Y-118110000D03*
%TD*%
D13*
%TO.C,SW16*%
X33020000Y-144780000D03*
X22860000Y-144780000D03*
D10*
X27940000Y-144780000D03*
D14*
X24130000Y-142240000D03*
X30480000Y-139700000D03*
%TD*%
D13*
%TO.C,SW15*%
X63500000Y-173990000D03*
X53340000Y-173990000D03*
D10*
X58420000Y-173990000D03*
D14*
X54610000Y-171450000D03*
X60960000Y-168910000D03*
%TD*%
D13*
%TO.C,SW14*%
X91440000Y-173990000D03*
X81280000Y-173990000D03*
D10*
X86360000Y-173990000D03*
D14*
X82550000Y-171450000D03*
X88900000Y-168910000D03*
%TD*%
D13*
%TO.C,SW13*%
X120650000Y-173990000D03*
X110490000Y-173990000D03*
D10*
X115570000Y-173990000D03*
D14*
X111760000Y-171450000D03*
X118110000Y-168910000D03*
%TD*%
D13*
%TO.C,SW12*%
X148590000Y-173990000D03*
X138430000Y-173990000D03*
D10*
X143510000Y-173990000D03*
D14*
X139700000Y-171450000D03*
X146050000Y-168910000D03*
%TD*%
D13*
%TO.C,SW11*%
X176530000Y-173990000D03*
X166370000Y-173990000D03*
D10*
X171450000Y-173990000D03*
D14*
X167640000Y-171450000D03*
X173990000Y-168910000D03*
%TD*%
D13*
%TO.C,SW10*%
X207010000Y-144780000D03*
X196850000Y-144780000D03*
D10*
X201930000Y-144780000D03*
D14*
X198120000Y-142240000D03*
X204470000Y-139700000D03*
%TD*%
D13*
%TO.C,SW9*%
X207010000Y-123190000D03*
X196850000Y-123190000D03*
D10*
X201930000Y-123190000D03*
D14*
X198120000Y-120650000D03*
X204470000Y-118110000D03*
%TD*%
D13*
%TO.C,SW8*%
X207010000Y-101600000D03*
X196850000Y-101600000D03*
D10*
X201930000Y-101600000D03*
D14*
X198120000Y-99060000D03*
X204470000Y-96520000D03*
%TD*%
D13*
%TO.C,SW7*%
X207010000Y-80010000D03*
X196850000Y-80010000D03*
D10*
X201930000Y-80010000D03*
D14*
X198120000Y-77470000D03*
X204470000Y-74930000D03*
%TD*%
D13*
%TO.C,SW6*%
X207010000Y-58420000D03*
X196850000Y-58420000D03*
D10*
X201930000Y-58420000D03*
D14*
X198120000Y-55880000D03*
X204470000Y-53340000D03*
%TD*%
D13*
%TO.C,SW5*%
X176530000Y-27940000D03*
X166370000Y-27940000D03*
D10*
X171450000Y-27940000D03*
D14*
X167640000Y-25400000D03*
X173990000Y-22860000D03*
%TD*%
D13*
%TO.C,SW4*%
X148590000Y-27940000D03*
X138430000Y-27940000D03*
D10*
X143510000Y-27940000D03*
D14*
X139700000Y-25400000D03*
X146050000Y-22860000D03*
%TD*%
D13*
%TO.C,SW3*%
X120650000Y-27940000D03*
X110490000Y-27940000D03*
D10*
X115570000Y-27940000D03*
D14*
X111760000Y-25400000D03*
X118110000Y-22860000D03*
%TD*%
D13*
%TO.C,SW2*%
X91440000Y-27940000D03*
X81280000Y-27940000D03*
D10*
X86360000Y-27940000D03*
D14*
X82550000Y-25400000D03*
X88900000Y-22860000D03*
%TD*%
D13*
%TO.C,SW1*%
X63500000Y-27940000D03*
X53340000Y-27940000D03*
D10*
X58420000Y-27940000D03*
D14*
X54610000Y-25400000D03*
X60960000Y-22860000D03*
%TD*%
M02*
