M48
INCH,TZ
T1C0.0433
T2C0.0591
T3C0.1181
%
G90
G05
T1
X34000Y-37000
X34000Y-43000
X35000Y-37000
X35000Y-42000
X35000Y-43000
X36000Y-37000
X36000Y-43000
X36500Y-38181
X37000Y-37000
X37000Y-42000
X37000Y-43000
X37500Y-38181
X38000Y-37000
X38000Y-42000
X38000Y-43000
X38500Y-38181
X39000Y-37000
X39000Y-42000
X39000Y-43000
X39500Y-38181
X40000Y-37000
X40000Y-43000
X40500Y-38181
X41000Y-37000
X41000Y-43000
X42000Y-37000
X42000Y-43000
X43000Y-37000
X43000Y-43000
X44000Y-37000
X44000Y-43000
X45000Y-37000
X45000Y-43000
X46000Y-37000
X46000Y-43000
X47000Y-37000
X47000Y-43000
X48000Y-37000
X48000Y-43000
X49000Y-37000
X49000Y-43000
X50000Y-37000
X50000Y-43000
X51000Y-37000
X51000Y-43000
X52000Y-37000
X52000Y-38000
X52000Y-39000
X52000Y-40000
X52000Y-41000
X52000Y-42000
X52000Y-43000
X53000Y-37000
X53000Y-43000
X54000Y-37000
X54000Y-43000
X55000Y-37000
X55000Y-43000
X56000Y-37000
X56000Y-43000
X57000Y-37000
X57000Y-43000
T2
X32500Y-67500
X35000Y-66500
X9500Y-56000
X12000Y-55000
X78000Y-47500
X80500Y-46500
X9500Y-22000
X12000Y-21000
X78000Y-22000
X80500Y-21000
X44000Y-67500
X46500Y-66500
X32500Y-10000
X35000Y-9000
X55000Y-67500
X57500Y-66500
X78000Y-30500
X80500Y-29500
X21500Y-10000
X24000Y-9000
X9500Y-39000
X12000Y-38000
X9500Y-47500
X12000Y-46500
X78000Y-39000
X80500Y-38000
X21500Y-67500
X24000Y-66500
X78000Y-56000
X80500Y-55000
X66000Y-67500
X68500Y-66500
X55000Y-10000
X57500Y-9000
X66000Y-10000
X68500Y-9000
X44000Y-10000
X46500Y-9000
X9500Y-30500
X12000Y-29500
T3
X73260Y-62421
X9500Y-9500
X80500Y-69500
X9500Y-69500
X16961Y-17146
X16961Y-62461
X73260Y-17146
X80500Y-9500
T0
M30
