M48
INCH,TZ
T1C0.0394
T2C0.0433
T3C0.0591
T4C0.1181
%
G90
G05
T1
X37402Y-42520
X37402Y-43520
X37402Y-44520
T2
X32791Y-30661
X32791Y-36661
X33791Y-30661
X33791Y-35661
X33791Y-36661
X34791Y-30661
X34791Y-36661
X35291Y-31843
X35791Y-30661
X35791Y-35661
X35791Y-36661
X36291Y-31843
X36791Y-30661
X36791Y-35661
X36791Y-36661
X37291Y-31843
X37791Y-30661
X37791Y-35661
X37791Y-36661
X38291Y-31843
X38791Y-30661
X38791Y-36661
X39291Y-31843
X39791Y-30661
X39791Y-36661
X40791Y-30661
X40791Y-36661
X41791Y-30661
X41791Y-36661
X42791Y-30661
X42791Y-36661
X43791Y-30661
X43791Y-36661
X44791Y-30661
X44791Y-36661
X45791Y-30661
X45791Y-36661
X46791Y-30661
X46791Y-36661
X47791Y-30661
X47791Y-36661
X48791Y-30661
X48791Y-36661
X49791Y-30661
X49791Y-36661
X50791Y-30661
X50791Y-31661
X50791Y-32661
X50791Y-33661
X50791Y-34661
X50791Y-35661
X50791Y-36661
X51791Y-30661
X51791Y-36661
X52791Y-30661
X52791Y-36661
X53791Y-30661
X53791Y-36661
X54791Y-30661
X54791Y-36661
X55791Y-30661
X55791Y-36661
T3
X3224Y-41126
X5724Y-40126
X42791Y-3724
X45291Y-2724
X42594Y-61598
X45094Y-60598
X82358Y-49000
X84858Y-48000
X31571Y-3724
X34071Y-2724
X54209Y-3724
X56709Y-2724
X3224Y-33252
X5724Y-32252
X82358Y-25378
X84858Y-24378
X65429Y-3724
X67929Y-2724
X82358Y-17504
X84858Y-16504
X65035Y-61598
X67535Y-60598
X20154Y-61598
X22654Y-60598
X82358Y-33252
X84858Y-32252
X31374Y-61598
X33874Y-60598
X20350Y-3724
X22850Y-2724
X3224Y-17504
X5724Y-16504
X3224Y-49000
X5724Y-48000
X3224Y-25378
X5724Y-24378
X53815Y-61598
X56315Y-60598
X82358Y-41126
X84858Y-40126
T4
X13386Y-56299
X13386Y-11024
X75197Y-56299
X3937Y-63386
X75197Y-11024
X3937Y-3937
X84646Y-63386
X84646Y-3937
T0
M30
