M48
INCH,TZ
T1C0.0669
T2C0.1575
%
G90
G05
T1
X77500Y-57000
X81500Y-57000
X65500Y-68500
X69500Y-68500
X54500Y-11000
X58500Y-11000
X65500Y-11000
X69500Y-11000
X43500Y-11000
X47500Y-11000
X9000Y-31500
X13000Y-31500
X32000Y-68500
X36000Y-68500
X9000Y-57000
X13000Y-57000
X77500Y-48500
X81500Y-48500
X9000Y-23000
X13000Y-23000
X77500Y-23000
X81500Y-23000
X43500Y-68500
X47500Y-68500
X32000Y-11000
X36000Y-11000
X54500Y-68500
X58500Y-68500
X77500Y-31500
X81500Y-31500
X21000Y-11000
X25000Y-11000
X9000Y-40000
X13000Y-40000
X9000Y-48500
X13000Y-48500
X77500Y-40000
X81500Y-40000
X21000Y-68500
X25000Y-68500
T2
X11000Y-48500
X79500Y-40000
X23000Y-68500
X79500Y-57000
X67500Y-68500
X56500Y-11000
X67500Y-11000
X45500Y-11000
X11000Y-31500
X34000Y-68500
X11000Y-57000
X79500Y-48500
X11000Y-23000
X79500Y-23000
X45500Y-68500
X34000Y-11000
X56500Y-68500
X79500Y-31500
X23000Y-11000
X11000Y-40000
T0
M30
