%TF.GenerationSoftware,KiCad,Pcbnew,(5.1.9)-1*%
%TF.CreationDate,2021-04-14T17:34:58-04:00*%
%TF.ProjectId,wildcatmfd_kicad,77696c64-6361-4746-9d66-645f6b696361,rev?*%
%TF.SameCoordinates,Original*%
%TF.FileFunction,Soldermask,Top*%
%TF.FilePolarity,Negative*%
%FSLAX46Y46*%
G04 Gerber Fmt 4.6, Leading zero omitted, Abs format (unit mm)*
G04 Created by KiCad (PCBNEW (5.1.9)-1) date 2021-04-14 17:34:58*
%MOMM*%
%LPD*%
G01*
G04 APERTURE LIST*
%ADD10C,6.000000*%
%ADD11C,1.600000*%
%ADD12R,1.600000X1.600000*%
%ADD13C,1.700000*%
%ADD14C,4.000000*%
%ADD15C,2.200000*%
%ADD16O,1.700000X1.700000*%
%ADD17R,1.700000X1.700000*%
G04 APERTURE END LIST*
D10*
%TO.C,*%
X10000000Y-161000000D03*
%TD*%
%TO.C,*%
X215000000Y-161000000D03*
%TD*%
%TO.C,*%
X215000000Y-10000000D03*
%TD*%
%TO.C,*%
X10000000Y-10000000D03*
%TD*%
%TO.C,SCRN_MNT*%
X191000000Y-28000000D03*
%TD*%
%TO.C,SCRN_MNT*%
X191000000Y-143000000D03*
%TD*%
%TO.C,SCRN_MNT*%
X34000000Y-143000000D03*
%TD*%
%TO.C,SCRN_MNT*%
X34000000Y-28000000D03*
%TD*%
D11*
%TO.C,U1*%
X99800000Y-80880000D03*
X97260000Y-80880000D03*
X94720000Y-80880000D03*
X92180000Y-80880000D03*
X89640000Y-80880000D03*
X95990000Y-90580000D03*
X93450000Y-90580000D03*
X90910000Y-90580000D03*
X85830000Y-90580000D03*
X83290000Y-93120000D03*
X85830000Y-93120000D03*
X88370000Y-93120000D03*
X90910000Y-93120000D03*
X93450000Y-93120000D03*
X95990000Y-93120000D03*
X98530000Y-93120000D03*
X101070000Y-93120000D03*
X103610000Y-93120000D03*
X106150000Y-93120000D03*
X108690000Y-93120000D03*
X111230000Y-93120000D03*
X113770000Y-93120000D03*
X116310000Y-93120000D03*
X118850000Y-93120000D03*
X121390000Y-93120000D03*
D12*
X83290000Y-77880000D03*
D11*
X85830000Y-77880000D03*
X88370000Y-77880000D03*
X90910000Y-77880000D03*
X93450000Y-77880000D03*
X95990000Y-77880000D03*
X98530000Y-77880000D03*
X101070000Y-77880000D03*
X103610000Y-77880000D03*
X106150000Y-77880000D03*
X108690000Y-77880000D03*
X111230000Y-77880000D03*
X113770000Y-77880000D03*
X123930000Y-93120000D03*
X126470000Y-93120000D03*
X129010000Y-93120000D03*
X131550000Y-93120000D03*
X134090000Y-93120000D03*
X136630000Y-93120000D03*
X139170000Y-93120000D03*
X141710000Y-93120000D03*
X129010000Y-90580000D03*
X129010000Y-88040000D03*
X129010000Y-85500000D03*
X129010000Y-82960000D03*
X129010000Y-80420000D03*
X141710000Y-77880000D03*
X139170000Y-77880000D03*
X136630000Y-77880000D03*
X134090000Y-77880000D03*
X116310000Y-77880000D03*
X118850000Y-77880000D03*
X121390000Y-77880000D03*
X131550000Y-77880000D03*
X129010000Y-77880000D03*
X126470000Y-77880000D03*
X123930000Y-77880000D03*
%TD*%
D13*
%TO.C,SW20*%
X17080000Y-47000000D03*
X6920000Y-47000000D03*
D14*
X12000000Y-47000000D03*
D15*
X8190000Y-44460000D03*
X14540000Y-41920000D03*
%TD*%
D13*
%TO.C,SW19*%
X17080000Y-67000000D03*
X6920000Y-67000000D03*
D14*
X12000000Y-67000000D03*
D15*
X8190000Y-64460000D03*
X14540000Y-61920000D03*
%TD*%
D13*
%TO.C,SW18*%
X17080000Y-87000000D03*
X6920000Y-87000000D03*
D14*
X12000000Y-87000000D03*
D15*
X8190000Y-84460000D03*
X14540000Y-81920000D03*
%TD*%
D13*
%TO.C,SW17*%
X17080000Y-107000000D03*
X6920000Y-107000000D03*
D14*
X12000000Y-107000000D03*
D15*
X8190000Y-104460000D03*
X14540000Y-101920000D03*
%TD*%
D13*
%TO.C,SW16*%
X17080000Y-127000000D03*
X6920000Y-127000000D03*
D14*
X12000000Y-127000000D03*
D15*
X8190000Y-124460000D03*
X14540000Y-121920000D03*
%TD*%
D13*
%TO.C,SW15*%
X60080000Y-159000000D03*
X49920000Y-159000000D03*
D14*
X55000000Y-159000000D03*
D15*
X51190000Y-156460000D03*
X57540000Y-153920000D03*
%TD*%
D13*
%TO.C,SW14*%
X88580000Y-159000000D03*
X78420000Y-159000000D03*
D14*
X83500000Y-159000000D03*
D15*
X79690000Y-156460000D03*
X86040000Y-153920000D03*
%TD*%
D13*
%TO.C,SW13*%
X117080000Y-159000000D03*
X106920000Y-159000000D03*
D14*
X112000000Y-159000000D03*
D15*
X108190000Y-156460000D03*
X114540000Y-153920000D03*
%TD*%
D13*
%TO.C,SW12*%
X145580000Y-159000000D03*
X135420000Y-159000000D03*
D14*
X140500000Y-159000000D03*
D15*
X136690000Y-156460000D03*
X143040000Y-153920000D03*
%TD*%
D13*
%TO.C,SW11*%
X174080000Y-159000000D03*
X163920000Y-159000000D03*
D14*
X169000000Y-159000000D03*
D15*
X165190000Y-156460000D03*
X171540000Y-153920000D03*
%TD*%
D13*
%TO.C,SW10*%
X218080000Y-127000000D03*
X207920000Y-127000000D03*
D14*
X213000000Y-127000000D03*
D15*
X209190000Y-124460000D03*
X215540000Y-121920000D03*
%TD*%
D13*
%TO.C,SW9*%
X218080000Y-107000000D03*
X207920000Y-107000000D03*
D14*
X213000000Y-107000000D03*
D15*
X209190000Y-104460000D03*
X215540000Y-101920000D03*
%TD*%
D13*
%TO.C,SW8*%
X218080000Y-87000000D03*
X207920000Y-87000000D03*
D14*
X213000000Y-87000000D03*
D15*
X209190000Y-84460000D03*
X215540000Y-81920000D03*
%TD*%
D13*
%TO.C,SW7*%
X218080000Y-67000000D03*
X207920000Y-67000000D03*
D14*
X213000000Y-67000000D03*
D15*
X209190000Y-64460000D03*
X215540000Y-61920000D03*
%TD*%
D13*
%TO.C,SW6*%
X218080000Y-47000000D03*
X207920000Y-47000000D03*
D14*
X213000000Y-47000000D03*
D15*
X209190000Y-44460000D03*
X215540000Y-41920000D03*
%TD*%
D13*
%TO.C,SW5*%
X175080000Y-12000000D03*
X164920000Y-12000000D03*
D14*
X170000000Y-12000000D03*
D15*
X166190000Y-9460000D03*
X172540000Y-6920000D03*
%TD*%
D13*
%TO.C,SW4*%
X146580000Y-12000000D03*
X136420000Y-12000000D03*
D14*
X141500000Y-12000000D03*
D15*
X137690000Y-9460000D03*
X144040000Y-6920000D03*
%TD*%
D13*
%TO.C,SW3*%
X117580000Y-12000000D03*
X107420000Y-12000000D03*
D14*
X112500000Y-12000000D03*
D15*
X108690000Y-9460000D03*
X115040000Y-6920000D03*
%TD*%
D13*
%TO.C,SW2*%
X89080000Y-12000000D03*
X78920000Y-12000000D03*
D14*
X84000000Y-12000000D03*
D15*
X80190000Y-9460000D03*
X86540000Y-6920000D03*
%TD*%
D13*
%TO.C,SW1*%
X60580000Y-12000000D03*
X50420000Y-12000000D03*
D14*
X55500000Y-12000000D03*
D15*
X51690000Y-9460000D03*
X58040000Y-6920000D03*
%TD*%
D16*
%TO.C,J1*%
X95000000Y-113080000D03*
X95000000Y-110540000D03*
D17*
X95000000Y-108000000D03*
%TD*%
M02*
