%TF.GenerationSoftware,KiCad,Pcbnew,5.1.5+dfsg1-2build2*%
%TF.CreationDate,2021-04-29T06:58:31-04:00*%
%TF.ProjectId,wildcatmfd_kicad,77696c64-6361-4746-9d66-645f6b696361,rev?*%
%TF.SameCoordinates,Original*%
%TF.FileFunction,Legend,Top*%
%TF.FilePolarity,Positive*%
%FSLAX46Y46*%
G04 Gerber Fmt 4.6, Leading zero omitted, Abs format (unit mm)*
G04 Created by KiCad (PCBNEW 5.1.5+dfsg1-2build2) date 2021-04-29 06:58:31*
%MOMM*%
%LPD*%
G04 APERTURE LIST*
%ADD10C,0.100000*%
%ADD11C,0.500000*%
%ADD12C,0.150000*%
%ADD13C,0.120000*%
G04 APERTURE END LIST*
D10*
X108380952Y-57952380D02*
X108380952Y-58666666D01*
X108333333Y-58809523D01*
X108238095Y-58904761D01*
X108095238Y-58952380D01*
X108000000Y-58952380D01*
X109428571Y-58857142D02*
X109380952Y-58904761D01*
X109238095Y-58952380D01*
X109142857Y-58952380D01*
X109000000Y-58904761D01*
X108904761Y-58809523D01*
X108857142Y-58714285D01*
X108809523Y-58523809D01*
X108809523Y-58380952D01*
X108857142Y-58190476D01*
X108904761Y-58095238D01*
X109000000Y-58000000D01*
X109142857Y-57952380D01*
X109238095Y-57952380D01*
X109380952Y-58000000D01*
X109428571Y-58047619D01*
X110333333Y-58952380D02*
X109857142Y-58952380D01*
X109857142Y-57952380D01*
X110952380Y-57952380D02*
X110952380Y-58666666D01*
X110904761Y-58809523D01*
X110809523Y-58904761D01*
X110666666Y-58952380D01*
X110571428Y-58952380D01*
X112000000Y-58857142D02*
X111952380Y-58904761D01*
X111809523Y-58952380D01*
X111714285Y-58952380D01*
X111571428Y-58904761D01*
X111476190Y-58809523D01*
X111428571Y-58714285D01*
X111380952Y-58523809D01*
X111380952Y-58380952D01*
X111428571Y-58190476D01*
X111476190Y-58095238D01*
X111571428Y-58000000D01*
X111714285Y-57952380D01*
X111809523Y-57952380D01*
X111952380Y-58000000D01*
X112000000Y-58047619D01*
X112904761Y-58952380D02*
X112428571Y-58952380D01*
X112428571Y-57952380D01*
X113523809Y-57952380D02*
X113523809Y-58666666D01*
X113476190Y-58809523D01*
X113380952Y-58904761D01*
X113238095Y-58952380D01*
X113142857Y-58952380D01*
X114571428Y-58857142D02*
X114523809Y-58904761D01*
X114380952Y-58952380D01*
X114285714Y-58952380D01*
X114142857Y-58904761D01*
X114047619Y-58809523D01*
X114000000Y-58714285D01*
X113952380Y-58523809D01*
X113952380Y-58380952D01*
X114000000Y-58190476D01*
X114047619Y-58095238D01*
X114142857Y-58000000D01*
X114285714Y-57952380D01*
X114380952Y-57952380D01*
X114523809Y-58000000D01*
X114571428Y-58047619D01*
X115476190Y-58952380D02*
X115000000Y-58952380D01*
X115000000Y-57952380D01*
X116095238Y-57952380D02*
X116095238Y-58666666D01*
X116047619Y-58809523D01*
X115952380Y-58904761D01*
X115809523Y-58952380D01*
X115714285Y-58952380D01*
X117142857Y-58857142D02*
X117095238Y-58904761D01*
X116952380Y-58952380D01*
X116857142Y-58952380D01*
X116714285Y-58904761D01*
X116619047Y-58809523D01*
X116571428Y-58714285D01*
X116523809Y-58523809D01*
X116523809Y-58380952D01*
X116571428Y-58190476D01*
X116619047Y-58095238D01*
X116714285Y-58000000D01*
X116857142Y-57952380D01*
X116952380Y-57952380D01*
X117095238Y-58000000D01*
X117142857Y-58047619D01*
X118047619Y-58952380D02*
X117571428Y-58952380D01*
X117571428Y-57952380D01*
D11*
X92357142Y-37857142D02*
X93071428Y-40857142D01*
X93642857Y-38714285D01*
X94214285Y-40857142D01*
X94928571Y-37857142D01*
X96071428Y-40857142D02*
X96071428Y-37857142D01*
X98928571Y-40857142D02*
X97500000Y-40857142D01*
X97500000Y-37857142D01*
X99928571Y-40857142D02*
X99928571Y-37857142D01*
X100642857Y-37857142D01*
X101071428Y-38000000D01*
X101357142Y-38285714D01*
X101500000Y-38571428D01*
X101642857Y-39142857D01*
X101642857Y-39571428D01*
X101500000Y-40142857D01*
X101357142Y-40428571D01*
X101071428Y-40714285D01*
X100642857Y-40857142D01*
X99928571Y-40857142D01*
X104642857Y-40571428D02*
X104500000Y-40714285D01*
X104071428Y-40857142D01*
X103785714Y-40857142D01*
X103357142Y-40714285D01*
X103071428Y-40428571D01*
X102928571Y-40142857D01*
X102785714Y-39571428D01*
X102785714Y-39142857D01*
X102928571Y-38571428D01*
X103071428Y-38285714D01*
X103357142Y-38000000D01*
X103785714Y-37857142D01*
X104071428Y-37857142D01*
X104500000Y-38000000D01*
X104642857Y-38142857D01*
X105785714Y-40000000D02*
X107214285Y-40000000D01*
X105500000Y-40857142D02*
X106500000Y-37857142D01*
X107500000Y-40857142D01*
X108071428Y-37857142D02*
X109785714Y-37857142D01*
X108928571Y-40857142D02*
X108928571Y-37857142D01*
X113071428Y-40857142D02*
X113071428Y-37857142D01*
X114071428Y-40000000D01*
X115071428Y-37857142D01*
X115071428Y-40857142D01*
X117500000Y-39285714D02*
X116500000Y-39285714D01*
X116500000Y-40857142D02*
X116500000Y-37857142D01*
X117928571Y-37857142D01*
X119071428Y-40857142D02*
X119071428Y-37857142D01*
X119785714Y-37857142D01*
X120214285Y-38000000D01*
X120500000Y-38285714D01*
X120642857Y-38571428D01*
X120785714Y-39142857D01*
X120785714Y-39571428D01*
X120642857Y-40142857D01*
X120500000Y-40428571D01*
X120214285Y-40714285D01*
X119785714Y-40857142D01*
X119071428Y-40857142D01*
X124071428Y-38857142D02*
X124785714Y-40857142D01*
X125500000Y-38857142D01*
X128214285Y-40857142D02*
X126500000Y-40857142D01*
X127357142Y-40857142D02*
X127357142Y-37857142D01*
X127071428Y-38285714D01*
X126785714Y-38571428D01*
X126500000Y-38714285D01*
X129500000Y-40571428D02*
X129642857Y-40714285D01*
X129500000Y-40857142D01*
X129357142Y-40714285D01*
X129500000Y-40571428D01*
X129500000Y-40857142D01*
X132500000Y-40857142D02*
X130785714Y-40857142D01*
X131642857Y-40857142D02*
X131642857Y-37857142D01*
X131357142Y-38285714D01*
X131071428Y-38571428D01*
X130785714Y-38714285D01*
X84928571Y-42857142D02*
X86642857Y-42857142D01*
X85785714Y-45857142D02*
X85785714Y-42857142D01*
X87642857Y-45857142D02*
X87642857Y-42857142D01*
X87642857Y-44285714D02*
X89357142Y-44285714D01*
X89357142Y-45857142D02*
X89357142Y-42857142D01*
X90785714Y-45857142D02*
X90785714Y-42857142D01*
X93928571Y-45857142D02*
X92928571Y-44428571D01*
X92214285Y-45857142D02*
X92214285Y-42857142D01*
X93357142Y-42857142D01*
X93642857Y-43000000D01*
X93785714Y-43142857D01*
X93928571Y-43428571D01*
X93928571Y-43857142D01*
X93785714Y-44142857D01*
X93642857Y-44285714D01*
X93357142Y-44428571D01*
X92214285Y-44428571D01*
X95214285Y-45857142D02*
X95214285Y-42857142D01*
X95928571Y-42857142D01*
X96357142Y-43000000D01*
X96642857Y-43285714D01*
X96785714Y-43571428D01*
X96928571Y-44142857D01*
X96928571Y-44571428D01*
X96785714Y-45142857D01*
X96642857Y-45428571D01*
X96357142Y-45714285D01*
X95928571Y-45857142D01*
X95214285Y-45857142D01*
X100071428Y-42857142D02*
X101785714Y-42857142D01*
X100928571Y-45857142D02*
X100928571Y-42857142D01*
X102785714Y-45857142D02*
X102785714Y-42857142D01*
X104214285Y-45857142D02*
X104214285Y-42857142D01*
X105214285Y-45000000D01*
X106214285Y-42857142D01*
X106214285Y-45857142D01*
X107642857Y-44285714D02*
X108642857Y-44285714D01*
X109071428Y-45857142D02*
X107642857Y-45857142D01*
X107642857Y-42857142D01*
X109071428Y-42857142D01*
X110214285Y-45714285D02*
X110642857Y-45857142D01*
X111357142Y-45857142D01*
X111642857Y-45714285D01*
X111785714Y-45571428D01*
X111928571Y-45285714D01*
X111928571Y-45000000D01*
X111785714Y-44714285D01*
X111642857Y-44571428D01*
X111357142Y-44428571D01*
X110785714Y-44285714D01*
X110499999Y-44142857D01*
X110357142Y-44000000D01*
X110214285Y-43714285D01*
X110214285Y-43428571D01*
X110357142Y-43142857D01*
X110499999Y-43000000D01*
X110785714Y-42857142D01*
X111499999Y-42857142D01*
X111928571Y-43000000D01*
X115071428Y-42857142D02*
X116785714Y-42857142D01*
X115928571Y-45857142D02*
X115928571Y-42857142D01*
X117785714Y-45857142D02*
X117785714Y-42857142D01*
X117785714Y-44285714D02*
X119499999Y-44285714D01*
X119499999Y-45857142D02*
X119499999Y-42857142D01*
X120928571Y-44285714D02*
X121928571Y-44285714D01*
X122357142Y-45857142D02*
X120928571Y-45857142D01*
X120928571Y-42857142D01*
X122357142Y-42857142D01*
X127642857Y-45571428D02*
X127499999Y-45714285D01*
X127071428Y-45857142D01*
X126785714Y-45857142D01*
X126357142Y-45714285D01*
X126071428Y-45428571D01*
X125928571Y-45142857D01*
X125785714Y-44571428D01*
X125785714Y-44142857D01*
X125928571Y-43571428D01*
X126071428Y-43285714D01*
X126357142Y-43000000D01*
X126785714Y-42857142D01*
X127071428Y-42857142D01*
X127499999Y-43000000D01*
X127642857Y-43142857D01*
X128928571Y-45857142D02*
X128928571Y-42857142D01*
X128928571Y-44285714D02*
X130642857Y-44285714D01*
X130642857Y-45857142D02*
X130642857Y-42857142D01*
X131928571Y-45000000D02*
X133357142Y-45000000D01*
X131642857Y-45857142D02*
X132642857Y-42857142D01*
X133642857Y-45857142D01*
X136357142Y-45857142D02*
X135357142Y-44428571D01*
X134642857Y-45857142D02*
X134642857Y-42857142D01*
X135785714Y-42857142D01*
X136071428Y-43000000D01*
X136214285Y-43142857D01*
X136357142Y-43428571D01*
X136357142Y-43857142D01*
X136214285Y-44142857D01*
X136071428Y-44285714D01*
X135785714Y-44428571D01*
X134642857Y-44428571D01*
X137642857Y-45857142D02*
X137642857Y-42857142D01*
X138642857Y-45000000D01*
X139642857Y-42857142D01*
X139642857Y-45857142D01*
X77857142Y-50857142D02*
X77857142Y-47857142D01*
X78571428Y-47857142D01*
X78999999Y-48000000D01*
X79285714Y-48285714D01*
X79428571Y-48571428D01*
X79571428Y-49142857D01*
X79571428Y-49571428D01*
X79428571Y-50142857D01*
X79285714Y-50428571D01*
X78999999Y-50714285D01*
X78571428Y-50857142D01*
X77857142Y-50857142D01*
X80857142Y-49285714D02*
X81857142Y-49285714D01*
X82285714Y-50857142D02*
X80857142Y-50857142D01*
X80857142Y-47857142D01*
X82285714Y-47857142D01*
X83428571Y-50714285D02*
X83857142Y-50857142D01*
X84571428Y-50857142D01*
X84857142Y-50714285D01*
X84999999Y-50571428D01*
X85142857Y-50285714D01*
X85142857Y-50000000D01*
X84999999Y-49714285D01*
X84857142Y-49571428D01*
X84571428Y-49428571D01*
X83999999Y-49285714D01*
X83714285Y-49142857D01*
X83571428Y-49000000D01*
X83428571Y-48714285D01*
X83428571Y-48428571D01*
X83571428Y-48142857D01*
X83714285Y-48000000D01*
X83999999Y-47857142D01*
X84714285Y-47857142D01*
X85142857Y-48000000D01*
X86428571Y-50857142D02*
X86428571Y-47857142D01*
X89428571Y-48000000D02*
X89142857Y-47857142D01*
X88714285Y-47857142D01*
X88285714Y-48000000D01*
X87999999Y-48285714D01*
X87857142Y-48571428D01*
X87714285Y-49142857D01*
X87714285Y-49571428D01*
X87857142Y-50142857D01*
X87999999Y-50428571D01*
X88285714Y-50714285D01*
X88714285Y-50857142D01*
X89000000Y-50857142D01*
X89428571Y-50714285D01*
X89571428Y-50571428D01*
X89571428Y-49571428D01*
X89000000Y-49571428D01*
X90857142Y-50857142D02*
X90857142Y-47857142D01*
X92571428Y-50857142D01*
X92571428Y-47857142D01*
X93999999Y-49285714D02*
X94999999Y-49285714D01*
X95428571Y-50857142D02*
X93999999Y-50857142D01*
X93999999Y-47857142D01*
X95428571Y-47857142D01*
X96714285Y-50857142D02*
X96714285Y-47857142D01*
X97428571Y-47857142D01*
X97857142Y-48000000D01*
X98142857Y-48285714D01*
X98285714Y-48571428D01*
X98428571Y-49142857D01*
X98428571Y-49571428D01*
X98285714Y-50142857D01*
X98142857Y-50428571D01*
X97857142Y-50714285D01*
X97428571Y-50857142D01*
X96714285Y-50857142D01*
X102999999Y-49285714D02*
X103428571Y-49428571D01*
X103571428Y-49571428D01*
X103714285Y-49857142D01*
X103714285Y-50285714D01*
X103571428Y-50571428D01*
X103428571Y-50714285D01*
X103142857Y-50857142D01*
X101999999Y-50857142D01*
X101999999Y-47857142D01*
X102999999Y-47857142D01*
X103285714Y-48000000D01*
X103428571Y-48142857D01*
X103571428Y-48428571D01*
X103571428Y-48714285D01*
X103428571Y-49000000D01*
X103285714Y-49142857D01*
X102999999Y-49285714D01*
X101999999Y-49285714D01*
X105571428Y-49428571D02*
X105571428Y-50857142D01*
X104571428Y-47857142D02*
X105571428Y-49428571D01*
X106571428Y-47857142D01*
X110714285Y-47857142D02*
X110714285Y-50000000D01*
X110571428Y-50428571D01*
X110285714Y-50714285D01*
X109857142Y-50857142D01*
X109571428Y-50857142D01*
X112142857Y-49285714D02*
X113142857Y-49285714D01*
X113571428Y-50857142D02*
X112142857Y-50857142D01*
X112142857Y-47857142D01*
X113571428Y-47857142D01*
X116571428Y-50857142D02*
X115571428Y-49428571D01*
X114857142Y-50857142D02*
X114857142Y-47857142D01*
X116000000Y-47857142D01*
X116285714Y-48000000D01*
X116428571Y-48142857D01*
X116571428Y-48428571D01*
X116571428Y-48857142D01*
X116428571Y-49142857D01*
X116285714Y-49285714D01*
X116000000Y-49428571D01*
X114857142Y-49428571D01*
X117857142Y-49285714D02*
X118857142Y-49285714D01*
X119285714Y-50857142D02*
X117857142Y-50857142D01*
X117857142Y-47857142D01*
X119285714Y-47857142D01*
X120571428Y-50857142D02*
X120571428Y-47857142D01*
X121571428Y-50000000D01*
X122571428Y-47857142D01*
X122571428Y-50857142D01*
X124571428Y-49428571D02*
X124571428Y-50857142D01*
X123571428Y-47857142D02*
X124571428Y-49428571D01*
X125571428Y-47857142D01*
X128857142Y-50857142D02*
X128857142Y-47857142D01*
X130571428Y-50857142D02*
X129285714Y-49142857D01*
X130571428Y-47857142D02*
X128857142Y-49571428D01*
X131857142Y-49285714D02*
X132857142Y-49285714D01*
X133285714Y-50857142D02*
X131857142Y-50857142D01*
X131857142Y-47857142D01*
X133285714Y-47857142D01*
X136000000Y-50857142D02*
X134571428Y-50857142D01*
X134571428Y-47857142D01*
X138428571Y-50857142D02*
X137000000Y-50857142D01*
X137000000Y-47857142D01*
X140000000Y-47857142D02*
X140571428Y-47857142D01*
X140857142Y-48000000D01*
X141142857Y-48285714D01*
X141285714Y-48857142D01*
X141285714Y-49857142D01*
X141142857Y-50428571D01*
X140857142Y-50714285D01*
X140571428Y-50857142D01*
X140000000Y-50857142D01*
X139714285Y-50714285D01*
X139428571Y-50428571D01*
X139285714Y-49857142D01*
X139285714Y-48857142D01*
X139428571Y-48285714D01*
X139714285Y-48000000D01*
X140000000Y-47857142D01*
X144142857Y-48000000D02*
X143857142Y-47857142D01*
X143428571Y-47857142D01*
X143000000Y-48000000D01*
X142714285Y-48285714D01*
X142571428Y-48571428D01*
X142428571Y-49142857D01*
X142428571Y-49571428D01*
X142571428Y-50142857D01*
X142714285Y-50428571D01*
X143000000Y-50714285D01*
X143428571Y-50857142D01*
X143714285Y-50857142D01*
X144142857Y-50714285D01*
X144285714Y-50571428D01*
X144285714Y-49571428D01*
X143714285Y-49571428D01*
X147142857Y-48000000D02*
X146857142Y-47857142D01*
X146428571Y-47857142D01*
X146000000Y-48000000D01*
X145714285Y-48285714D01*
X145571428Y-48571428D01*
X145428571Y-49142857D01*
X145428571Y-49571428D01*
X145571428Y-50142857D01*
X145714285Y-50428571D01*
X146000000Y-50714285D01*
X146428571Y-50857142D01*
X146714285Y-50857142D01*
X147142857Y-50714285D01*
X147285714Y-50571428D01*
X147285714Y-49571428D01*
X146714285Y-49571428D01*
X86785714Y-52857142D02*
X87357142Y-52857142D01*
X87642857Y-53000000D01*
X87928571Y-53285714D01*
X88071428Y-53857142D01*
X88071428Y-54857142D01*
X87928571Y-55428571D01*
X87642857Y-55714285D01*
X87357142Y-55857142D01*
X86785714Y-55857142D01*
X86500000Y-55714285D01*
X86214285Y-55428571D01*
X86071428Y-54857142D01*
X86071428Y-53857142D01*
X86214285Y-53285714D01*
X86500000Y-53000000D01*
X86785714Y-52857142D01*
X89357142Y-55857142D02*
X89357142Y-52857142D01*
X90357142Y-55000000D01*
X91357142Y-52857142D01*
X91357142Y-55857142D01*
X92785714Y-54285714D02*
X93785714Y-54285714D01*
X94214285Y-55857142D02*
X92785714Y-55857142D01*
X92785714Y-52857142D01*
X94214285Y-52857142D01*
X97071428Y-53000000D02*
X96785714Y-52857142D01*
X96357142Y-52857142D01*
X95928571Y-53000000D01*
X95642857Y-53285714D01*
X95500000Y-53571428D01*
X95357142Y-54142857D01*
X95357142Y-54571428D01*
X95500000Y-55142857D01*
X95642857Y-55428571D01*
X95928571Y-55714285D01*
X96357142Y-55857142D01*
X96642857Y-55857142D01*
X97071428Y-55714285D01*
X97214285Y-55571428D01*
X97214285Y-54571428D01*
X96642857Y-54571428D01*
X98357142Y-55000000D02*
X99785714Y-55000000D01*
X98071428Y-55857142D02*
X99071428Y-52857142D01*
X100071428Y-55857142D01*
X101214285Y-55857142D02*
X101785714Y-55857142D01*
X102071428Y-55714285D01*
X102214285Y-55571428D01*
X102500000Y-55142857D01*
X102642857Y-54571428D01*
X102642857Y-53428571D01*
X102500000Y-53142857D01*
X102357142Y-53000000D01*
X102071428Y-52857142D01*
X101500000Y-52857142D01*
X101214285Y-53000000D01*
X101071428Y-53142857D01*
X100928571Y-53428571D01*
X100928571Y-54142857D01*
X101071428Y-54428571D01*
X101214285Y-54571428D01*
X101500000Y-54714285D01*
X102071428Y-54714285D01*
X102357142Y-54571428D01*
X102500000Y-54428571D01*
X102642857Y-54142857D01*
X103642857Y-52857142D02*
X105500000Y-52857142D01*
X104500000Y-54000000D01*
X104928571Y-54000000D01*
X105214285Y-54142857D01*
X105357142Y-54285714D01*
X105500000Y-54571428D01*
X105500000Y-55285714D01*
X105357142Y-55571428D01*
X105214285Y-55714285D01*
X104928571Y-55857142D01*
X104071428Y-55857142D01*
X103785714Y-55714285D01*
X103642857Y-55571428D01*
X107214285Y-54142857D02*
X106928571Y-54000000D01*
X106785714Y-53857142D01*
X106642857Y-53571428D01*
X106642857Y-53428571D01*
X106785714Y-53142857D01*
X106928571Y-53000000D01*
X107214285Y-52857142D01*
X107785714Y-52857142D01*
X108071428Y-53000000D01*
X108214285Y-53142857D01*
X108357142Y-53428571D01*
X108357142Y-53571428D01*
X108214285Y-53857142D01*
X108071428Y-54000000D01*
X107785714Y-54142857D01*
X107214285Y-54142857D01*
X106928571Y-54285714D01*
X106785714Y-54428571D01*
X106642857Y-54714285D01*
X106642857Y-55285714D01*
X106785714Y-55571428D01*
X106928571Y-55714285D01*
X107214285Y-55857142D01*
X107785714Y-55857142D01*
X108071428Y-55714285D01*
X108214285Y-55571428D01*
X108357142Y-55285714D01*
X108357142Y-54714285D01*
X108214285Y-54428571D01*
X108071428Y-54285714D01*
X107785714Y-54142857D01*
X110214285Y-52857142D02*
X110500000Y-52857142D01*
X110785714Y-53000000D01*
X110928571Y-53142857D01*
X111071428Y-53428571D01*
X111214285Y-54000000D01*
X111214285Y-54714285D01*
X111071428Y-55285714D01*
X110928571Y-55571428D01*
X110785714Y-55714285D01*
X110500000Y-55857142D01*
X110214285Y-55857142D01*
X109928571Y-55714285D01*
X109785714Y-55571428D01*
X109642857Y-55285714D01*
X109500000Y-54714285D01*
X109500000Y-54000000D01*
X109642857Y-53428571D01*
X109785714Y-53142857D01*
X109928571Y-53000000D01*
X110214285Y-52857142D01*
X114357142Y-54428571D02*
X114214285Y-54285714D01*
X113928571Y-54142857D01*
X113642857Y-54142857D01*
X113357142Y-54285714D01*
X113214285Y-54428571D01*
X113071428Y-54714285D01*
X113071428Y-55000000D01*
X113214285Y-55285714D01*
X113357142Y-55428571D01*
X113642857Y-55571428D01*
X113928571Y-55571428D01*
X114214285Y-55428571D01*
X114357142Y-55285714D01*
X114357142Y-54142857D02*
X114357142Y-55285714D01*
X114500000Y-55428571D01*
X114642857Y-55428571D01*
X114928571Y-55285714D01*
X115071428Y-55000000D01*
X115071428Y-54285714D01*
X114785714Y-53857142D01*
X114357142Y-53571428D01*
X113785714Y-53428571D01*
X113214285Y-53571428D01*
X112785714Y-53857142D01*
X112500000Y-54285714D01*
X112357142Y-54857142D01*
X112500000Y-55428571D01*
X112785714Y-55857142D01*
X113214285Y-56142857D01*
X113785714Y-56285714D01*
X114357142Y-56142857D01*
X114785714Y-55857142D01*
X117928571Y-53000000D02*
X117642857Y-52857142D01*
X117214285Y-52857142D01*
X116785714Y-53000000D01*
X116500000Y-53285714D01*
X116357142Y-53571428D01*
X116214285Y-54142857D01*
X116214285Y-54571428D01*
X116357142Y-55142857D01*
X116500000Y-55428571D01*
X116785714Y-55714285D01*
X117214285Y-55857142D01*
X117500000Y-55857142D01*
X117928571Y-55714285D01*
X118071428Y-55571428D01*
X118071428Y-54571428D01*
X117500000Y-54571428D01*
X119357142Y-55857142D02*
X119357142Y-52857142D01*
X120357142Y-55000000D01*
X121357142Y-52857142D01*
X121357142Y-55857142D01*
X122642857Y-55000000D02*
X124071428Y-55000000D01*
X122357142Y-55857142D02*
X123357142Y-52857142D01*
X124357142Y-55857142D01*
X125357142Y-55857142D02*
X125357142Y-52857142D01*
X128214285Y-55857142D02*
X126785714Y-55857142D01*
X126785714Y-52857142D01*
X129214285Y-55571428D02*
X129357142Y-55714285D01*
X129214285Y-55857142D01*
X129071428Y-55714285D01*
X129214285Y-55571428D01*
X129214285Y-55857142D01*
X132357142Y-55571428D02*
X132214285Y-55714285D01*
X131785714Y-55857142D01*
X131500000Y-55857142D01*
X131071428Y-55714285D01*
X130785714Y-55428571D01*
X130642857Y-55142857D01*
X130500000Y-54571428D01*
X130500000Y-54142857D01*
X130642857Y-53571428D01*
X130785714Y-53285714D01*
X131071428Y-53000000D01*
X131500000Y-52857142D01*
X131785714Y-52857142D01*
X132214285Y-53000000D01*
X132357142Y-53142857D01*
X134214285Y-52857142D02*
X134785714Y-52857142D01*
X135071428Y-53000000D01*
X135357142Y-53285714D01*
X135500000Y-53857142D01*
X135500000Y-54857142D01*
X135357142Y-55428571D01*
X135071428Y-55714285D01*
X134785714Y-55857142D01*
X134214285Y-55857142D01*
X133928571Y-55714285D01*
X133642857Y-55428571D01*
X133500000Y-54857142D01*
X133500000Y-53857142D01*
X133642857Y-53285714D01*
X133928571Y-53000000D01*
X134214285Y-52857142D01*
X136785714Y-55857142D02*
X136785714Y-52857142D01*
X137785714Y-55000000D01*
X138785714Y-52857142D01*
X138785714Y-55857142D01*
D12*
X93047619Y-116452380D02*
X93047619Y-115452380D01*
X93380952Y-116166666D01*
X93714285Y-115452380D01*
X93714285Y-116452380D01*
X94380952Y-115452380D02*
X94571428Y-115452380D01*
X94666666Y-115500000D01*
X94761904Y-115595238D01*
X94809523Y-115785714D01*
X94809523Y-116119047D01*
X94761904Y-116309523D01*
X94666666Y-116404761D01*
X94571428Y-116452380D01*
X94380952Y-116452380D01*
X94285714Y-116404761D01*
X94190476Y-116309523D01*
X94142857Y-116119047D01*
X94142857Y-115785714D01*
X94190476Y-115595238D01*
X94285714Y-115500000D01*
X94380952Y-115452380D01*
X95238095Y-116452380D02*
X95238095Y-115452380D01*
X95809523Y-116452380D01*
X95809523Y-115452380D01*
X96285714Y-116452380D02*
X96285714Y-115452380D01*
X96619047Y-115452380D02*
X97190476Y-115452380D01*
X96904761Y-116452380D02*
X96904761Y-115452380D01*
X97714285Y-115452380D02*
X97904761Y-115452380D01*
X98000000Y-115500000D01*
X98095238Y-115595238D01*
X98142857Y-115785714D01*
X98142857Y-116119047D01*
X98095238Y-116309523D01*
X98000000Y-116404761D01*
X97904761Y-116452380D01*
X97714285Y-116452380D01*
X97619047Y-116404761D01*
X97523809Y-116309523D01*
X97476190Y-116119047D01*
X97476190Y-115785714D01*
X97523809Y-115595238D01*
X97619047Y-115500000D01*
X97714285Y-115452380D01*
X99142857Y-116452380D02*
X98809523Y-115976190D01*
X98571428Y-116452380D02*
X98571428Y-115452380D01*
X98952380Y-115452380D01*
X99047619Y-115500000D01*
X99095238Y-115547619D01*
X99142857Y-115642857D01*
X99142857Y-115785714D01*
X99095238Y-115880952D01*
X99047619Y-115928571D01*
X98952380Y-115976190D01*
X98571428Y-115976190D01*
X100333333Y-116452380D02*
X100333333Y-115452380D01*
X100714285Y-115452380D01*
X100809523Y-115500000D01*
X100857142Y-115547619D01*
X100904761Y-115642857D01*
X100904761Y-115785714D01*
X100857142Y-115880952D01*
X100809523Y-115928571D01*
X100714285Y-115976190D01*
X100333333Y-115976190D01*
X101523809Y-115452380D02*
X101714285Y-115452380D01*
X101809523Y-115500000D01*
X101904761Y-115595238D01*
X101952380Y-115785714D01*
X101952380Y-116119047D01*
X101904761Y-116309523D01*
X101809523Y-116404761D01*
X101714285Y-116452380D01*
X101523809Y-116452380D01*
X101428571Y-116404761D01*
X101333333Y-116309523D01*
X101285714Y-116119047D01*
X101285714Y-115785714D01*
X101333333Y-115595238D01*
X101428571Y-115500000D01*
X101523809Y-115452380D01*
X102285714Y-115452380D02*
X102523809Y-116452380D01*
X102714285Y-115738095D01*
X102904761Y-116452380D01*
X103142857Y-115452380D01*
X103523809Y-115928571D02*
X103857142Y-115928571D01*
X104000000Y-116452380D02*
X103523809Y-116452380D01*
X103523809Y-115452380D01*
X104000000Y-115452380D01*
X105000000Y-116452380D02*
X104666666Y-115976190D01*
X104428571Y-116452380D02*
X104428571Y-115452380D01*
X104809523Y-115452380D01*
X104904761Y-115500000D01*
X104952380Y-115547619D01*
X105000000Y-115642857D01*
X105000000Y-115785714D01*
X104952380Y-115880952D01*
X104904761Y-115928571D01*
X104809523Y-115976190D01*
X104428571Y-115976190D01*
X74452380Y-139952380D02*
X73452380Y-139952380D01*
X73928571Y-139952380D02*
X73928571Y-139380952D01*
X74452380Y-139380952D02*
X73452380Y-139380952D01*
X74452380Y-138904761D02*
X73452380Y-138904761D01*
X73452380Y-138666666D01*
X73500000Y-138523809D01*
X73595238Y-138428571D01*
X73690476Y-138380952D01*
X73880952Y-138333333D01*
X74023809Y-138333333D01*
X74214285Y-138380952D01*
X74309523Y-138428571D01*
X74404761Y-138523809D01*
X74452380Y-138666666D01*
X74452380Y-138904761D01*
X74452380Y-137904761D02*
X73452380Y-137904761D01*
X74166666Y-137571428D01*
X73452380Y-137238095D01*
X74452380Y-137238095D01*
X74452380Y-136761904D02*
X73452380Y-136761904D01*
X74452380Y-134952380D02*
X73976190Y-135285714D01*
X74452380Y-135523809D02*
X73452380Y-135523809D01*
X73452380Y-135142857D01*
X73500000Y-135047619D01*
X73547619Y-135000000D01*
X73642857Y-134952380D01*
X73785714Y-134952380D01*
X73880952Y-135000000D01*
X73928571Y-135047619D01*
X73976190Y-135142857D01*
X73976190Y-135523809D01*
X74452380Y-134523809D02*
X73452380Y-134523809D01*
X73928571Y-133714285D02*
X73976190Y-133571428D01*
X74023809Y-133523809D01*
X74119047Y-133476190D01*
X74261904Y-133476190D01*
X74357142Y-133523809D01*
X74404761Y-133571428D01*
X74452380Y-133666666D01*
X74452380Y-134047619D01*
X73452380Y-134047619D01*
X73452380Y-133714285D01*
X73500000Y-133619047D01*
X73547619Y-133571428D01*
X73642857Y-133523809D01*
X73738095Y-133523809D01*
X73833333Y-133571428D01*
X73880952Y-133619047D01*
X73928571Y-133714285D01*
X73928571Y-134047619D01*
X73928571Y-132714285D02*
X73976190Y-132571428D01*
X74023809Y-132523809D01*
X74119047Y-132476190D01*
X74261904Y-132476190D01*
X74357142Y-132523809D01*
X74404761Y-132571428D01*
X74452380Y-132666666D01*
X74452380Y-133047619D01*
X73452380Y-133047619D01*
X73452380Y-132714285D01*
X73500000Y-132619047D01*
X73547619Y-132571428D01*
X73642857Y-132523809D01*
X73738095Y-132523809D01*
X73833333Y-132571428D01*
X73880952Y-132619047D01*
X73928571Y-132714285D01*
X73928571Y-133047619D01*
X73452380Y-131857142D02*
X73452380Y-131666666D01*
X73500000Y-131571428D01*
X73595238Y-131476190D01*
X73785714Y-131428571D01*
X74119047Y-131428571D01*
X74309523Y-131476190D01*
X74404761Y-131571428D01*
X74452380Y-131666666D01*
X74452380Y-131857142D01*
X74404761Y-131952380D01*
X74309523Y-132047619D01*
X74119047Y-132095238D01*
X73785714Y-132095238D01*
X73595238Y-132047619D01*
X73500000Y-131952380D01*
X73452380Y-131857142D01*
X74452380Y-131000000D02*
X73452380Y-131000000D01*
X74452380Y-130428571D01*
X73452380Y-130428571D01*
X74452380Y-129190476D02*
X73452380Y-129190476D01*
X73452380Y-128809523D01*
X73500000Y-128714285D01*
X73547619Y-128666666D01*
X73642857Y-128619047D01*
X73785714Y-128619047D01*
X73880952Y-128666666D01*
X73928571Y-128714285D01*
X73976190Y-128809523D01*
X73976190Y-129190476D01*
X74166666Y-128238095D02*
X74166666Y-127761904D01*
X74452380Y-128333333D02*
X73452380Y-128000000D01*
X74452380Y-127666666D01*
X74404761Y-127380952D02*
X74452380Y-127238095D01*
X74452380Y-127000000D01*
X74404761Y-126904761D01*
X74357142Y-126857142D01*
X74261904Y-126809523D01*
X74166666Y-126809523D01*
X74071428Y-126857142D01*
X74023809Y-126904761D01*
X73976190Y-127000000D01*
X73928571Y-127190476D01*
X73880952Y-127285714D01*
X73833333Y-127333333D01*
X73738095Y-127380952D01*
X73642857Y-127380952D01*
X73547619Y-127333333D01*
X73500000Y-127285714D01*
X73452380Y-127190476D01*
X73452380Y-126952380D01*
X73500000Y-126809523D01*
X74404761Y-126428571D02*
X74452380Y-126285714D01*
X74452380Y-126047619D01*
X74404761Y-125952380D01*
X74357142Y-125904761D01*
X74261904Y-125857142D01*
X74166666Y-125857142D01*
X74071428Y-125904761D01*
X74023809Y-125952380D01*
X73976190Y-126047619D01*
X73928571Y-126238095D01*
X73880952Y-126333333D01*
X73833333Y-126380952D01*
X73738095Y-126428571D01*
X73642857Y-126428571D01*
X73547619Y-126380952D01*
X73500000Y-126333333D01*
X73452380Y-126238095D01*
X73452380Y-126000000D01*
X73500000Y-125857142D01*
X73452380Y-125571428D02*
X73452380Y-125000000D01*
X74452380Y-125285714D02*
X73452380Y-125285714D01*
X74452380Y-124666666D02*
X73452380Y-124666666D01*
X73928571Y-124666666D02*
X73928571Y-124095238D01*
X74452380Y-124095238D02*
X73452380Y-124095238D01*
X74452380Y-123047619D02*
X73976190Y-123380952D01*
X74452380Y-123619047D02*
X73452380Y-123619047D01*
X73452380Y-123238095D01*
X73500000Y-123142857D01*
X73547619Y-123095238D01*
X73642857Y-123047619D01*
X73785714Y-123047619D01*
X73880952Y-123095238D01*
X73928571Y-123142857D01*
X73976190Y-123238095D01*
X73976190Y-123619047D01*
X73452380Y-122619047D02*
X74261904Y-122619047D01*
X74357142Y-122571428D01*
X74404761Y-122523809D01*
X74452380Y-122428571D01*
X74452380Y-122238095D01*
X74404761Y-122142857D01*
X74357142Y-122095238D01*
X74261904Y-122047619D01*
X73452380Y-122047619D01*
X100095238Y-85904761D02*
X100238095Y-85952380D01*
X100476190Y-85952380D01*
X100571428Y-85904761D01*
X100619047Y-85857142D01*
X100666666Y-85761904D01*
X100666666Y-85666666D01*
X100619047Y-85571428D01*
X100571428Y-85523809D01*
X100476190Y-85476190D01*
X100285714Y-85428571D01*
X100190476Y-85380952D01*
X100142857Y-85333333D01*
X100095238Y-85238095D01*
X100095238Y-85142857D01*
X100142857Y-85047619D01*
X100190476Y-85000000D01*
X100285714Y-84952380D01*
X100523809Y-84952380D01*
X100666666Y-85000000D01*
X101285714Y-84952380D02*
X101476190Y-84952380D01*
X101571428Y-85000000D01*
X101666666Y-85095238D01*
X101714285Y-85285714D01*
X101714285Y-85619047D01*
X101666666Y-85809523D01*
X101571428Y-85904761D01*
X101476190Y-85952380D01*
X101285714Y-85952380D01*
X101190476Y-85904761D01*
X101095238Y-85809523D01*
X101047619Y-85619047D01*
X101047619Y-85285714D01*
X101095238Y-85095238D01*
X101190476Y-85000000D01*
X101285714Y-84952380D01*
X102619047Y-85952380D02*
X102142857Y-85952380D01*
X102142857Y-84952380D01*
X102952380Y-85952380D02*
X102952380Y-84952380D01*
X103190476Y-84952380D01*
X103333333Y-85000000D01*
X103428571Y-85095238D01*
X103476190Y-85190476D01*
X103523809Y-85380952D01*
X103523809Y-85523809D01*
X103476190Y-85714285D01*
X103428571Y-85809523D01*
X103333333Y-85904761D01*
X103190476Y-85952380D01*
X102952380Y-85952380D01*
X103952380Y-85428571D02*
X104285714Y-85428571D01*
X104428571Y-85952380D02*
X103952380Y-85952380D01*
X103952380Y-84952380D01*
X104428571Y-84952380D01*
X105428571Y-85952380D02*
X105095238Y-85476190D01*
X104857142Y-85952380D02*
X104857142Y-84952380D01*
X105238095Y-84952380D01*
X105333333Y-85000000D01*
X105380952Y-85047619D01*
X105428571Y-85142857D01*
X105428571Y-85285714D01*
X105380952Y-85380952D01*
X105333333Y-85428571D01*
X105238095Y-85476190D01*
X104857142Y-85476190D01*
X106476190Y-84952380D02*
X107047619Y-84952380D01*
X106761904Y-85952380D02*
X106761904Y-84952380D01*
X107380952Y-85428571D02*
X107714285Y-85428571D01*
X107857142Y-85952380D02*
X107380952Y-85952380D01*
X107380952Y-84952380D01*
X107857142Y-84952380D01*
X108285714Y-85428571D02*
X108619047Y-85428571D01*
X108761904Y-85952380D02*
X108285714Y-85952380D01*
X108285714Y-84952380D01*
X108761904Y-84952380D01*
X109190476Y-85952380D02*
X109190476Y-84952380D01*
X109761904Y-85952380D01*
X109761904Y-84952380D01*
X110190476Y-85904761D02*
X110333333Y-85952380D01*
X110571428Y-85952380D01*
X110666666Y-85904761D01*
X110714285Y-85857142D01*
X110761904Y-85761904D01*
X110761904Y-85666666D01*
X110714285Y-85571428D01*
X110666666Y-85523809D01*
X110571428Y-85476190D01*
X110380952Y-85428571D01*
X110285714Y-85380952D01*
X110238095Y-85333333D01*
X110190476Y-85238095D01*
X110190476Y-85142857D01*
X110238095Y-85047619D01*
X110285714Y-85000000D01*
X110380952Y-84952380D01*
X110619047Y-84952380D01*
X110761904Y-85000000D01*
X111380952Y-85476190D02*
X111380952Y-85952380D01*
X111047619Y-84952380D02*
X111380952Y-85476190D01*
X111714285Y-84952380D01*
X112714285Y-84952380D02*
X113333333Y-84952380D01*
X113000000Y-85333333D01*
X113142857Y-85333333D01*
X113238095Y-85380952D01*
X113285714Y-85428571D01*
X113333333Y-85523809D01*
X113333333Y-85761904D01*
X113285714Y-85857142D01*
X113238095Y-85904761D01*
X113142857Y-85952380D01*
X112857142Y-85952380D01*
X112761904Y-85904761D01*
X112714285Y-85857142D01*
X113761904Y-85857142D02*
X113809523Y-85904761D01*
X113761904Y-85952380D01*
X113714285Y-85904761D01*
X113761904Y-85857142D01*
X113761904Y-85952380D01*
X114666666Y-84952380D02*
X114476190Y-84952380D01*
X114380952Y-85000000D01*
X114333333Y-85047619D01*
X114238095Y-85190476D01*
X114190476Y-85380952D01*
X114190476Y-85761904D01*
X114238095Y-85857142D01*
X114285714Y-85904761D01*
X114380952Y-85952380D01*
X114571428Y-85952380D01*
X114666666Y-85904761D01*
X114714285Y-85857142D01*
X114761904Y-85761904D01*
X114761904Y-85523809D01*
X114714285Y-85428571D01*
X114666666Y-85380952D01*
X114571428Y-85333333D01*
X114380952Y-85333333D01*
X114285714Y-85380952D01*
X114238095Y-85428571D01*
X114190476Y-85523809D01*
X116142857Y-84952380D02*
X116333333Y-84952380D01*
X116428571Y-85000000D01*
X116523809Y-85095238D01*
X116571428Y-85285714D01*
X116571428Y-85619047D01*
X116523809Y-85809523D01*
X116428571Y-85904761D01*
X116333333Y-85952380D01*
X116142857Y-85952380D01*
X116047619Y-85904761D01*
X115952380Y-85809523D01*
X115904761Y-85619047D01*
X115904761Y-85285714D01*
X115952380Y-85095238D01*
X116047619Y-85000000D01*
X116142857Y-84952380D01*
X117000000Y-85952380D02*
X117000000Y-84952380D01*
X117571428Y-85952380D01*
X117571428Y-84952380D01*
X119380952Y-85952380D02*
X119047619Y-85476190D01*
X118809523Y-85952380D02*
X118809523Y-84952380D01*
X119190476Y-84952380D01*
X119285714Y-85000000D01*
X119333333Y-85047619D01*
X119380952Y-85142857D01*
X119380952Y-85285714D01*
X119333333Y-85380952D01*
X119285714Y-85428571D01*
X119190476Y-85476190D01*
X118809523Y-85476190D01*
X119809523Y-85428571D02*
X120142857Y-85428571D01*
X120285714Y-85952380D02*
X119809523Y-85952380D01*
X119809523Y-84952380D01*
X120285714Y-84952380D01*
X120571428Y-84952380D02*
X120904761Y-85952380D01*
X121238095Y-84952380D01*
X121571428Y-85428571D02*
X121904761Y-85428571D01*
X122047619Y-85952380D02*
X121571428Y-85952380D01*
X121571428Y-84952380D01*
X122047619Y-84952380D01*
X123047619Y-85952380D02*
X122714285Y-85476190D01*
X122476190Y-85952380D02*
X122476190Y-84952380D01*
X122857142Y-84952380D01*
X122952380Y-85000000D01*
X123000000Y-85047619D01*
X123047619Y-85142857D01*
X123047619Y-85285714D01*
X123000000Y-85380952D01*
X122952380Y-85428571D01*
X122857142Y-85476190D01*
X122476190Y-85476190D01*
X123428571Y-85904761D02*
X123571428Y-85952380D01*
X123809523Y-85952380D01*
X123904761Y-85904761D01*
X123952380Y-85857142D01*
X124000000Y-85761904D01*
X124000000Y-85666666D01*
X123952380Y-85571428D01*
X123904761Y-85523809D01*
X123809523Y-85476190D01*
X123619047Y-85428571D01*
X123523809Y-85380952D01*
X123476190Y-85333333D01*
X123428571Y-85238095D01*
X123428571Y-85142857D01*
X123476190Y-85047619D01*
X123523809Y-85000000D01*
X123619047Y-84952380D01*
X123857142Y-84952380D01*
X124000000Y-85000000D01*
X124428571Y-85428571D02*
X124761904Y-85428571D01*
X124904761Y-85952380D02*
X124428571Y-85952380D01*
X124428571Y-84952380D01*
X124904761Y-84952380D01*
D13*
%TO.C,SW20*%
X5015000Y-40015000D02*
X18985000Y-40015000D01*
X18985000Y-40015000D02*
X18985000Y-53985000D01*
X18985000Y-53985000D02*
X5015000Y-53985000D01*
X5015000Y-53985000D02*
X5015000Y-40015000D01*
%TO.C,SW19*%
X5015000Y-60015000D02*
X18985000Y-60015000D01*
X18985000Y-60015000D02*
X18985000Y-73985000D01*
X18985000Y-73985000D02*
X5015000Y-73985000D01*
X5015000Y-73985000D02*
X5015000Y-60015000D01*
%TO.C,SW18*%
X5015000Y-80015000D02*
X18985000Y-80015000D01*
X18985000Y-80015000D02*
X18985000Y-93985000D01*
X18985000Y-93985000D02*
X5015000Y-93985000D01*
X5015000Y-93985000D02*
X5015000Y-80015000D01*
%TO.C,SW17*%
X5015000Y-100015000D02*
X18985000Y-100015000D01*
X18985000Y-100015000D02*
X18985000Y-113985000D01*
X18985000Y-113985000D02*
X5015000Y-113985000D01*
X5015000Y-113985000D02*
X5015000Y-100015000D01*
%TO.C,SW16*%
X5015000Y-120015000D02*
X18985000Y-120015000D01*
X18985000Y-120015000D02*
X18985000Y-133985000D01*
X18985000Y-133985000D02*
X5015000Y-133985000D01*
X5015000Y-133985000D02*
X5015000Y-120015000D01*
%TO.C,SW15*%
X48015000Y-152015000D02*
X61985000Y-152015000D01*
X61985000Y-152015000D02*
X61985000Y-165985000D01*
X61985000Y-165985000D02*
X48015000Y-165985000D01*
X48015000Y-165985000D02*
X48015000Y-152015000D01*
%TO.C,SW14*%
X76515000Y-152015000D02*
X90485000Y-152015000D01*
X90485000Y-152015000D02*
X90485000Y-165985000D01*
X90485000Y-165985000D02*
X76515000Y-165985000D01*
X76515000Y-165985000D02*
X76515000Y-152015000D01*
%TO.C,SW13*%
X105015000Y-152015000D02*
X118985000Y-152015000D01*
X118985000Y-152015000D02*
X118985000Y-165985000D01*
X118985000Y-165985000D02*
X105015000Y-165985000D01*
X105015000Y-165985000D02*
X105015000Y-152015000D01*
%TO.C,SW12*%
X133515000Y-152015000D02*
X147485000Y-152015000D01*
X147485000Y-152015000D02*
X147485000Y-165985000D01*
X147485000Y-165985000D02*
X133515000Y-165985000D01*
X133515000Y-165985000D02*
X133515000Y-152015000D01*
%TO.C,SW11*%
X162015000Y-152015000D02*
X175985000Y-152015000D01*
X175985000Y-152015000D02*
X175985000Y-165985000D01*
X175985000Y-165985000D02*
X162015000Y-165985000D01*
X162015000Y-165985000D02*
X162015000Y-152015000D01*
%TO.C,SW10*%
X206015000Y-120015000D02*
X219985000Y-120015000D01*
X219985000Y-120015000D02*
X219985000Y-133985000D01*
X219985000Y-133985000D02*
X206015000Y-133985000D01*
X206015000Y-133985000D02*
X206015000Y-120015000D01*
%TO.C,SW9*%
X206015000Y-100015000D02*
X219985000Y-100015000D01*
X219985000Y-100015000D02*
X219985000Y-113985000D01*
X219985000Y-113985000D02*
X206015000Y-113985000D01*
X206015000Y-113985000D02*
X206015000Y-100015000D01*
%TO.C,SW8*%
X206015000Y-80015000D02*
X219985000Y-80015000D01*
X219985000Y-80015000D02*
X219985000Y-93985000D01*
X219985000Y-93985000D02*
X206015000Y-93985000D01*
X206015000Y-93985000D02*
X206015000Y-80015000D01*
%TO.C,SW7*%
X206015000Y-60015000D02*
X219985000Y-60015000D01*
X219985000Y-60015000D02*
X219985000Y-73985000D01*
X219985000Y-73985000D02*
X206015000Y-73985000D01*
X206015000Y-73985000D02*
X206015000Y-60015000D01*
%TO.C,SW6*%
X206015000Y-40015000D02*
X219985000Y-40015000D01*
X219985000Y-40015000D02*
X219985000Y-53985000D01*
X219985000Y-53985000D02*
X206015000Y-53985000D01*
X206015000Y-53985000D02*
X206015000Y-40015000D01*
%TO.C,SW5*%
X163015000Y-5015000D02*
X176985000Y-5015000D01*
X176985000Y-5015000D02*
X176985000Y-18985000D01*
X176985000Y-18985000D02*
X163015000Y-18985000D01*
X163015000Y-18985000D02*
X163015000Y-5015000D01*
%TO.C,SW4*%
X134515000Y-5015000D02*
X148485000Y-5015000D01*
X148485000Y-5015000D02*
X148485000Y-18985000D01*
X148485000Y-18985000D02*
X134515000Y-18985000D01*
X134515000Y-18985000D02*
X134515000Y-5015000D01*
%TO.C,SW3*%
X105515000Y-5015000D02*
X119485000Y-5015000D01*
X119485000Y-5015000D02*
X119485000Y-18985000D01*
X119485000Y-18985000D02*
X105515000Y-18985000D01*
X105515000Y-18985000D02*
X105515000Y-5015000D01*
%TO.C,SW2*%
X77015000Y-5015000D02*
X90985000Y-5015000D01*
X90985000Y-5015000D02*
X90985000Y-18985000D01*
X90985000Y-18985000D02*
X77015000Y-18985000D01*
X77015000Y-18985000D02*
X77015000Y-5015000D01*
%TO.C,SW1*%
X48515000Y-5015000D02*
X62485000Y-5015000D01*
X62485000Y-5015000D02*
X62485000Y-18985000D01*
X62485000Y-18985000D02*
X48515000Y-18985000D01*
X48515000Y-18985000D02*
X48515000Y-5015000D01*
%TO.C,J1*%
X96440000Y-106670000D02*
X96440000Y-114410000D01*
X96440000Y-114410000D02*
X99100000Y-114410000D01*
X99100000Y-114410000D02*
X99100000Y-106670000D01*
X99100000Y-106670000D02*
X96440000Y-106670000D01*
X99100000Y-107620000D02*
X105100000Y-107620000D01*
X105100000Y-107620000D02*
X105100000Y-108380000D01*
X105100000Y-108380000D02*
X99100000Y-108380000D01*
X99100000Y-107680000D02*
X105100000Y-107680000D01*
X99100000Y-107800000D02*
X105100000Y-107800000D01*
X99100000Y-107920000D02*
X105100000Y-107920000D01*
X99100000Y-108040000D02*
X105100000Y-108040000D01*
X99100000Y-108160000D02*
X105100000Y-108160000D01*
X99100000Y-108280000D02*
X105100000Y-108280000D01*
X96110000Y-107620000D02*
X96440000Y-107620000D01*
X96110000Y-108380000D02*
X96440000Y-108380000D01*
X96440000Y-109270000D02*
X99100000Y-109270000D01*
X99100000Y-110160000D02*
X105100000Y-110160000D01*
X105100000Y-110160000D02*
X105100000Y-110920000D01*
X105100000Y-110920000D02*
X99100000Y-110920000D01*
X96042929Y-110160000D02*
X96440000Y-110160000D01*
X96042929Y-110920000D02*
X96440000Y-110920000D01*
X96440000Y-111810000D02*
X99100000Y-111810000D01*
X99100000Y-112700000D02*
X105100000Y-112700000D01*
X105100000Y-112700000D02*
X105100000Y-113460000D01*
X105100000Y-113460000D02*
X99100000Y-113460000D01*
X96042929Y-112700000D02*
X96440000Y-112700000D01*
X96042929Y-113460000D02*
X96440000Y-113460000D01*
X93730000Y-108000000D02*
X93730000Y-106730000D01*
X93730000Y-106730000D02*
X95000000Y-106730000D01*
%TO.C,*%
D12*
%TO.C,SCRN_MNT*%
X187333333Y-24404761D02*
X187476190Y-24452380D01*
X187714285Y-24452380D01*
X187809523Y-24404761D01*
X187857142Y-24357142D01*
X187904761Y-24261904D01*
X187904761Y-24166666D01*
X187857142Y-24071428D01*
X187809523Y-24023809D01*
X187714285Y-23976190D01*
X187523809Y-23928571D01*
X187428571Y-23880952D01*
X187380952Y-23833333D01*
X187333333Y-23738095D01*
X187333333Y-23642857D01*
X187380952Y-23547619D01*
X187428571Y-23500000D01*
X187523809Y-23452380D01*
X187761904Y-23452380D01*
X187904761Y-23500000D01*
X188904761Y-24357142D02*
X188857142Y-24404761D01*
X188714285Y-24452380D01*
X188619047Y-24452380D01*
X188476190Y-24404761D01*
X188380952Y-24309523D01*
X188333333Y-24214285D01*
X188285714Y-24023809D01*
X188285714Y-23880952D01*
X188333333Y-23690476D01*
X188380952Y-23595238D01*
X188476190Y-23500000D01*
X188619047Y-23452380D01*
X188714285Y-23452380D01*
X188857142Y-23500000D01*
X188904761Y-23547619D01*
X189904761Y-24452380D02*
X189571428Y-23976190D01*
X189333333Y-24452380D02*
X189333333Y-23452380D01*
X189714285Y-23452380D01*
X189809523Y-23500000D01*
X189857142Y-23547619D01*
X189904761Y-23642857D01*
X189904761Y-23785714D01*
X189857142Y-23880952D01*
X189809523Y-23928571D01*
X189714285Y-23976190D01*
X189333333Y-23976190D01*
X190333333Y-24452380D02*
X190333333Y-23452380D01*
X190904761Y-24452380D01*
X190904761Y-23452380D01*
X191142857Y-24547619D02*
X191904761Y-24547619D01*
X192142857Y-24452380D02*
X192142857Y-23452380D01*
X192476190Y-24166666D01*
X192809523Y-23452380D01*
X192809523Y-24452380D01*
X193285714Y-24452380D02*
X193285714Y-23452380D01*
X193857142Y-24452380D01*
X193857142Y-23452380D01*
X194190476Y-23452380D02*
X194761904Y-23452380D01*
X194476190Y-24452380D02*
X194476190Y-23452380D01*
X187333333Y-139404761D02*
X187476190Y-139452380D01*
X187714285Y-139452380D01*
X187809523Y-139404761D01*
X187857142Y-139357142D01*
X187904761Y-139261904D01*
X187904761Y-139166666D01*
X187857142Y-139071428D01*
X187809523Y-139023809D01*
X187714285Y-138976190D01*
X187523809Y-138928571D01*
X187428571Y-138880952D01*
X187380952Y-138833333D01*
X187333333Y-138738095D01*
X187333333Y-138642857D01*
X187380952Y-138547619D01*
X187428571Y-138500000D01*
X187523809Y-138452380D01*
X187761904Y-138452380D01*
X187904761Y-138500000D01*
X188904761Y-139357142D02*
X188857142Y-139404761D01*
X188714285Y-139452380D01*
X188619047Y-139452380D01*
X188476190Y-139404761D01*
X188380952Y-139309523D01*
X188333333Y-139214285D01*
X188285714Y-139023809D01*
X188285714Y-138880952D01*
X188333333Y-138690476D01*
X188380952Y-138595238D01*
X188476190Y-138500000D01*
X188619047Y-138452380D01*
X188714285Y-138452380D01*
X188857142Y-138500000D01*
X188904761Y-138547619D01*
X189904761Y-139452380D02*
X189571428Y-138976190D01*
X189333333Y-139452380D02*
X189333333Y-138452380D01*
X189714285Y-138452380D01*
X189809523Y-138500000D01*
X189857142Y-138547619D01*
X189904761Y-138642857D01*
X189904761Y-138785714D01*
X189857142Y-138880952D01*
X189809523Y-138928571D01*
X189714285Y-138976190D01*
X189333333Y-138976190D01*
X190333333Y-139452380D02*
X190333333Y-138452380D01*
X190904761Y-139452380D01*
X190904761Y-138452380D01*
X191142857Y-139547619D02*
X191904761Y-139547619D01*
X192142857Y-139452380D02*
X192142857Y-138452380D01*
X192476190Y-139166666D01*
X192809523Y-138452380D01*
X192809523Y-139452380D01*
X193285714Y-139452380D02*
X193285714Y-138452380D01*
X193857142Y-139452380D01*
X193857142Y-138452380D01*
X194190476Y-138452380D02*
X194761904Y-138452380D01*
X194476190Y-139452380D02*
X194476190Y-138452380D01*
X30333333Y-139404761D02*
X30476190Y-139452380D01*
X30714285Y-139452380D01*
X30809523Y-139404761D01*
X30857142Y-139357142D01*
X30904761Y-139261904D01*
X30904761Y-139166666D01*
X30857142Y-139071428D01*
X30809523Y-139023809D01*
X30714285Y-138976190D01*
X30523809Y-138928571D01*
X30428571Y-138880952D01*
X30380952Y-138833333D01*
X30333333Y-138738095D01*
X30333333Y-138642857D01*
X30380952Y-138547619D01*
X30428571Y-138500000D01*
X30523809Y-138452380D01*
X30761904Y-138452380D01*
X30904761Y-138500000D01*
X31904761Y-139357142D02*
X31857142Y-139404761D01*
X31714285Y-139452380D01*
X31619047Y-139452380D01*
X31476190Y-139404761D01*
X31380952Y-139309523D01*
X31333333Y-139214285D01*
X31285714Y-139023809D01*
X31285714Y-138880952D01*
X31333333Y-138690476D01*
X31380952Y-138595238D01*
X31476190Y-138500000D01*
X31619047Y-138452380D01*
X31714285Y-138452380D01*
X31857142Y-138500000D01*
X31904761Y-138547619D01*
X32904761Y-139452380D02*
X32571428Y-138976190D01*
X32333333Y-139452380D02*
X32333333Y-138452380D01*
X32714285Y-138452380D01*
X32809523Y-138500000D01*
X32857142Y-138547619D01*
X32904761Y-138642857D01*
X32904761Y-138785714D01*
X32857142Y-138880952D01*
X32809523Y-138928571D01*
X32714285Y-138976190D01*
X32333333Y-138976190D01*
X33333333Y-139452380D02*
X33333333Y-138452380D01*
X33904761Y-139452380D01*
X33904761Y-138452380D01*
X34142857Y-139547619D02*
X34904761Y-139547619D01*
X35142857Y-139452380D02*
X35142857Y-138452380D01*
X35476190Y-139166666D01*
X35809523Y-138452380D01*
X35809523Y-139452380D01*
X36285714Y-139452380D02*
X36285714Y-138452380D01*
X36857142Y-139452380D01*
X36857142Y-138452380D01*
X37190476Y-138452380D02*
X37761904Y-138452380D01*
X37476190Y-139452380D02*
X37476190Y-138452380D01*
X30333333Y-24404761D02*
X30476190Y-24452380D01*
X30714285Y-24452380D01*
X30809523Y-24404761D01*
X30857142Y-24357142D01*
X30904761Y-24261904D01*
X30904761Y-24166666D01*
X30857142Y-24071428D01*
X30809523Y-24023809D01*
X30714285Y-23976190D01*
X30523809Y-23928571D01*
X30428571Y-23880952D01*
X30380952Y-23833333D01*
X30333333Y-23738095D01*
X30333333Y-23642857D01*
X30380952Y-23547619D01*
X30428571Y-23500000D01*
X30523809Y-23452380D01*
X30761904Y-23452380D01*
X30904761Y-23500000D01*
X31904761Y-24357142D02*
X31857142Y-24404761D01*
X31714285Y-24452380D01*
X31619047Y-24452380D01*
X31476190Y-24404761D01*
X31380952Y-24309523D01*
X31333333Y-24214285D01*
X31285714Y-24023809D01*
X31285714Y-23880952D01*
X31333333Y-23690476D01*
X31380952Y-23595238D01*
X31476190Y-23500000D01*
X31619047Y-23452380D01*
X31714285Y-23452380D01*
X31857142Y-23500000D01*
X31904761Y-23547619D01*
X32904761Y-24452380D02*
X32571428Y-23976190D01*
X32333333Y-24452380D02*
X32333333Y-23452380D01*
X32714285Y-23452380D01*
X32809523Y-23500000D01*
X32857142Y-23547619D01*
X32904761Y-23642857D01*
X32904761Y-23785714D01*
X32857142Y-23880952D01*
X32809523Y-23928571D01*
X32714285Y-23976190D01*
X32333333Y-23976190D01*
X33333333Y-24452380D02*
X33333333Y-23452380D01*
X33904761Y-24452380D01*
X33904761Y-23452380D01*
X34142857Y-24547619D02*
X34904761Y-24547619D01*
X35142857Y-24452380D02*
X35142857Y-23452380D01*
X35476190Y-24166666D01*
X35809523Y-23452380D01*
X35809523Y-24452380D01*
X36285714Y-24452380D02*
X36285714Y-23452380D01*
X36857142Y-24452380D01*
X36857142Y-23452380D01*
X37190476Y-23452380D02*
X37761904Y-23452380D01*
X37476190Y-24452380D02*
X37476190Y-23452380D01*
%TO.C,SW20*%
X10190476Y-39530761D02*
X10333333Y-39578380D01*
X10571428Y-39578380D01*
X10666666Y-39530761D01*
X10714285Y-39483142D01*
X10761904Y-39387904D01*
X10761904Y-39292666D01*
X10714285Y-39197428D01*
X10666666Y-39149809D01*
X10571428Y-39102190D01*
X10380952Y-39054571D01*
X10285714Y-39006952D01*
X10238095Y-38959333D01*
X10190476Y-38864095D01*
X10190476Y-38768857D01*
X10238095Y-38673619D01*
X10285714Y-38626000D01*
X10380952Y-38578380D01*
X10619047Y-38578380D01*
X10761904Y-38626000D01*
X11095238Y-38578380D02*
X11333333Y-39578380D01*
X11523809Y-38864095D01*
X11714285Y-39578380D01*
X11952380Y-38578380D01*
X12285714Y-38673619D02*
X12333333Y-38626000D01*
X12428571Y-38578380D01*
X12666666Y-38578380D01*
X12761904Y-38626000D01*
X12809523Y-38673619D01*
X12857142Y-38768857D01*
X12857142Y-38864095D01*
X12809523Y-39006952D01*
X12238095Y-39578380D01*
X12857142Y-39578380D01*
X13476190Y-38578380D02*
X13571428Y-38578380D01*
X13666666Y-38626000D01*
X13714285Y-38673619D01*
X13761904Y-38768857D01*
X13809523Y-38959333D01*
X13809523Y-39197428D01*
X13761904Y-39387904D01*
X13714285Y-39483142D01*
X13666666Y-39530761D01*
X13571428Y-39578380D01*
X13476190Y-39578380D01*
X13380952Y-39530761D01*
X13333333Y-39483142D01*
X13285714Y-39387904D01*
X13238095Y-39197428D01*
X13238095Y-38959333D01*
X13285714Y-38768857D01*
X13333333Y-38673619D01*
X13380952Y-38626000D01*
X13476190Y-38578380D01*
%TO.C,SW19*%
X10190476Y-59530761D02*
X10333333Y-59578380D01*
X10571428Y-59578380D01*
X10666666Y-59530761D01*
X10714285Y-59483142D01*
X10761904Y-59387904D01*
X10761904Y-59292666D01*
X10714285Y-59197428D01*
X10666666Y-59149809D01*
X10571428Y-59102190D01*
X10380952Y-59054571D01*
X10285714Y-59006952D01*
X10238095Y-58959333D01*
X10190476Y-58864095D01*
X10190476Y-58768857D01*
X10238095Y-58673619D01*
X10285714Y-58626000D01*
X10380952Y-58578380D01*
X10619047Y-58578380D01*
X10761904Y-58626000D01*
X11095238Y-58578380D02*
X11333333Y-59578380D01*
X11523809Y-58864095D01*
X11714285Y-59578380D01*
X11952380Y-58578380D01*
X12857142Y-59578380D02*
X12285714Y-59578380D01*
X12571428Y-59578380D02*
X12571428Y-58578380D01*
X12476190Y-58721238D01*
X12380952Y-58816476D01*
X12285714Y-58864095D01*
X13333333Y-59578380D02*
X13523809Y-59578380D01*
X13619047Y-59530761D01*
X13666666Y-59483142D01*
X13761904Y-59340285D01*
X13809523Y-59149809D01*
X13809523Y-58768857D01*
X13761904Y-58673619D01*
X13714285Y-58626000D01*
X13619047Y-58578380D01*
X13428571Y-58578380D01*
X13333333Y-58626000D01*
X13285714Y-58673619D01*
X13238095Y-58768857D01*
X13238095Y-59006952D01*
X13285714Y-59102190D01*
X13333333Y-59149809D01*
X13428571Y-59197428D01*
X13619047Y-59197428D01*
X13714285Y-59149809D01*
X13761904Y-59102190D01*
X13809523Y-59006952D01*
%TO.C,SW18*%
X10190476Y-79530761D02*
X10333333Y-79578380D01*
X10571428Y-79578380D01*
X10666666Y-79530761D01*
X10714285Y-79483142D01*
X10761904Y-79387904D01*
X10761904Y-79292666D01*
X10714285Y-79197428D01*
X10666666Y-79149809D01*
X10571428Y-79102190D01*
X10380952Y-79054571D01*
X10285714Y-79006952D01*
X10238095Y-78959333D01*
X10190476Y-78864095D01*
X10190476Y-78768857D01*
X10238095Y-78673619D01*
X10285714Y-78626000D01*
X10380952Y-78578380D01*
X10619047Y-78578380D01*
X10761904Y-78626000D01*
X11095238Y-78578380D02*
X11333333Y-79578380D01*
X11523809Y-78864095D01*
X11714285Y-79578380D01*
X11952380Y-78578380D01*
X12857142Y-79578380D02*
X12285714Y-79578380D01*
X12571428Y-79578380D02*
X12571428Y-78578380D01*
X12476190Y-78721238D01*
X12380952Y-78816476D01*
X12285714Y-78864095D01*
X13428571Y-79006952D02*
X13333333Y-78959333D01*
X13285714Y-78911714D01*
X13238095Y-78816476D01*
X13238095Y-78768857D01*
X13285714Y-78673619D01*
X13333333Y-78626000D01*
X13428571Y-78578380D01*
X13619047Y-78578380D01*
X13714285Y-78626000D01*
X13761904Y-78673619D01*
X13809523Y-78768857D01*
X13809523Y-78816476D01*
X13761904Y-78911714D01*
X13714285Y-78959333D01*
X13619047Y-79006952D01*
X13428571Y-79006952D01*
X13333333Y-79054571D01*
X13285714Y-79102190D01*
X13238095Y-79197428D01*
X13238095Y-79387904D01*
X13285714Y-79483142D01*
X13333333Y-79530761D01*
X13428571Y-79578380D01*
X13619047Y-79578380D01*
X13714285Y-79530761D01*
X13761904Y-79483142D01*
X13809523Y-79387904D01*
X13809523Y-79197428D01*
X13761904Y-79102190D01*
X13714285Y-79054571D01*
X13619047Y-79006952D01*
%TO.C,SW17*%
X10190476Y-99530761D02*
X10333333Y-99578380D01*
X10571428Y-99578380D01*
X10666666Y-99530761D01*
X10714285Y-99483142D01*
X10761904Y-99387904D01*
X10761904Y-99292666D01*
X10714285Y-99197428D01*
X10666666Y-99149809D01*
X10571428Y-99102190D01*
X10380952Y-99054571D01*
X10285714Y-99006952D01*
X10238095Y-98959333D01*
X10190476Y-98864095D01*
X10190476Y-98768857D01*
X10238095Y-98673619D01*
X10285714Y-98626000D01*
X10380952Y-98578380D01*
X10619047Y-98578380D01*
X10761904Y-98626000D01*
X11095238Y-98578380D02*
X11333333Y-99578380D01*
X11523809Y-98864095D01*
X11714285Y-99578380D01*
X11952380Y-98578380D01*
X12857142Y-99578380D02*
X12285714Y-99578380D01*
X12571428Y-99578380D02*
X12571428Y-98578380D01*
X12476190Y-98721238D01*
X12380952Y-98816476D01*
X12285714Y-98864095D01*
X13190476Y-98578380D02*
X13857142Y-98578380D01*
X13428571Y-99578380D01*
%TO.C,SW16*%
X10190476Y-119530761D02*
X10333333Y-119578380D01*
X10571428Y-119578380D01*
X10666666Y-119530761D01*
X10714285Y-119483142D01*
X10761904Y-119387904D01*
X10761904Y-119292666D01*
X10714285Y-119197428D01*
X10666666Y-119149809D01*
X10571428Y-119102190D01*
X10380952Y-119054571D01*
X10285714Y-119006952D01*
X10238095Y-118959333D01*
X10190476Y-118864095D01*
X10190476Y-118768857D01*
X10238095Y-118673619D01*
X10285714Y-118626000D01*
X10380952Y-118578380D01*
X10619047Y-118578380D01*
X10761904Y-118626000D01*
X11095238Y-118578380D02*
X11333333Y-119578380D01*
X11523809Y-118864095D01*
X11714285Y-119578380D01*
X11952380Y-118578380D01*
X12857142Y-119578380D02*
X12285714Y-119578380D01*
X12571428Y-119578380D02*
X12571428Y-118578380D01*
X12476190Y-118721238D01*
X12380952Y-118816476D01*
X12285714Y-118864095D01*
X13714285Y-118578380D02*
X13523809Y-118578380D01*
X13428571Y-118626000D01*
X13380952Y-118673619D01*
X13285714Y-118816476D01*
X13238095Y-119006952D01*
X13238095Y-119387904D01*
X13285714Y-119483142D01*
X13333333Y-119530761D01*
X13428571Y-119578380D01*
X13619047Y-119578380D01*
X13714285Y-119530761D01*
X13761904Y-119483142D01*
X13809523Y-119387904D01*
X13809523Y-119149809D01*
X13761904Y-119054571D01*
X13714285Y-119006952D01*
X13619047Y-118959333D01*
X13428571Y-118959333D01*
X13333333Y-119006952D01*
X13285714Y-119054571D01*
X13238095Y-119149809D01*
%TO.C,SW15*%
X53190476Y-151530761D02*
X53333333Y-151578380D01*
X53571428Y-151578380D01*
X53666666Y-151530761D01*
X53714285Y-151483142D01*
X53761904Y-151387904D01*
X53761904Y-151292666D01*
X53714285Y-151197428D01*
X53666666Y-151149809D01*
X53571428Y-151102190D01*
X53380952Y-151054571D01*
X53285714Y-151006952D01*
X53238095Y-150959333D01*
X53190476Y-150864095D01*
X53190476Y-150768857D01*
X53238095Y-150673619D01*
X53285714Y-150626000D01*
X53380952Y-150578380D01*
X53619047Y-150578380D01*
X53761904Y-150626000D01*
X54095238Y-150578380D02*
X54333333Y-151578380D01*
X54523809Y-150864095D01*
X54714285Y-151578380D01*
X54952380Y-150578380D01*
X55857142Y-151578380D02*
X55285714Y-151578380D01*
X55571428Y-151578380D02*
X55571428Y-150578380D01*
X55476190Y-150721238D01*
X55380952Y-150816476D01*
X55285714Y-150864095D01*
X56761904Y-150578380D02*
X56285714Y-150578380D01*
X56238095Y-151054571D01*
X56285714Y-151006952D01*
X56380952Y-150959333D01*
X56619047Y-150959333D01*
X56714285Y-151006952D01*
X56761904Y-151054571D01*
X56809523Y-151149809D01*
X56809523Y-151387904D01*
X56761904Y-151483142D01*
X56714285Y-151530761D01*
X56619047Y-151578380D01*
X56380952Y-151578380D01*
X56285714Y-151530761D01*
X56238095Y-151483142D01*
%TO.C,SW14*%
X81690476Y-151530761D02*
X81833333Y-151578380D01*
X82071428Y-151578380D01*
X82166666Y-151530761D01*
X82214285Y-151483142D01*
X82261904Y-151387904D01*
X82261904Y-151292666D01*
X82214285Y-151197428D01*
X82166666Y-151149809D01*
X82071428Y-151102190D01*
X81880952Y-151054571D01*
X81785714Y-151006952D01*
X81738095Y-150959333D01*
X81690476Y-150864095D01*
X81690476Y-150768857D01*
X81738095Y-150673619D01*
X81785714Y-150626000D01*
X81880952Y-150578380D01*
X82119047Y-150578380D01*
X82261904Y-150626000D01*
X82595238Y-150578380D02*
X82833333Y-151578380D01*
X83023809Y-150864095D01*
X83214285Y-151578380D01*
X83452380Y-150578380D01*
X84357142Y-151578380D02*
X83785714Y-151578380D01*
X84071428Y-151578380D02*
X84071428Y-150578380D01*
X83976190Y-150721238D01*
X83880952Y-150816476D01*
X83785714Y-150864095D01*
X85214285Y-150911714D02*
X85214285Y-151578380D01*
X84976190Y-150530761D02*
X84738095Y-151245047D01*
X85357142Y-151245047D01*
%TO.C,SW13*%
X110190476Y-151530761D02*
X110333333Y-151578380D01*
X110571428Y-151578380D01*
X110666666Y-151530761D01*
X110714285Y-151483142D01*
X110761904Y-151387904D01*
X110761904Y-151292666D01*
X110714285Y-151197428D01*
X110666666Y-151149809D01*
X110571428Y-151102190D01*
X110380952Y-151054571D01*
X110285714Y-151006952D01*
X110238095Y-150959333D01*
X110190476Y-150864095D01*
X110190476Y-150768857D01*
X110238095Y-150673619D01*
X110285714Y-150626000D01*
X110380952Y-150578380D01*
X110619047Y-150578380D01*
X110761904Y-150626000D01*
X111095238Y-150578380D02*
X111333333Y-151578380D01*
X111523809Y-150864095D01*
X111714285Y-151578380D01*
X111952380Y-150578380D01*
X112857142Y-151578380D02*
X112285714Y-151578380D01*
X112571428Y-151578380D02*
X112571428Y-150578380D01*
X112476190Y-150721238D01*
X112380952Y-150816476D01*
X112285714Y-150864095D01*
X113190476Y-150578380D02*
X113809523Y-150578380D01*
X113476190Y-150959333D01*
X113619047Y-150959333D01*
X113714285Y-151006952D01*
X113761904Y-151054571D01*
X113809523Y-151149809D01*
X113809523Y-151387904D01*
X113761904Y-151483142D01*
X113714285Y-151530761D01*
X113619047Y-151578380D01*
X113333333Y-151578380D01*
X113238095Y-151530761D01*
X113190476Y-151483142D01*
%TO.C,SW12*%
X138690476Y-151530761D02*
X138833333Y-151578380D01*
X139071428Y-151578380D01*
X139166666Y-151530761D01*
X139214285Y-151483142D01*
X139261904Y-151387904D01*
X139261904Y-151292666D01*
X139214285Y-151197428D01*
X139166666Y-151149809D01*
X139071428Y-151102190D01*
X138880952Y-151054571D01*
X138785714Y-151006952D01*
X138738095Y-150959333D01*
X138690476Y-150864095D01*
X138690476Y-150768857D01*
X138738095Y-150673619D01*
X138785714Y-150626000D01*
X138880952Y-150578380D01*
X139119047Y-150578380D01*
X139261904Y-150626000D01*
X139595238Y-150578380D02*
X139833333Y-151578380D01*
X140023809Y-150864095D01*
X140214285Y-151578380D01*
X140452380Y-150578380D01*
X141357142Y-151578380D02*
X140785714Y-151578380D01*
X141071428Y-151578380D02*
X141071428Y-150578380D01*
X140976190Y-150721238D01*
X140880952Y-150816476D01*
X140785714Y-150864095D01*
X141738095Y-150673619D02*
X141785714Y-150626000D01*
X141880952Y-150578380D01*
X142119047Y-150578380D01*
X142214285Y-150626000D01*
X142261904Y-150673619D01*
X142309523Y-150768857D01*
X142309523Y-150864095D01*
X142261904Y-151006952D01*
X141690476Y-151578380D01*
X142309523Y-151578380D01*
%TO.C,SW11*%
X167190476Y-151530761D02*
X167333333Y-151578380D01*
X167571428Y-151578380D01*
X167666666Y-151530761D01*
X167714285Y-151483142D01*
X167761904Y-151387904D01*
X167761904Y-151292666D01*
X167714285Y-151197428D01*
X167666666Y-151149809D01*
X167571428Y-151102190D01*
X167380952Y-151054571D01*
X167285714Y-151006952D01*
X167238095Y-150959333D01*
X167190476Y-150864095D01*
X167190476Y-150768857D01*
X167238095Y-150673619D01*
X167285714Y-150626000D01*
X167380952Y-150578380D01*
X167619047Y-150578380D01*
X167761904Y-150626000D01*
X168095238Y-150578380D02*
X168333333Y-151578380D01*
X168523809Y-150864095D01*
X168714285Y-151578380D01*
X168952380Y-150578380D01*
X169857142Y-151578380D02*
X169285714Y-151578380D01*
X169571428Y-151578380D02*
X169571428Y-150578380D01*
X169476190Y-150721238D01*
X169380952Y-150816476D01*
X169285714Y-150864095D01*
X170809523Y-151578380D02*
X170238095Y-151578380D01*
X170523809Y-151578380D02*
X170523809Y-150578380D01*
X170428571Y-150721238D01*
X170333333Y-150816476D01*
X170238095Y-150864095D01*
%TO.C,SW10*%
X211190476Y-119530761D02*
X211333333Y-119578380D01*
X211571428Y-119578380D01*
X211666666Y-119530761D01*
X211714285Y-119483142D01*
X211761904Y-119387904D01*
X211761904Y-119292666D01*
X211714285Y-119197428D01*
X211666666Y-119149809D01*
X211571428Y-119102190D01*
X211380952Y-119054571D01*
X211285714Y-119006952D01*
X211238095Y-118959333D01*
X211190476Y-118864095D01*
X211190476Y-118768857D01*
X211238095Y-118673619D01*
X211285714Y-118626000D01*
X211380952Y-118578380D01*
X211619047Y-118578380D01*
X211761904Y-118626000D01*
X212095238Y-118578380D02*
X212333333Y-119578380D01*
X212523809Y-118864095D01*
X212714285Y-119578380D01*
X212952380Y-118578380D01*
X213857142Y-119578380D02*
X213285714Y-119578380D01*
X213571428Y-119578380D02*
X213571428Y-118578380D01*
X213476190Y-118721238D01*
X213380952Y-118816476D01*
X213285714Y-118864095D01*
X214476190Y-118578380D02*
X214571428Y-118578380D01*
X214666666Y-118626000D01*
X214714285Y-118673619D01*
X214761904Y-118768857D01*
X214809523Y-118959333D01*
X214809523Y-119197428D01*
X214761904Y-119387904D01*
X214714285Y-119483142D01*
X214666666Y-119530761D01*
X214571428Y-119578380D01*
X214476190Y-119578380D01*
X214380952Y-119530761D01*
X214333333Y-119483142D01*
X214285714Y-119387904D01*
X214238095Y-119197428D01*
X214238095Y-118959333D01*
X214285714Y-118768857D01*
X214333333Y-118673619D01*
X214380952Y-118626000D01*
X214476190Y-118578380D01*
%TO.C,SW9*%
X211666666Y-99530761D02*
X211809523Y-99578380D01*
X212047619Y-99578380D01*
X212142857Y-99530761D01*
X212190476Y-99483142D01*
X212238095Y-99387904D01*
X212238095Y-99292666D01*
X212190476Y-99197428D01*
X212142857Y-99149809D01*
X212047619Y-99102190D01*
X211857142Y-99054571D01*
X211761904Y-99006952D01*
X211714285Y-98959333D01*
X211666666Y-98864095D01*
X211666666Y-98768857D01*
X211714285Y-98673619D01*
X211761904Y-98626000D01*
X211857142Y-98578380D01*
X212095238Y-98578380D01*
X212238095Y-98626000D01*
X212571428Y-98578380D02*
X212809523Y-99578380D01*
X213000000Y-98864095D01*
X213190476Y-99578380D01*
X213428571Y-98578380D01*
X213857142Y-99578380D02*
X214047619Y-99578380D01*
X214142857Y-99530761D01*
X214190476Y-99483142D01*
X214285714Y-99340285D01*
X214333333Y-99149809D01*
X214333333Y-98768857D01*
X214285714Y-98673619D01*
X214238095Y-98626000D01*
X214142857Y-98578380D01*
X213952380Y-98578380D01*
X213857142Y-98626000D01*
X213809523Y-98673619D01*
X213761904Y-98768857D01*
X213761904Y-99006952D01*
X213809523Y-99102190D01*
X213857142Y-99149809D01*
X213952380Y-99197428D01*
X214142857Y-99197428D01*
X214238095Y-99149809D01*
X214285714Y-99102190D01*
X214333333Y-99006952D01*
%TO.C,SW8*%
X211666666Y-79530761D02*
X211809523Y-79578380D01*
X212047619Y-79578380D01*
X212142857Y-79530761D01*
X212190476Y-79483142D01*
X212238095Y-79387904D01*
X212238095Y-79292666D01*
X212190476Y-79197428D01*
X212142857Y-79149809D01*
X212047619Y-79102190D01*
X211857142Y-79054571D01*
X211761904Y-79006952D01*
X211714285Y-78959333D01*
X211666666Y-78864095D01*
X211666666Y-78768857D01*
X211714285Y-78673619D01*
X211761904Y-78626000D01*
X211857142Y-78578380D01*
X212095238Y-78578380D01*
X212238095Y-78626000D01*
X212571428Y-78578380D02*
X212809523Y-79578380D01*
X213000000Y-78864095D01*
X213190476Y-79578380D01*
X213428571Y-78578380D01*
X213952380Y-79006952D02*
X213857142Y-78959333D01*
X213809523Y-78911714D01*
X213761904Y-78816476D01*
X213761904Y-78768857D01*
X213809523Y-78673619D01*
X213857142Y-78626000D01*
X213952380Y-78578380D01*
X214142857Y-78578380D01*
X214238095Y-78626000D01*
X214285714Y-78673619D01*
X214333333Y-78768857D01*
X214333333Y-78816476D01*
X214285714Y-78911714D01*
X214238095Y-78959333D01*
X214142857Y-79006952D01*
X213952380Y-79006952D01*
X213857142Y-79054571D01*
X213809523Y-79102190D01*
X213761904Y-79197428D01*
X213761904Y-79387904D01*
X213809523Y-79483142D01*
X213857142Y-79530761D01*
X213952380Y-79578380D01*
X214142857Y-79578380D01*
X214238095Y-79530761D01*
X214285714Y-79483142D01*
X214333333Y-79387904D01*
X214333333Y-79197428D01*
X214285714Y-79102190D01*
X214238095Y-79054571D01*
X214142857Y-79006952D01*
%TO.C,SW7*%
X211666666Y-59530761D02*
X211809523Y-59578380D01*
X212047619Y-59578380D01*
X212142857Y-59530761D01*
X212190476Y-59483142D01*
X212238095Y-59387904D01*
X212238095Y-59292666D01*
X212190476Y-59197428D01*
X212142857Y-59149809D01*
X212047619Y-59102190D01*
X211857142Y-59054571D01*
X211761904Y-59006952D01*
X211714285Y-58959333D01*
X211666666Y-58864095D01*
X211666666Y-58768857D01*
X211714285Y-58673619D01*
X211761904Y-58626000D01*
X211857142Y-58578380D01*
X212095238Y-58578380D01*
X212238095Y-58626000D01*
X212571428Y-58578380D02*
X212809523Y-59578380D01*
X213000000Y-58864095D01*
X213190476Y-59578380D01*
X213428571Y-58578380D01*
X213714285Y-58578380D02*
X214380952Y-58578380D01*
X213952380Y-59578380D01*
%TO.C,SW6*%
X211666666Y-39530761D02*
X211809523Y-39578380D01*
X212047619Y-39578380D01*
X212142857Y-39530761D01*
X212190476Y-39483142D01*
X212238095Y-39387904D01*
X212238095Y-39292666D01*
X212190476Y-39197428D01*
X212142857Y-39149809D01*
X212047619Y-39102190D01*
X211857142Y-39054571D01*
X211761904Y-39006952D01*
X211714285Y-38959333D01*
X211666666Y-38864095D01*
X211666666Y-38768857D01*
X211714285Y-38673619D01*
X211761904Y-38626000D01*
X211857142Y-38578380D01*
X212095238Y-38578380D01*
X212238095Y-38626000D01*
X212571428Y-38578380D02*
X212809523Y-39578380D01*
X213000000Y-38864095D01*
X213190476Y-39578380D01*
X213428571Y-38578380D01*
X214238095Y-38578380D02*
X214047619Y-38578380D01*
X213952380Y-38626000D01*
X213904761Y-38673619D01*
X213809523Y-38816476D01*
X213761904Y-39006952D01*
X213761904Y-39387904D01*
X213809523Y-39483142D01*
X213857142Y-39530761D01*
X213952380Y-39578380D01*
X214142857Y-39578380D01*
X214238095Y-39530761D01*
X214285714Y-39483142D01*
X214333333Y-39387904D01*
X214333333Y-39149809D01*
X214285714Y-39054571D01*
X214238095Y-39006952D01*
X214142857Y-38959333D01*
X213952380Y-38959333D01*
X213857142Y-39006952D01*
X213809523Y-39054571D01*
X213761904Y-39149809D01*
%TO.C,SW5*%
X168666666Y-4530761D02*
X168809523Y-4578380D01*
X169047619Y-4578380D01*
X169142857Y-4530761D01*
X169190476Y-4483142D01*
X169238095Y-4387904D01*
X169238095Y-4292666D01*
X169190476Y-4197428D01*
X169142857Y-4149809D01*
X169047619Y-4102190D01*
X168857142Y-4054571D01*
X168761904Y-4006952D01*
X168714285Y-3959333D01*
X168666666Y-3864095D01*
X168666666Y-3768857D01*
X168714285Y-3673619D01*
X168761904Y-3626000D01*
X168857142Y-3578380D01*
X169095238Y-3578380D01*
X169238095Y-3626000D01*
X169571428Y-3578380D02*
X169809523Y-4578380D01*
X170000000Y-3864095D01*
X170190476Y-4578380D01*
X170428571Y-3578380D01*
X171285714Y-3578380D02*
X170809523Y-3578380D01*
X170761904Y-4054571D01*
X170809523Y-4006952D01*
X170904761Y-3959333D01*
X171142857Y-3959333D01*
X171238095Y-4006952D01*
X171285714Y-4054571D01*
X171333333Y-4149809D01*
X171333333Y-4387904D01*
X171285714Y-4483142D01*
X171238095Y-4530761D01*
X171142857Y-4578380D01*
X170904761Y-4578380D01*
X170809523Y-4530761D01*
X170761904Y-4483142D01*
%TO.C,SW4*%
X140166666Y-4530761D02*
X140309523Y-4578380D01*
X140547619Y-4578380D01*
X140642857Y-4530761D01*
X140690476Y-4483142D01*
X140738095Y-4387904D01*
X140738095Y-4292666D01*
X140690476Y-4197428D01*
X140642857Y-4149809D01*
X140547619Y-4102190D01*
X140357142Y-4054571D01*
X140261904Y-4006952D01*
X140214285Y-3959333D01*
X140166666Y-3864095D01*
X140166666Y-3768857D01*
X140214285Y-3673619D01*
X140261904Y-3626000D01*
X140357142Y-3578380D01*
X140595238Y-3578380D01*
X140738095Y-3626000D01*
X141071428Y-3578380D02*
X141309523Y-4578380D01*
X141500000Y-3864095D01*
X141690476Y-4578380D01*
X141928571Y-3578380D01*
X142738095Y-3911714D02*
X142738095Y-4578380D01*
X142500000Y-3530761D02*
X142261904Y-4245047D01*
X142880952Y-4245047D01*
%TO.C,SW3*%
X111166666Y-4530761D02*
X111309523Y-4578380D01*
X111547619Y-4578380D01*
X111642857Y-4530761D01*
X111690476Y-4483142D01*
X111738095Y-4387904D01*
X111738095Y-4292666D01*
X111690476Y-4197428D01*
X111642857Y-4149809D01*
X111547619Y-4102190D01*
X111357142Y-4054571D01*
X111261904Y-4006952D01*
X111214285Y-3959333D01*
X111166666Y-3864095D01*
X111166666Y-3768857D01*
X111214285Y-3673619D01*
X111261904Y-3626000D01*
X111357142Y-3578380D01*
X111595238Y-3578380D01*
X111738095Y-3626000D01*
X112071428Y-3578380D02*
X112309523Y-4578380D01*
X112500000Y-3864095D01*
X112690476Y-4578380D01*
X112928571Y-3578380D01*
X113214285Y-3578380D02*
X113833333Y-3578380D01*
X113500000Y-3959333D01*
X113642857Y-3959333D01*
X113738095Y-4006952D01*
X113785714Y-4054571D01*
X113833333Y-4149809D01*
X113833333Y-4387904D01*
X113785714Y-4483142D01*
X113738095Y-4530761D01*
X113642857Y-4578380D01*
X113357142Y-4578380D01*
X113261904Y-4530761D01*
X113214285Y-4483142D01*
%TO.C,SW2*%
X82666666Y-4530761D02*
X82809523Y-4578380D01*
X83047619Y-4578380D01*
X83142857Y-4530761D01*
X83190476Y-4483142D01*
X83238095Y-4387904D01*
X83238095Y-4292666D01*
X83190476Y-4197428D01*
X83142857Y-4149809D01*
X83047619Y-4102190D01*
X82857142Y-4054571D01*
X82761904Y-4006952D01*
X82714285Y-3959333D01*
X82666666Y-3864095D01*
X82666666Y-3768857D01*
X82714285Y-3673619D01*
X82761904Y-3626000D01*
X82857142Y-3578380D01*
X83095238Y-3578380D01*
X83238095Y-3626000D01*
X83571428Y-3578380D02*
X83809523Y-4578380D01*
X84000000Y-3864095D01*
X84190476Y-4578380D01*
X84428571Y-3578380D01*
X84761904Y-3673619D02*
X84809523Y-3626000D01*
X84904761Y-3578380D01*
X85142857Y-3578380D01*
X85238095Y-3626000D01*
X85285714Y-3673619D01*
X85333333Y-3768857D01*
X85333333Y-3864095D01*
X85285714Y-4006952D01*
X84714285Y-4578380D01*
X85333333Y-4578380D01*
%TO.C,SW1*%
X54166666Y-4530761D02*
X54309523Y-4578380D01*
X54547619Y-4578380D01*
X54642857Y-4530761D01*
X54690476Y-4483142D01*
X54738095Y-4387904D01*
X54738095Y-4292666D01*
X54690476Y-4197428D01*
X54642857Y-4149809D01*
X54547619Y-4102190D01*
X54357142Y-4054571D01*
X54261904Y-4006952D01*
X54214285Y-3959333D01*
X54166666Y-3864095D01*
X54166666Y-3768857D01*
X54214285Y-3673619D01*
X54261904Y-3626000D01*
X54357142Y-3578380D01*
X54595238Y-3578380D01*
X54738095Y-3626000D01*
X55071428Y-3578380D02*
X55309523Y-4578380D01*
X55500000Y-3864095D01*
X55690476Y-4578380D01*
X55928571Y-3578380D01*
X56833333Y-4578380D02*
X56261904Y-4578380D01*
X56547619Y-4578380D02*
X56547619Y-3578380D01*
X56452380Y-3721238D01*
X56357142Y-3816476D01*
X56261904Y-3864095D01*
%TO.C,J1*%
X99051666Y-105182380D02*
X99051666Y-105896666D01*
X99004047Y-106039523D01*
X98908809Y-106134761D01*
X98765952Y-106182380D01*
X98670714Y-106182380D01*
X100051666Y-106182380D02*
X99480238Y-106182380D01*
X99765952Y-106182380D02*
X99765952Y-105182380D01*
X99670714Y-105325238D01*
X99575476Y-105420476D01*
X99480238Y-105468095D01*
%TD*%
M02*
