M48
INCH,TZ
T1C0.0394
T2C0.0433
T3C0.0591
T4C0.1181
T5C0.0669
T6C0.1575
%
G90
G05
T1
X37402Y-42520
X37402Y-43520
X37402Y-44520
T2
X32791Y-30661
X32791Y-36661
X33791Y-30661
X33791Y-35661
X33791Y-36661
X34791Y-30661
X34791Y-36661
X35291Y-31843
X35791Y-30661
X35791Y-35661
X35791Y-36661
X36291Y-31843
X36791Y-30661
X36791Y-35661
X36791Y-36661
X37291Y-31843
X37791Y-30661
X37791Y-35661
X37791Y-36661
X38291Y-31843
X38791Y-30661
X38791Y-36661
X39291Y-31843
X39791Y-30661
X39791Y-36661
X40791Y-30661
X40791Y-36661
X41791Y-30661
X41791Y-36661
X42791Y-30661
X42791Y-36661
X43791Y-30661
X43791Y-36661
X44791Y-30661
X44791Y-36661
X45791Y-30661
X45791Y-36661
X46791Y-30661
X46791Y-36661
X47791Y-30661
X47791Y-36661
X48791Y-30661
X48791Y-36661
X49791Y-30661
X49791Y-36661
X50791Y-30661
X50791Y-31661
X50791Y-32661
X50791Y-33661
X50791Y-34661
X50791Y-35661
X50791Y-36661
X51791Y-30661
X51791Y-36661
X52791Y-30661
X52791Y-36661
X53791Y-30661
X53791Y-36661
X54791Y-30661
X54791Y-36661
X55791Y-30661
X55791Y-36661
T3
X3224Y-17504
X3224Y-25378
X3224Y-33252
X3224Y-41126
X3224Y-49000
X5724Y-16504
X5724Y-24378
X5724Y-32252
X5724Y-40126
X5724Y-48000
X20154Y-61598
X20350Y-3724
X22654Y-60598
X22850Y-2724
X31374Y-61598
X31571Y-3724
X33874Y-60598
X34071Y-2724
X42594Y-61598
X42791Y-3724
X45094Y-60598
X45291Y-2724
X53815Y-61598
X54209Y-3724
X56315Y-60598
X56709Y-2724
X65035Y-61598
X65429Y-3724
X67535Y-60598
X67929Y-2724
X82358Y-17504
X82358Y-25378
X82358Y-33252
X82358Y-41126
X82358Y-49000
X84858Y-16504
X84858Y-24378
X84858Y-32252
X84858Y-40126
X84858Y-48000
T4
X3937Y-3937
X3937Y-63386
X13386Y-11024
X13386Y-56299
X75197Y-11024
X75197Y-56299
X84646Y-3937
X84646Y-63386
T5
X2724Y-18504
X2724Y-26378
X2724Y-34252
X2724Y-42126
X2724Y-50000
X6724Y-18504
X6724Y-26378
X6724Y-34252
X6724Y-42126
X6724Y-50000
X19654Y-62598
X19850Y-4724
X23654Y-62598
X23850Y-4724
X30874Y-62598
X31071Y-4724
X34874Y-62598
X35071Y-4724
X42094Y-62598
X42291Y-4724
X46094Y-62598
X46291Y-4724
X53315Y-62598
X53709Y-4724
X57315Y-62598
X57709Y-4724
X64535Y-62598
X64929Y-4724
X68535Y-62598
X68929Y-4724
X81858Y-18504
X81858Y-26378
X81858Y-34252
X81858Y-42126
X81858Y-50000
X85858Y-18504
X85858Y-26378
X85858Y-34252
X85858Y-42126
X85858Y-50000
T6
X4724Y-18504
X4724Y-26378
X4724Y-34252
X4724Y-42126
X4724Y-50000
X21654Y-62598
X21850Y-4724
X32874Y-62598
X33071Y-4724
X44094Y-62598
X44291Y-4724
X55315Y-62598
X55709Y-4724
X66535Y-62598
X66929Y-4724
X83858Y-18504
X83858Y-26378
X83858Y-34252
X83858Y-42126
X83858Y-50000
T0
M30
