%TF.GenerationSoftware,KiCad,Pcbnew,5.1.5+dfsg1-2build2*%
%TF.CreationDate,2021-04-29T06:58:31-04:00*%
%TF.ProjectId,wildcatmfd_kicad,77696c64-6361-4746-9d66-645f6b696361,rev?*%
%TF.SameCoordinates,Original*%
%TF.FileFunction,Copper,L1,Top*%
%TF.FilePolarity,Positive*%
%FSLAX46Y46*%
G04 Gerber Fmt 4.6, Leading zero omitted, Abs format (unit mm)*
G04 Created by KiCad (PCBNEW 5.1.5+dfsg1-2build2) date 2021-04-29 06:58:31*
%MOMM*%
%LPD*%
G04 APERTURE LIST*
%TA.AperFunction,ComponentPad*%
%ADD10C,6.000000*%
%TD*%
%TA.AperFunction,ComponentPad*%
%ADD11C,1.600000*%
%TD*%
%TA.AperFunction,ComponentPad*%
%ADD12R,1.600000X1.600000*%
%TD*%
%TA.AperFunction,ComponentPad*%
%ADD13C,2.200000*%
%TD*%
%TA.AperFunction,ComponentPad*%
%ADD14O,1.700000X1.700000*%
%TD*%
%TA.AperFunction,ComponentPad*%
%ADD15R,1.700000X1.700000*%
%TD*%
%TA.AperFunction,Conductor*%
%ADD16C,0.250000*%
%TD*%
G04 APERTURE END LIST*
D10*
%TO.P,,1*%
%TO.N,N/C*%
X10000000Y-161000000D03*
%TD*%
%TO.P,,1*%
%TO.N,N/C*%
X215000000Y-161000000D03*
%TD*%
%TO.P,,1*%
%TO.N,N/C*%
X215000000Y-10000000D03*
%TD*%
%TO.P,,1*%
%TO.N,N/C*%
X10000000Y-10000000D03*
%TD*%
%TO.P,SCRN_MNT,1*%
%TO.N,N/C*%
X191000000Y-28000000D03*
%TD*%
%TO.P,SCRN_MNT,1*%
%TO.N,N/C*%
X191000000Y-143000000D03*
%TD*%
%TO.P,SCRN_MNT,1*%
%TO.N,N/C*%
X34000000Y-143000000D03*
%TD*%
%TO.P,SCRN_MNT,1*%
%TO.N,N/C*%
X34000000Y-28000000D03*
%TD*%
D11*
%TO.P,U1,62*%
%TO.N,GND*%
X99800000Y-80880000D03*
%TO.P,U1,61*%
X97260000Y-80880000D03*
%TO.P,U1,60*%
%TO.N,Net-(U1-Pad60)*%
X94720000Y-80880000D03*
%TO.P,U1,59*%
%TO.N,Net-(U1-Pad59)*%
X92180000Y-80880000D03*
%TO.P,U1,58*%
%TO.N,Net-(U1-Pad58)*%
X89640000Y-80880000D03*
%TO.P,U1,57*%
%TO.N,Net-(U1-Pad57)*%
X95990000Y-90580000D03*
%TO.P,U1,56*%
%TO.N,Net-(U1-Pad56)*%
X93450000Y-90580000D03*
%TO.P,U1,55*%
%TO.N,Net-(U1-Pad55)*%
X90910000Y-90580000D03*
%TO.P,U1,54*%
%TO.N,+5V*%
X85830000Y-90580000D03*
%TO.P,U1,53*%
%TO.N,Net-(U1-Pad53)*%
X83290000Y-93120000D03*
%TO.P,U1,52*%
%TO.N,Net-(U1-Pad52)*%
X85830000Y-93120000D03*
%TO.P,U1,51*%
%TO.N,Net-(U1-Pad51)*%
X88370000Y-93120000D03*
%TO.P,U1,50*%
%TO.N,JOY_18*%
X90910000Y-93120000D03*
%TO.P,U1,49*%
%TO.N,JOY_17*%
X93450000Y-93120000D03*
%TO.P,U1,48*%
%TO.N,JOY_16*%
X95990000Y-93120000D03*
%TO.P,U1,47*%
%TO.N,JOY_15*%
X98530000Y-93120000D03*
%TO.P,U1,46*%
%TO.N,Net-(U1-Pad46)*%
X101070000Y-93120000D03*
%TO.P,U1,45*%
%TO.N,Net-(U1-Pad45)*%
X103610000Y-93120000D03*
%TO.P,U1,44*%
%TO.N,Net-(U1-Pad44)*%
X106150000Y-93120000D03*
%TO.P,U1,43*%
%TO.N,Net-(U1-Pad43)*%
X108690000Y-93120000D03*
%TO.P,U1,42*%
%TO.N,Net-(U1-Pad42)*%
X111230000Y-93120000D03*
%TO.P,U1,41*%
%TO.N,Net-(U1-Pad41)*%
X113770000Y-93120000D03*
%TO.P,U1,40*%
%TO.N,Net-(U1-Pad40)*%
X116310000Y-93120000D03*
%TO.P,U1,39*%
%TO.N,GND*%
X118850000Y-93120000D03*
%TO.P,U1,38*%
%TO.N,Net-(U1-Pad38)*%
X121390000Y-93120000D03*
D12*
%TO.P,U1,1*%
%TO.N,GND*%
X83290000Y-77880000D03*
D11*
%TO.P,U1,2*%
%TO.N,JOY_19*%
X85830000Y-77880000D03*
%TO.P,U1,3*%
%TO.N,JOY_20*%
X88370000Y-77880000D03*
%TO.P,U1,4*%
%TO.N,JOY_01*%
X90910000Y-77880000D03*
%TO.P,U1,5*%
%TO.N,JOY_02*%
X93450000Y-77880000D03*
%TO.P,U1,6*%
%TO.N,JOY_03*%
X95990000Y-77880000D03*
%TO.P,U1,7*%
%TO.N,JOY_04*%
X98530000Y-77880000D03*
%TO.P,U1,8*%
%TO.N,JOY_05*%
X101070000Y-77880000D03*
%TO.P,U1,9*%
%TO.N,Net-(U1-Pad9)*%
X103610000Y-77880000D03*
%TO.P,U1,10*%
%TO.N,Net-(U1-Pad10)*%
X106150000Y-77880000D03*
%TO.P,U1,11*%
%TO.N,Net-(U1-Pad11)*%
X108690000Y-77880000D03*
%TO.P,U1,12*%
%TO.N,Net-(U1-Pad12)*%
X111230000Y-77880000D03*
%TO.P,U1,13*%
%TO.N,Net-(U1-Pad13)*%
X113770000Y-77880000D03*
%TO.P,U1,37*%
%TO.N,Net-(U1-Pad37)*%
X123930000Y-93120000D03*
%TO.P,U1,36*%
%TO.N,JOY_14*%
X126470000Y-93120000D03*
%TO.P,U1,35*%
%TO.N,JOY_13*%
X129010000Y-93120000D03*
%TO.P,U1,34*%
%TO.N,JOY_12*%
X131550000Y-93120000D03*
%TO.P,U1,33*%
%TO.N,JOY_11*%
X134090000Y-93120000D03*
%TO.P,U1,32*%
%TO.N,JOY_10*%
X136630000Y-93120000D03*
%TO.P,U1,31*%
%TO.N,JOY_09*%
X139170000Y-93120000D03*
%TO.P,U1,30*%
%TO.N,JOY_08*%
X141710000Y-93120000D03*
%TO.P,U1,29*%
%TO.N,Net-(U1-Pad29)*%
X129010000Y-90580000D03*
%TO.P,U1,28*%
%TO.N,Net-(U1-Pad28)*%
X129010000Y-88040000D03*
%TO.P,U1,27*%
%TO.N,GND*%
X129010000Y-85500000D03*
%TO.P,U1,26*%
%TO.N,Net-(U1-Pad26)*%
X129010000Y-82960000D03*
%TO.P,U1,25*%
%TO.N,Net-(U1-Pad25)*%
X129010000Y-80420000D03*
%TO.P,U1,24*%
%TO.N,JOY_07*%
X141710000Y-77880000D03*
%TO.P,U1,23*%
%TO.N,JOY_06*%
X139170000Y-77880000D03*
%TO.P,U1,22*%
%TO.N,Net-(U1-Pad22)*%
X136630000Y-77880000D03*
%TO.P,U1,21*%
%TO.N,Net-(U1-Pad21)*%
X134090000Y-77880000D03*
%TO.P,U1,14*%
%TO.N,Net-(U1-Pad14)*%
X116310000Y-77880000D03*
%TO.P,U1,15*%
%TO.N,Net-(U1-Pad15)*%
X118850000Y-77880000D03*
%TO.P,U1,16*%
%TO.N,Net-(U1-Pad16)*%
X121390000Y-77880000D03*
%TO.P,U1,20*%
%TO.N,Net-(U1-Pad20)*%
X131550000Y-77880000D03*
%TO.P,U1,19*%
%TO.N,Net-(U1-Pad19)*%
X129010000Y-77880000D03*
%TO.P,U1,18*%
%TO.N,Net-(U1-Pad18)*%
X126470000Y-77880000D03*
%TO.P,U1,17*%
%TO.N,Net-(U1-Pad17)*%
X123930000Y-77880000D03*
%TD*%
D13*
%TO.P,SW20,2*%
%TO.N,JOY_20*%
X8190000Y-44460000D03*
%TO.P,SW20,1*%
%TO.N,GND*%
X14540000Y-41920000D03*
%TD*%
%TO.P,SW19,2*%
%TO.N,JOY_19*%
X8190000Y-64460000D03*
%TO.P,SW19,1*%
%TO.N,GND*%
X14540000Y-61920000D03*
%TD*%
%TO.P,SW18,2*%
%TO.N,JOY_18*%
X8190000Y-84460000D03*
%TO.P,SW18,1*%
%TO.N,GND*%
X14540000Y-81920000D03*
%TD*%
%TO.P,SW17,2*%
%TO.N,JOY_17*%
X8190000Y-104460000D03*
%TO.P,SW17,1*%
%TO.N,GND*%
X14540000Y-101920000D03*
%TD*%
%TO.P,SW16,2*%
%TO.N,JOY_16*%
X8190000Y-124460000D03*
%TO.P,SW16,1*%
%TO.N,GND*%
X14540000Y-121920000D03*
%TD*%
%TO.P,SW15,2*%
%TO.N,JOY_15*%
X51190000Y-156460000D03*
%TO.P,SW15,1*%
%TO.N,GND*%
X57540000Y-153920000D03*
%TD*%
%TO.P,SW14,2*%
%TO.N,JOY_14*%
X79690000Y-156460000D03*
%TO.P,SW14,1*%
%TO.N,GND*%
X86040000Y-153920000D03*
%TD*%
%TO.P,SW13,2*%
%TO.N,JOY_13*%
X108190000Y-156460000D03*
%TO.P,SW13,1*%
%TO.N,GND*%
X114540000Y-153920000D03*
%TD*%
%TO.P,SW12,2*%
%TO.N,JOY_12*%
X136690000Y-156460000D03*
%TO.P,SW12,1*%
%TO.N,GND*%
X143040000Y-153920000D03*
%TD*%
%TO.P,SW11,2*%
%TO.N,JOY_11*%
X165190000Y-156460000D03*
%TO.P,SW11,1*%
%TO.N,GND*%
X171540000Y-153920000D03*
%TD*%
%TO.P,SW10,2*%
%TO.N,JOY_10*%
X209190000Y-124460000D03*
%TO.P,SW10,1*%
%TO.N,GND*%
X215540000Y-121920000D03*
%TD*%
%TO.P,SW9,2*%
%TO.N,JOY_09*%
X209190000Y-104460000D03*
%TO.P,SW9,1*%
%TO.N,GND*%
X215540000Y-101920000D03*
%TD*%
%TO.P,SW8,2*%
%TO.N,JOY_08*%
X209190000Y-84460000D03*
%TO.P,SW8,1*%
%TO.N,GND*%
X215540000Y-81920000D03*
%TD*%
%TO.P,SW7,2*%
%TO.N,JOY_07*%
X209190000Y-64460000D03*
%TO.P,SW7,1*%
%TO.N,GND*%
X215540000Y-61920000D03*
%TD*%
%TO.P,SW6,2*%
%TO.N,JOY_06*%
X209190000Y-44460000D03*
%TO.P,SW6,1*%
%TO.N,GND*%
X215540000Y-41920000D03*
%TD*%
%TO.P,SW5,2*%
%TO.N,JOY_05*%
X166190000Y-9460000D03*
%TO.P,SW5,1*%
%TO.N,GND*%
X172540000Y-6920000D03*
%TD*%
%TO.P,SW4,2*%
%TO.N,JOY_04*%
X137690000Y-9460000D03*
%TO.P,SW4,1*%
%TO.N,GND*%
X144040000Y-6920000D03*
%TD*%
%TO.P,SW3,2*%
%TO.N,JOY_03*%
X108690000Y-9460000D03*
%TO.P,SW3,1*%
%TO.N,GND*%
X115040000Y-6920000D03*
%TD*%
%TO.P,SW2,2*%
%TO.N,JOY_02*%
X80190000Y-9460000D03*
%TO.P,SW2,1*%
%TO.N,GND*%
X86540000Y-6920000D03*
%TD*%
%TO.P,SW1,2*%
%TO.N,JOY_01*%
X51690000Y-9460000D03*
%TO.P,SW1,1*%
%TO.N,GND*%
X58040000Y-6920000D03*
%TD*%
D14*
%TO.P,J1,3*%
%TO.N,+5V*%
X95000000Y-113080000D03*
%TO.P,J1,2*%
X95000000Y-110540000D03*
D15*
%TO.P,J1,1*%
%TO.N,GND*%
X95000000Y-108000000D03*
%TD*%
D16*
%TO.N,JOY_01*%
X51690000Y-38660000D02*
X90910000Y-77880000D01*
X51690000Y-9460000D02*
X51690000Y-38660000D01*
%TO.N,JOY_02*%
X80190000Y-64620000D02*
X93450000Y-77880000D01*
X80190000Y-9460000D02*
X80190000Y-64620000D01*
%TO.N,JOY_03*%
X108690000Y-65180000D02*
X95990000Y-77880000D01*
X108690000Y-9460000D02*
X108690000Y-65180000D01*
%TO.N,JOY_04*%
X137690000Y-38720000D02*
X98530000Y-77880000D01*
X137690000Y-9460000D02*
X137690000Y-38720000D01*
%TO.N,JOY_05*%
X101070000Y-77589002D02*
X101070000Y-77880000D01*
X166190000Y-12469002D02*
X101070000Y-77589002D01*
X166190000Y-9460000D02*
X166190000Y-12469002D01*
%TO.N,JOY_06*%
X139170000Y-77005002D02*
X139170000Y-77880000D01*
X171715002Y-44460000D02*
X139170000Y-77005002D01*
X209190000Y-44460000D02*
X171715002Y-44460000D01*
%TO.N,JOY_07*%
X155130000Y-64460000D02*
X141710000Y-77880000D01*
X209190000Y-64460000D02*
X155130000Y-64460000D01*
%TO.N,JOY_08*%
X150370000Y-84460000D02*
X141710000Y-93120000D01*
X209190000Y-84460000D02*
X150370000Y-84460000D01*
%TO.N,JOY_09*%
X150510000Y-104460000D02*
X139170000Y-93120000D01*
X209190000Y-104460000D02*
X150510000Y-104460000D01*
%TO.N,JOY_10*%
X167970000Y-124460000D02*
X136630000Y-93120000D01*
X209190000Y-124460000D02*
X167970000Y-124460000D01*
%TO.N,JOY_11*%
X165190000Y-124220000D02*
X134090000Y-93120000D01*
X165190000Y-156460000D02*
X165190000Y-124220000D01*
%TO.N,JOY_12*%
X136690000Y-98260000D02*
X131550000Y-93120000D01*
X136690000Y-156460000D02*
X136690000Y-98260000D01*
%TO.N,JOY_13*%
X108190000Y-113940000D02*
X129010000Y-93120000D01*
X108190000Y-156460000D02*
X108190000Y-113940000D01*
%TO.N,JOY_14*%
X79690000Y-139900000D02*
X126470000Y-93120000D01*
X79690000Y-156460000D02*
X79690000Y-139900000D01*
%TO.N,JOY_15*%
X51190000Y-140460000D02*
X98530000Y-93120000D01*
X51190000Y-156460000D02*
X51190000Y-140460000D01*
%TO.N,JOY_16*%
X64650000Y-124460000D02*
X95990000Y-93120000D01*
X8190000Y-124460000D02*
X64650000Y-124460000D01*
%TO.N,JOY_17*%
X82110000Y-104460000D02*
X93450000Y-93120000D01*
X8190000Y-104460000D02*
X82110000Y-104460000D01*
%TO.N,JOY_18*%
X82250000Y-84460000D02*
X90910000Y-93120000D01*
X8190000Y-84460000D02*
X82250000Y-84460000D01*
%TO.N,JOY_19*%
X85475002Y-77880000D02*
X85830000Y-77880000D01*
X72055002Y-64460000D02*
X85475002Y-77880000D01*
X8190000Y-64460000D02*
X72055002Y-64460000D01*
%TO.N,JOY_20*%
X87495002Y-77880000D02*
X88370000Y-77880000D01*
X54075002Y-44460000D02*
X87495002Y-77880000D01*
X8190000Y-44460000D02*
X54075002Y-44460000D01*
%TD*%
M02*
