%TF.GenerationSoftware,KiCad,Pcbnew,(5.1.9)-1*%
%TF.CreationDate,2021-03-29T18:53:15-04:00*%
%TF.ProjectId,wildcatmfd_kicad,77696c64-6361-4746-9d66-645f6b696361,rev?*%
%TF.SameCoordinates,Original*%
%TF.FileFunction,Copper,L1,Top*%
%TF.FilePolarity,Positive*%
%FSLAX46Y46*%
G04 Gerber Fmt 4.6, Leading zero omitted, Abs format (unit mm)*
G04 Created by KiCad (PCBNEW (5.1.9)-1) date 2021-03-29 18:53:15*
%MOMM*%
%LPD*%
G01*
G04 APERTURE LIST*
%TA.AperFunction,ComponentPad*%
%ADD10C,4.000000*%
%TD*%
%TA.AperFunction,ComponentPad*%
%ADD11C,1.600000*%
%TD*%
%TA.AperFunction,ComponentPad*%
%ADD12R,1.600000X1.600000*%
%TD*%
%TA.AperFunction,ComponentPad*%
%ADD13C,2.200000*%
%TD*%
%TA.AperFunction,Conductor*%
%ADD14C,0.250000*%
%TD*%
G04 APERTURE END LIST*
D10*
%TO.P,REF\u002A\u002A,1*%
%TO.N,N/C*%
X43080000Y-158650000D03*
%TD*%
%TO.P,REF\u002A\u002A,1*%
%TO.N,N/C*%
X186080000Y-158550000D03*
%TD*%
%TO.P,REF\u002A\u002A,1*%
%TO.N,N/C*%
X186080000Y-43550000D03*
%TD*%
%TO.P,REF\u002A\u002A,1*%
%TO.N,N/C*%
X43080000Y-43550000D03*
%TD*%
D11*
%TO.P,U1,62*%
%TO.N,GND*%
X102870000Y-96980000D03*
%TO.P,U1,61*%
X100330000Y-96980000D03*
%TO.P,U1,60*%
%TO.N,Net-(U1-Pad60)*%
X97790000Y-96980000D03*
%TO.P,U1,59*%
%TO.N,Net-(U1-Pad59)*%
X95250000Y-96980000D03*
%TO.P,U1,58*%
%TO.N,Net-(U1-Pad58)*%
X92710000Y-96980000D03*
%TO.P,U1,57*%
%TO.N,Net-(U1-Pad57)*%
X99060000Y-106680000D03*
%TO.P,U1,56*%
%TO.N,Net-(U1-Pad56)*%
X96520000Y-106680000D03*
%TO.P,U1,55*%
%TO.N,Net-(U1-Pad55)*%
X93980000Y-106680000D03*
%TO.P,U1,54*%
%TO.N,Net-(U1-Pad54)*%
X88900000Y-106680000D03*
%TO.P,U1,53*%
%TO.N,Net-(U1-Pad53)*%
X86360000Y-109220000D03*
%TO.P,U1,52*%
%TO.N,Net-(U1-Pad52)*%
X88900000Y-109220000D03*
%TO.P,U1,51*%
%TO.N,Net-(U1-Pad51)*%
X91440000Y-109220000D03*
%TO.P,U1,50*%
%TO.N,JOY_18*%
X93980000Y-109220000D03*
%TO.P,U1,49*%
%TO.N,JOY_17*%
X96520000Y-109220000D03*
%TO.P,U1,48*%
%TO.N,JOY_16*%
X99060000Y-109220000D03*
%TO.P,U1,47*%
%TO.N,JOY_15*%
X101600000Y-109220000D03*
%TO.P,U1,46*%
%TO.N,Net-(U1-Pad46)*%
X104140000Y-109220000D03*
%TO.P,U1,45*%
%TO.N,Net-(U1-Pad45)*%
X106680000Y-109220000D03*
%TO.P,U1,44*%
%TO.N,Net-(U1-Pad44)*%
X109220000Y-109220000D03*
%TO.P,U1,43*%
%TO.N,Net-(U1-Pad43)*%
X111760000Y-109220000D03*
%TO.P,U1,42*%
%TO.N,Net-(U1-Pad42)*%
X114300000Y-109220000D03*
%TO.P,U1,41*%
%TO.N,Net-(U1-Pad41)*%
X116840000Y-109220000D03*
%TO.P,U1,40*%
%TO.N,Net-(U1-Pad40)*%
X119380000Y-109220000D03*
%TO.P,U1,39*%
%TO.N,GND*%
X121920000Y-109220000D03*
%TO.P,U1,38*%
%TO.N,Net-(U1-Pad38)*%
X124460000Y-109220000D03*
D12*
%TO.P,U1,1*%
%TO.N,GND*%
X86360000Y-93980000D03*
D11*
%TO.P,U1,2*%
%TO.N,JOY_19*%
X88900000Y-93980000D03*
%TO.P,U1,3*%
%TO.N,JOY_20*%
X91440000Y-93980000D03*
%TO.P,U1,4*%
%TO.N,JOY_01*%
X93980000Y-93980000D03*
%TO.P,U1,5*%
%TO.N,JOY_02*%
X96520000Y-93980000D03*
%TO.P,U1,6*%
%TO.N,JOY_03*%
X99060000Y-93980000D03*
%TO.P,U1,7*%
%TO.N,JOY_04*%
X101600000Y-93980000D03*
%TO.P,U1,8*%
%TO.N,JOY_05*%
X104140000Y-93980000D03*
%TO.P,U1,9*%
%TO.N,Net-(U1-Pad9)*%
X106680000Y-93980000D03*
%TO.P,U1,10*%
%TO.N,Net-(U1-Pad10)*%
X109220000Y-93980000D03*
%TO.P,U1,11*%
%TO.N,Net-(U1-Pad11)*%
X111760000Y-93980000D03*
%TO.P,U1,12*%
%TO.N,Net-(U1-Pad12)*%
X114300000Y-93980000D03*
%TO.P,U1,13*%
%TO.N,Net-(U1-Pad13)*%
X116840000Y-93980000D03*
%TO.P,U1,37*%
%TO.N,Net-(U1-Pad37)*%
X127000000Y-109220000D03*
%TO.P,U1,36*%
%TO.N,JOY_14*%
X129540000Y-109220000D03*
%TO.P,U1,35*%
%TO.N,JOY_13*%
X132080000Y-109220000D03*
%TO.P,U1,34*%
%TO.N,JOY_12*%
X134620000Y-109220000D03*
%TO.P,U1,33*%
%TO.N,JOY_11*%
X137160000Y-109220000D03*
%TO.P,U1,32*%
%TO.N,JOY_10*%
X139700000Y-109220000D03*
%TO.P,U1,31*%
%TO.N,JOY_09*%
X142240000Y-109220000D03*
%TO.P,U1,30*%
%TO.N,JOY_08*%
X144780000Y-109220000D03*
%TO.P,U1,29*%
%TO.N,Net-(U1-Pad29)*%
X132080000Y-106680000D03*
%TO.P,U1,28*%
%TO.N,Net-(U1-Pad28)*%
X132080000Y-104140000D03*
%TO.P,U1,27*%
%TO.N,GND*%
X132080000Y-101600000D03*
%TO.P,U1,26*%
%TO.N,Net-(U1-Pad26)*%
X132080000Y-99060000D03*
%TO.P,U1,25*%
%TO.N,Net-(U1-Pad25)*%
X132080000Y-96520000D03*
%TO.P,U1,24*%
%TO.N,JOY_07*%
X144780000Y-93980000D03*
%TO.P,U1,23*%
%TO.N,JOY_06*%
X142240000Y-93980000D03*
%TO.P,U1,22*%
%TO.N,Net-(U1-Pad22)*%
X139700000Y-93980000D03*
%TO.P,U1,21*%
%TO.N,Net-(U1-Pad21)*%
X137160000Y-93980000D03*
%TO.P,U1,14*%
%TO.N,Net-(U1-Pad14)*%
X119380000Y-93980000D03*
%TO.P,U1,15*%
%TO.N,Net-(U1-Pad15)*%
X121920000Y-93980000D03*
%TO.P,U1,16*%
%TO.N,Net-(U1-Pad16)*%
X124460000Y-93980000D03*
%TO.P,U1,20*%
%TO.N,Net-(U1-Pad20)*%
X134620000Y-93980000D03*
%TO.P,U1,19*%
%TO.N,Net-(U1-Pad19)*%
X132080000Y-93980000D03*
%TO.P,U1,18*%
%TO.N,Net-(U1-Pad18)*%
X129540000Y-93980000D03*
%TO.P,U1,17*%
%TO.N,Net-(U1-Pad17)*%
X127000000Y-93980000D03*
%TD*%
D13*
%TO.P,SW20,2*%
%TO.N,JOY_20*%
X24130000Y-55880000D03*
%TO.P,SW20,1*%
%TO.N,GND*%
X30480000Y-53340000D03*
%TD*%
%TO.P,SW19,2*%
%TO.N,JOY_19*%
X24130000Y-77470000D03*
%TO.P,SW19,1*%
%TO.N,GND*%
X30480000Y-74930000D03*
%TD*%
%TO.P,SW18,2*%
%TO.N,JOY_18*%
X24130000Y-99060000D03*
%TO.P,SW18,1*%
%TO.N,GND*%
X30480000Y-96520000D03*
%TD*%
%TO.P,SW17,2*%
%TO.N,JOY_17*%
X24130000Y-120650000D03*
%TO.P,SW17,1*%
%TO.N,GND*%
X30480000Y-118110000D03*
%TD*%
%TO.P,SW16,2*%
%TO.N,JOY_16*%
X24130000Y-142240000D03*
%TO.P,SW16,1*%
%TO.N,GND*%
X30480000Y-139700000D03*
%TD*%
%TO.P,SW15,2*%
%TO.N,JOY_15*%
X54610000Y-171450000D03*
%TO.P,SW15,1*%
%TO.N,GND*%
X60960000Y-168910000D03*
%TD*%
%TO.P,SW14,2*%
%TO.N,JOY_14*%
X82550000Y-171450000D03*
%TO.P,SW14,1*%
%TO.N,GND*%
X88900000Y-168910000D03*
%TD*%
%TO.P,SW13,2*%
%TO.N,JOY_13*%
X111760000Y-171450000D03*
%TO.P,SW13,1*%
%TO.N,GND*%
X118110000Y-168910000D03*
%TD*%
%TO.P,SW12,2*%
%TO.N,JOY_12*%
X139700000Y-171450000D03*
%TO.P,SW12,1*%
%TO.N,GND*%
X146050000Y-168910000D03*
%TD*%
%TO.P,SW11,2*%
%TO.N,JOY_11*%
X167640000Y-171450000D03*
%TO.P,SW11,1*%
%TO.N,GND*%
X173990000Y-168910000D03*
%TD*%
%TO.P,SW10,2*%
%TO.N,JOY_10*%
X198120000Y-142240000D03*
%TO.P,SW10,1*%
%TO.N,GND*%
X204470000Y-139700000D03*
%TD*%
%TO.P,SW9,2*%
%TO.N,JOY_09*%
X198120000Y-120650000D03*
%TO.P,SW9,1*%
%TO.N,GND*%
X204470000Y-118110000D03*
%TD*%
%TO.P,SW8,2*%
%TO.N,JOY_08*%
X198120000Y-99060000D03*
%TO.P,SW8,1*%
%TO.N,GND*%
X204470000Y-96520000D03*
%TD*%
%TO.P,SW7,2*%
%TO.N,JOY_07*%
X198120000Y-77470000D03*
%TO.P,SW7,1*%
%TO.N,GND*%
X204470000Y-74930000D03*
%TD*%
%TO.P,SW6,2*%
%TO.N,JOY_06*%
X198120000Y-55880000D03*
%TO.P,SW6,1*%
%TO.N,GND*%
X204470000Y-53340000D03*
%TD*%
%TO.P,SW5,2*%
%TO.N,JOY_05*%
X167640000Y-25400000D03*
%TO.P,SW5,1*%
%TO.N,GND*%
X173990000Y-22860000D03*
%TD*%
%TO.P,SW4,2*%
%TO.N,JOY_04*%
X139700000Y-25400000D03*
%TO.P,SW4,1*%
%TO.N,GND*%
X146050000Y-22860000D03*
%TD*%
%TO.P,SW3,2*%
%TO.N,JOY_03*%
X111760000Y-25400000D03*
%TO.P,SW3,1*%
%TO.N,GND*%
X118110000Y-22860000D03*
%TD*%
%TO.P,SW2,2*%
%TO.N,JOY_02*%
X82550000Y-25400000D03*
%TO.P,SW2,1*%
%TO.N,GND*%
X88900000Y-22860000D03*
%TD*%
%TO.P,SW1,2*%
%TO.N,JOY_01*%
X54610000Y-25400000D03*
%TO.P,SW1,1*%
%TO.N,GND*%
X60960000Y-22860000D03*
%TD*%
D14*
%TO.N,JOY_01*%
X54610000Y-27571002D02*
X72880000Y-45841002D01*
X54610000Y-25400000D02*
X54610000Y-27571002D01*
X72880000Y-72880000D02*
X93980000Y-93980000D01*
X72880000Y-45841002D02*
X72880000Y-72880000D01*
%TO.N,JOY_02*%
X82550000Y-80010000D02*
X96520000Y-93980000D01*
X82550000Y-25400000D02*
X82550000Y-80010000D01*
%TO.N,JOY_03*%
X99060000Y-36544366D02*
X99060000Y-93980000D01*
X110204366Y-25400000D02*
X99060000Y-36544366D01*
X111760000Y-25400000D02*
X110204366Y-25400000D01*
%TO.N,JOY_04*%
X101600000Y-61944366D02*
X101600000Y-93980000D01*
X138144366Y-25400000D02*
X101600000Y-61944366D01*
X139700000Y-25400000D02*
X138144366Y-25400000D01*
%TO.N,JOY_05*%
X104140000Y-87344366D02*
X104140000Y-93980000D01*
X166084366Y-25400000D02*
X104140000Y-87344366D01*
X167640000Y-25400000D02*
X166084366Y-25400000D01*
%TO.N,JOY_06*%
X180340000Y-55880000D02*
X142240000Y-93980000D01*
X198120000Y-55880000D02*
X180340000Y-55880000D01*
%TO.N,JOY_07*%
X161290000Y-77470000D02*
X144780000Y-93980000D01*
X198120000Y-77470000D02*
X161290000Y-77470000D01*
%TO.N,JOY_08*%
X186404366Y-109220000D02*
X144780000Y-109220000D01*
X196564366Y-99060000D02*
X186404366Y-109220000D01*
X198120000Y-99060000D02*
X196564366Y-99060000D01*
%TO.N,JOY_09*%
X153670000Y-120650000D02*
X142240000Y-109220000D01*
X198120000Y-120650000D02*
X153670000Y-120650000D01*
%TO.N,JOY_10*%
X172720000Y-142240000D02*
X139700000Y-109220000D01*
X198120000Y-142240000D02*
X172720000Y-142240000D01*
%TO.N,JOY_11*%
X167640000Y-139700000D02*
X137160000Y-109220000D01*
X167640000Y-171450000D02*
X167640000Y-139700000D01*
%TO.N,JOY_12*%
X139700000Y-114300000D02*
X134620000Y-109220000D01*
X139700000Y-171450000D02*
X139700000Y-114300000D01*
%TO.N,JOY_13*%
X111760000Y-129540000D02*
X132080000Y-109220000D01*
X111760000Y-171450000D02*
X111760000Y-129540000D01*
%TO.N,JOY_14*%
X82550000Y-156210000D02*
X129540000Y-109220000D01*
X82550000Y-171450000D02*
X82550000Y-156210000D01*
%TO.N,JOY_15*%
X54610000Y-156210000D02*
X101600000Y-109220000D01*
X54610000Y-171450000D02*
X54610000Y-156210000D01*
%TO.N,JOY_16*%
X66040000Y-142240000D02*
X99060000Y-109220000D01*
X24130000Y-142240000D02*
X66040000Y-142240000D01*
%TO.N,JOY_17*%
X85090000Y-120650000D02*
X96520000Y-109220000D01*
X24130000Y-120650000D02*
X85090000Y-120650000D01*
%TO.N,JOY_18*%
X93105002Y-109220000D02*
X93980000Y-109220000D01*
X82945002Y-99060000D02*
X93105002Y-109220000D01*
X24130000Y-99060000D02*
X82945002Y-99060000D01*
%TO.N,JOY_19*%
X72390000Y-77470000D02*
X88900000Y-93980000D01*
X24130000Y-77470000D02*
X72390000Y-77470000D01*
%TO.N,JOY_20*%
X53340000Y-55880000D02*
X91440000Y-93980000D01*
X24130000Y-55880000D02*
X53340000Y-55880000D01*
%TD*%
M02*
