G04 #@! TF.GenerationSoftware,KiCad,Pcbnew,5.1.5+dfsg1-2build2*
G04 #@! TF.CreationDate,2021-04-02T07:12:13-04:00*
G04 #@! TF.ProjectId,wildcatmfd_kicad,77696c64-6361-4746-9d66-645f6b696361,rev?*
G04 #@! TF.SameCoordinates,Original*
G04 #@! TF.FileFunction,Legend,Top*
G04 #@! TF.FilePolarity,Positive*
%FSLAX46Y46*%
G04 Gerber Fmt 4.6, Leading zero omitted, Abs format (unit mm)*
G04 Created by KiCad (PCBNEW 5.1.5+dfsg1-2build2) date 2021-04-02 07:12:13*
%MOMM*%
%LPD*%
G04 APERTURE LIST*
%ADD10C,0.120000*%
%ADD11C,0.150000*%
G04 APERTURE END LIST*
D10*
G04 #@! TO.C,*
X26416000Y-176530000D02*
G75*
G03X26416000Y-176530000I-2286000J0D01*
G01*
X206756000Y-176530000D02*
G75*
G03X206756000Y-176530000I-2286000J0D01*
G01*
X206756000Y-24130000D02*
G75*
G03X206756000Y-24130000I-2286000J0D01*
G01*
X26416000Y-24130000D02*
G75*
G03X26416000Y-24130000I-2286000J0D01*
G01*
G04 #@! TO.C,SCREEN_MOUNT*
X45366000Y-158650000D02*
G75*
G03X45366000Y-158650000I-2286000J0D01*
G01*
X188366000Y-158550000D02*
G75*
G03X188366000Y-158550000I-2286000J0D01*
G01*
X188366000Y-43550000D02*
G75*
G03X188366000Y-43550000I-2286000J0D01*
G01*
X45366000Y-43550000D02*
G75*
G03X45366000Y-43550000I-2286000J0D01*
G01*
G04 #@! TO.C,SW20*
X20955000Y-65405000D02*
X20955000Y-51435000D01*
X34925000Y-65405000D02*
X20955000Y-65405000D01*
X34925000Y-51435000D02*
X34925000Y-65405000D01*
X20955000Y-51435000D02*
X34925000Y-51435000D01*
G04 #@! TO.C,SW19*
X20955000Y-86995000D02*
X20955000Y-73025000D01*
X34925000Y-86995000D02*
X20955000Y-86995000D01*
X34925000Y-73025000D02*
X34925000Y-86995000D01*
X20955000Y-73025000D02*
X34925000Y-73025000D01*
G04 #@! TO.C,SW18*
X20955000Y-108585000D02*
X20955000Y-94615000D01*
X34925000Y-108585000D02*
X20955000Y-108585000D01*
X34925000Y-94615000D02*
X34925000Y-108585000D01*
X20955000Y-94615000D02*
X34925000Y-94615000D01*
G04 #@! TO.C,SW17*
X20955000Y-130175000D02*
X20955000Y-116205000D01*
X34925000Y-130175000D02*
X20955000Y-130175000D01*
X34925000Y-116205000D02*
X34925000Y-130175000D01*
X20955000Y-116205000D02*
X34925000Y-116205000D01*
G04 #@! TO.C,SW16*
X20955000Y-151765000D02*
X20955000Y-137795000D01*
X34925000Y-151765000D02*
X20955000Y-151765000D01*
X34925000Y-137795000D02*
X34925000Y-151765000D01*
X20955000Y-137795000D02*
X34925000Y-137795000D01*
G04 #@! TO.C,SW15*
X51435000Y-180975000D02*
X51435000Y-167005000D01*
X65405000Y-180975000D02*
X51435000Y-180975000D01*
X65405000Y-167005000D02*
X65405000Y-180975000D01*
X51435000Y-167005000D02*
X65405000Y-167005000D01*
G04 #@! TO.C,SW14*
X79375000Y-180975000D02*
X79375000Y-167005000D01*
X93345000Y-180975000D02*
X79375000Y-180975000D01*
X93345000Y-167005000D02*
X93345000Y-180975000D01*
X79375000Y-167005000D02*
X93345000Y-167005000D01*
G04 #@! TO.C,SW13*
X108585000Y-180975000D02*
X108585000Y-167005000D01*
X122555000Y-180975000D02*
X108585000Y-180975000D01*
X122555000Y-167005000D02*
X122555000Y-180975000D01*
X108585000Y-167005000D02*
X122555000Y-167005000D01*
G04 #@! TO.C,SW12*
X136525000Y-180975000D02*
X136525000Y-167005000D01*
X150495000Y-180975000D02*
X136525000Y-180975000D01*
X150495000Y-167005000D02*
X150495000Y-180975000D01*
X136525000Y-167005000D02*
X150495000Y-167005000D01*
G04 #@! TO.C,SW11*
X164465000Y-180975000D02*
X164465000Y-167005000D01*
X178435000Y-180975000D02*
X164465000Y-180975000D01*
X178435000Y-167005000D02*
X178435000Y-180975000D01*
X164465000Y-167005000D02*
X178435000Y-167005000D01*
G04 #@! TO.C,SW10*
X194945000Y-151765000D02*
X194945000Y-137795000D01*
X208915000Y-151765000D02*
X194945000Y-151765000D01*
X208915000Y-137795000D02*
X208915000Y-151765000D01*
X194945000Y-137795000D02*
X208915000Y-137795000D01*
G04 #@! TO.C,SW9*
X194945000Y-130175000D02*
X194945000Y-116205000D01*
X208915000Y-130175000D02*
X194945000Y-130175000D01*
X208915000Y-116205000D02*
X208915000Y-130175000D01*
X194945000Y-116205000D02*
X208915000Y-116205000D01*
G04 #@! TO.C,SW8*
X194945000Y-108585000D02*
X194945000Y-94615000D01*
X208915000Y-108585000D02*
X194945000Y-108585000D01*
X208915000Y-94615000D02*
X208915000Y-108585000D01*
X194945000Y-94615000D02*
X208915000Y-94615000D01*
G04 #@! TO.C,SW7*
X194945000Y-86995000D02*
X194945000Y-73025000D01*
X208915000Y-86995000D02*
X194945000Y-86995000D01*
X208915000Y-73025000D02*
X208915000Y-86995000D01*
X194945000Y-73025000D02*
X208915000Y-73025000D01*
G04 #@! TO.C,SW6*
X194945000Y-65405000D02*
X194945000Y-51435000D01*
X208915000Y-65405000D02*
X194945000Y-65405000D01*
X208915000Y-51435000D02*
X208915000Y-65405000D01*
X194945000Y-51435000D02*
X208915000Y-51435000D01*
G04 #@! TO.C,SW5*
X164465000Y-34925000D02*
X164465000Y-20955000D01*
X178435000Y-34925000D02*
X164465000Y-34925000D01*
X178435000Y-20955000D02*
X178435000Y-34925000D01*
X164465000Y-20955000D02*
X178435000Y-20955000D01*
G04 #@! TO.C,SW4*
X136525000Y-34925000D02*
X136525000Y-20955000D01*
X150495000Y-34925000D02*
X136525000Y-34925000D01*
X150495000Y-20955000D02*
X150495000Y-34925000D01*
X136525000Y-20955000D02*
X150495000Y-20955000D01*
G04 #@! TO.C,SW3*
X108585000Y-34925000D02*
X108585000Y-20955000D01*
X122555000Y-34925000D02*
X108585000Y-34925000D01*
X122555000Y-20955000D02*
X122555000Y-34925000D01*
X108585000Y-20955000D02*
X122555000Y-20955000D01*
G04 #@! TO.C,SW2*
X79375000Y-34925000D02*
X79375000Y-20955000D01*
X93345000Y-34925000D02*
X79375000Y-34925000D01*
X93345000Y-20955000D02*
X93345000Y-34925000D01*
X79375000Y-20955000D02*
X93345000Y-20955000D01*
G04 #@! TO.C,SW1*
X51435000Y-34925000D02*
X51435000Y-20955000D01*
X65405000Y-34925000D02*
X51435000Y-34925000D01*
X65405000Y-20955000D02*
X65405000Y-34925000D01*
X51435000Y-20955000D02*
X65405000Y-20955000D01*
G04 #@! TO.C,*
D11*
G04 #@! TO.C,SCREEN_MOUNT*
X37460952Y-156006761D02*
X37603809Y-156054380D01*
X37841904Y-156054380D01*
X37937142Y-156006761D01*
X37984761Y-155959142D01*
X38032380Y-155863904D01*
X38032380Y-155768666D01*
X37984761Y-155673428D01*
X37937142Y-155625809D01*
X37841904Y-155578190D01*
X37651428Y-155530571D01*
X37556190Y-155482952D01*
X37508571Y-155435333D01*
X37460952Y-155340095D01*
X37460952Y-155244857D01*
X37508571Y-155149619D01*
X37556190Y-155102000D01*
X37651428Y-155054380D01*
X37889523Y-155054380D01*
X38032380Y-155102000D01*
X39032380Y-155959142D02*
X38984761Y-156006761D01*
X38841904Y-156054380D01*
X38746666Y-156054380D01*
X38603809Y-156006761D01*
X38508571Y-155911523D01*
X38460952Y-155816285D01*
X38413333Y-155625809D01*
X38413333Y-155482952D01*
X38460952Y-155292476D01*
X38508571Y-155197238D01*
X38603809Y-155102000D01*
X38746666Y-155054380D01*
X38841904Y-155054380D01*
X38984761Y-155102000D01*
X39032380Y-155149619D01*
X40032380Y-156054380D02*
X39699047Y-155578190D01*
X39460952Y-156054380D02*
X39460952Y-155054380D01*
X39841904Y-155054380D01*
X39937142Y-155102000D01*
X39984761Y-155149619D01*
X40032380Y-155244857D01*
X40032380Y-155387714D01*
X39984761Y-155482952D01*
X39937142Y-155530571D01*
X39841904Y-155578190D01*
X39460952Y-155578190D01*
X40460952Y-155530571D02*
X40794285Y-155530571D01*
X40937142Y-156054380D02*
X40460952Y-156054380D01*
X40460952Y-155054380D01*
X40937142Y-155054380D01*
X41365714Y-155530571D02*
X41699047Y-155530571D01*
X41841904Y-156054380D02*
X41365714Y-156054380D01*
X41365714Y-155054380D01*
X41841904Y-155054380D01*
X42270476Y-156054380D02*
X42270476Y-155054380D01*
X42841904Y-156054380D01*
X42841904Y-155054380D01*
X43080000Y-156149619D02*
X43841904Y-156149619D01*
X44080000Y-156054380D02*
X44080000Y-155054380D01*
X44413333Y-155768666D01*
X44746666Y-155054380D01*
X44746666Y-156054380D01*
X45413333Y-155054380D02*
X45603809Y-155054380D01*
X45699047Y-155102000D01*
X45794285Y-155197238D01*
X45841904Y-155387714D01*
X45841904Y-155721047D01*
X45794285Y-155911523D01*
X45699047Y-156006761D01*
X45603809Y-156054380D01*
X45413333Y-156054380D01*
X45318095Y-156006761D01*
X45222857Y-155911523D01*
X45175238Y-155721047D01*
X45175238Y-155387714D01*
X45222857Y-155197238D01*
X45318095Y-155102000D01*
X45413333Y-155054380D01*
X46270476Y-155054380D02*
X46270476Y-155863904D01*
X46318095Y-155959142D01*
X46365714Y-156006761D01*
X46460952Y-156054380D01*
X46651428Y-156054380D01*
X46746666Y-156006761D01*
X46794285Y-155959142D01*
X46841904Y-155863904D01*
X46841904Y-155054380D01*
X47318095Y-156054380D02*
X47318095Y-155054380D01*
X47889523Y-156054380D01*
X47889523Y-155054380D01*
X48222857Y-155054380D02*
X48794285Y-155054380D01*
X48508571Y-156054380D02*
X48508571Y-155054380D01*
X180460952Y-155906761D02*
X180603809Y-155954380D01*
X180841904Y-155954380D01*
X180937142Y-155906761D01*
X180984761Y-155859142D01*
X181032380Y-155763904D01*
X181032380Y-155668666D01*
X180984761Y-155573428D01*
X180937142Y-155525809D01*
X180841904Y-155478190D01*
X180651428Y-155430571D01*
X180556190Y-155382952D01*
X180508571Y-155335333D01*
X180460952Y-155240095D01*
X180460952Y-155144857D01*
X180508571Y-155049619D01*
X180556190Y-155002000D01*
X180651428Y-154954380D01*
X180889523Y-154954380D01*
X181032380Y-155002000D01*
X182032380Y-155859142D02*
X181984761Y-155906761D01*
X181841904Y-155954380D01*
X181746666Y-155954380D01*
X181603809Y-155906761D01*
X181508571Y-155811523D01*
X181460952Y-155716285D01*
X181413333Y-155525809D01*
X181413333Y-155382952D01*
X181460952Y-155192476D01*
X181508571Y-155097238D01*
X181603809Y-155002000D01*
X181746666Y-154954380D01*
X181841904Y-154954380D01*
X181984761Y-155002000D01*
X182032380Y-155049619D01*
X183032380Y-155954380D02*
X182699047Y-155478190D01*
X182460952Y-155954380D02*
X182460952Y-154954380D01*
X182841904Y-154954380D01*
X182937142Y-155002000D01*
X182984761Y-155049619D01*
X183032380Y-155144857D01*
X183032380Y-155287714D01*
X182984761Y-155382952D01*
X182937142Y-155430571D01*
X182841904Y-155478190D01*
X182460952Y-155478190D01*
X183460952Y-155430571D02*
X183794285Y-155430571D01*
X183937142Y-155954380D02*
X183460952Y-155954380D01*
X183460952Y-154954380D01*
X183937142Y-154954380D01*
X184365714Y-155430571D02*
X184699047Y-155430571D01*
X184841904Y-155954380D02*
X184365714Y-155954380D01*
X184365714Y-154954380D01*
X184841904Y-154954380D01*
X185270476Y-155954380D02*
X185270476Y-154954380D01*
X185841904Y-155954380D01*
X185841904Y-154954380D01*
X186080000Y-156049619D02*
X186841904Y-156049619D01*
X187080000Y-155954380D02*
X187080000Y-154954380D01*
X187413333Y-155668666D01*
X187746666Y-154954380D01*
X187746666Y-155954380D01*
X188413333Y-154954380D02*
X188603809Y-154954380D01*
X188699047Y-155002000D01*
X188794285Y-155097238D01*
X188841904Y-155287714D01*
X188841904Y-155621047D01*
X188794285Y-155811523D01*
X188699047Y-155906761D01*
X188603809Y-155954380D01*
X188413333Y-155954380D01*
X188318095Y-155906761D01*
X188222857Y-155811523D01*
X188175238Y-155621047D01*
X188175238Y-155287714D01*
X188222857Y-155097238D01*
X188318095Y-155002000D01*
X188413333Y-154954380D01*
X189270476Y-154954380D02*
X189270476Y-155763904D01*
X189318095Y-155859142D01*
X189365714Y-155906761D01*
X189460952Y-155954380D01*
X189651428Y-155954380D01*
X189746666Y-155906761D01*
X189794285Y-155859142D01*
X189841904Y-155763904D01*
X189841904Y-154954380D01*
X190318095Y-155954380D02*
X190318095Y-154954380D01*
X190889523Y-155954380D01*
X190889523Y-154954380D01*
X191222857Y-154954380D02*
X191794285Y-154954380D01*
X191508571Y-155954380D02*
X191508571Y-154954380D01*
X180460952Y-40906761D02*
X180603809Y-40954380D01*
X180841904Y-40954380D01*
X180937142Y-40906761D01*
X180984761Y-40859142D01*
X181032380Y-40763904D01*
X181032380Y-40668666D01*
X180984761Y-40573428D01*
X180937142Y-40525809D01*
X180841904Y-40478190D01*
X180651428Y-40430571D01*
X180556190Y-40382952D01*
X180508571Y-40335333D01*
X180460952Y-40240095D01*
X180460952Y-40144857D01*
X180508571Y-40049619D01*
X180556190Y-40002000D01*
X180651428Y-39954380D01*
X180889523Y-39954380D01*
X181032380Y-40002000D01*
X182032380Y-40859142D02*
X181984761Y-40906761D01*
X181841904Y-40954380D01*
X181746666Y-40954380D01*
X181603809Y-40906761D01*
X181508571Y-40811523D01*
X181460952Y-40716285D01*
X181413333Y-40525809D01*
X181413333Y-40382952D01*
X181460952Y-40192476D01*
X181508571Y-40097238D01*
X181603809Y-40002000D01*
X181746666Y-39954380D01*
X181841904Y-39954380D01*
X181984761Y-40002000D01*
X182032380Y-40049619D01*
X183032380Y-40954380D02*
X182699047Y-40478190D01*
X182460952Y-40954380D02*
X182460952Y-39954380D01*
X182841904Y-39954380D01*
X182937142Y-40002000D01*
X182984761Y-40049619D01*
X183032380Y-40144857D01*
X183032380Y-40287714D01*
X182984761Y-40382952D01*
X182937142Y-40430571D01*
X182841904Y-40478190D01*
X182460952Y-40478190D01*
X183460952Y-40430571D02*
X183794285Y-40430571D01*
X183937142Y-40954380D02*
X183460952Y-40954380D01*
X183460952Y-39954380D01*
X183937142Y-39954380D01*
X184365714Y-40430571D02*
X184699047Y-40430571D01*
X184841904Y-40954380D02*
X184365714Y-40954380D01*
X184365714Y-39954380D01*
X184841904Y-39954380D01*
X185270476Y-40954380D02*
X185270476Y-39954380D01*
X185841904Y-40954380D01*
X185841904Y-39954380D01*
X186080000Y-41049619D02*
X186841904Y-41049619D01*
X187080000Y-40954380D02*
X187080000Y-39954380D01*
X187413333Y-40668666D01*
X187746666Y-39954380D01*
X187746666Y-40954380D01*
X188413333Y-39954380D02*
X188603809Y-39954380D01*
X188699047Y-40002000D01*
X188794285Y-40097238D01*
X188841904Y-40287714D01*
X188841904Y-40621047D01*
X188794285Y-40811523D01*
X188699047Y-40906761D01*
X188603809Y-40954380D01*
X188413333Y-40954380D01*
X188318095Y-40906761D01*
X188222857Y-40811523D01*
X188175238Y-40621047D01*
X188175238Y-40287714D01*
X188222857Y-40097238D01*
X188318095Y-40002000D01*
X188413333Y-39954380D01*
X189270476Y-39954380D02*
X189270476Y-40763904D01*
X189318095Y-40859142D01*
X189365714Y-40906761D01*
X189460952Y-40954380D01*
X189651428Y-40954380D01*
X189746666Y-40906761D01*
X189794285Y-40859142D01*
X189841904Y-40763904D01*
X189841904Y-39954380D01*
X190318095Y-40954380D02*
X190318095Y-39954380D01*
X190889523Y-40954380D01*
X190889523Y-39954380D01*
X191222857Y-39954380D02*
X191794285Y-39954380D01*
X191508571Y-40954380D02*
X191508571Y-39954380D01*
X37460952Y-40906761D02*
X37603809Y-40954380D01*
X37841904Y-40954380D01*
X37937142Y-40906761D01*
X37984761Y-40859142D01*
X38032380Y-40763904D01*
X38032380Y-40668666D01*
X37984761Y-40573428D01*
X37937142Y-40525809D01*
X37841904Y-40478190D01*
X37651428Y-40430571D01*
X37556190Y-40382952D01*
X37508571Y-40335333D01*
X37460952Y-40240095D01*
X37460952Y-40144857D01*
X37508571Y-40049619D01*
X37556190Y-40002000D01*
X37651428Y-39954380D01*
X37889523Y-39954380D01*
X38032380Y-40002000D01*
X39032380Y-40859142D02*
X38984761Y-40906761D01*
X38841904Y-40954380D01*
X38746666Y-40954380D01*
X38603809Y-40906761D01*
X38508571Y-40811523D01*
X38460952Y-40716285D01*
X38413333Y-40525809D01*
X38413333Y-40382952D01*
X38460952Y-40192476D01*
X38508571Y-40097238D01*
X38603809Y-40002000D01*
X38746666Y-39954380D01*
X38841904Y-39954380D01*
X38984761Y-40002000D01*
X39032380Y-40049619D01*
X40032380Y-40954380D02*
X39699047Y-40478190D01*
X39460952Y-40954380D02*
X39460952Y-39954380D01*
X39841904Y-39954380D01*
X39937142Y-40002000D01*
X39984761Y-40049619D01*
X40032380Y-40144857D01*
X40032380Y-40287714D01*
X39984761Y-40382952D01*
X39937142Y-40430571D01*
X39841904Y-40478190D01*
X39460952Y-40478190D01*
X40460952Y-40430571D02*
X40794285Y-40430571D01*
X40937142Y-40954380D02*
X40460952Y-40954380D01*
X40460952Y-39954380D01*
X40937142Y-39954380D01*
X41365714Y-40430571D02*
X41699047Y-40430571D01*
X41841904Y-40954380D02*
X41365714Y-40954380D01*
X41365714Y-39954380D01*
X41841904Y-39954380D01*
X42270476Y-40954380D02*
X42270476Y-39954380D01*
X42841904Y-40954380D01*
X42841904Y-39954380D01*
X43080000Y-41049619D02*
X43841904Y-41049619D01*
X44080000Y-40954380D02*
X44080000Y-39954380D01*
X44413333Y-40668666D01*
X44746666Y-39954380D01*
X44746666Y-40954380D01*
X45413333Y-39954380D02*
X45603809Y-39954380D01*
X45699047Y-40002000D01*
X45794285Y-40097238D01*
X45841904Y-40287714D01*
X45841904Y-40621047D01*
X45794285Y-40811523D01*
X45699047Y-40906761D01*
X45603809Y-40954380D01*
X45413333Y-40954380D01*
X45318095Y-40906761D01*
X45222857Y-40811523D01*
X45175238Y-40621047D01*
X45175238Y-40287714D01*
X45222857Y-40097238D01*
X45318095Y-40002000D01*
X45413333Y-39954380D01*
X46270476Y-39954380D02*
X46270476Y-40763904D01*
X46318095Y-40859142D01*
X46365714Y-40906761D01*
X46460952Y-40954380D01*
X46651428Y-40954380D01*
X46746666Y-40906761D01*
X46794285Y-40859142D01*
X46841904Y-40763904D01*
X46841904Y-39954380D01*
X47318095Y-40954380D02*
X47318095Y-39954380D01*
X47889523Y-40954380D01*
X47889523Y-39954380D01*
X48222857Y-39954380D02*
X48794285Y-39954380D01*
X48508571Y-40954380D02*
X48508571Y-39954380D01*
G04 #@! TO.C,SW20*
X26130476Y-50950761D02*
X26273333Y-50998380D01*
X26511428Y-50998380D01*
X26606666Y-50950761D01*
X26654285Y-50903142D01*
X26701904Y-50807904D01*
X26701904Y-50712666D01*
X26654285Y-50617428D01*
X26606666Y-50569809D01*
X26511428Y-50522190D01*
X26320952Y-50474571D01*
X26225714Y-50426952D01*
X26178095Y-50379333D01*
X26130476Y-50284095D01*
X26130476Y-50188857D01*
X26178095Y-50093619D01*
X26225714Y-50046000D01*
X26320952Y-49998380D01*
X26559047Y-49998380D01*
X26701904Y-50046000D01*
X27035238Y-49998380D02*
X27273333Y-50998380D01*
X27463809Y-50284095D01*
X27654285Y-50998380D01*
X27892380Y-49998380D01*
X28225714Y-50093619D02*
X28273333Y-50046000D01*
X28368571Y-49998380D01*
X28606666Y-49998380D01*
X28701904Y-50046000D01*
X28749523Y-50093619D01*
X28797142Y-50188857D01*
X28797142Y-50284095D01*
X28749523Y-50426952D01*
X28178095Y-50998380D01*
X28797142Y-50998380D01*
X29416190Y-49998380D02*
X29511428Y-49998380D01*
X29606666Y-50046000D01*
X29654285Y-50093619D01*
X29701904Y-50188857D01*
X29749523Y-50379333D01*
X29749523Y-50617428D01*
X29701904Y-50807904D01*
X29654285Y-50903142D01*
X29606666Y-50950761D01*
X29511428Y-50998380D01*
X29416190Y-50998380D01*
X29320952Y-50950761D01*
X29273333Y-50903142D01*
X29225714Y-50807904D01*
X29178095Y-50617428D01*
X29178095Y-50379333D01*
X29225714Y-50188857D01*
X29273333Y-50093619D01*
X29320952Y-50046000D01*
X29416190Y-49998380D01*
G04 #@! TO.C,SW19*
X26130476Y-72540761D02*
X26273333Y-72588380D01*
X26511428Y-72588380D01*
X26606666Y-72540761D01*
X26654285Y-72493142D01*
X26701904Y-72397904D01*
X26701904Y-72302666D01*
X26654285Y-72207428D01*
X26606666Y-72159809D01*
X26511428Y-72112190D01*
X26320952Y-72064571D01*
X26225714Y-72016952D01*
X26178095Y-71969333D01*
X26130476Y-71874095D01*
X26130476Y-71778857D01*
X26178095Y-71683619D01*
X26225714Y-71636000D01*
X26320952Y-71588380D01*
X26559047Y-71588380D01*
X26701904Y-71636000D01*
X27035238Y-71588380D02*
X27273333Y-72588380D01*
X27463809Y-71874095D01*
X27654285Y-72588380D01*
X27892380Y-71588380D01*
X28797142Y-72588380D02*
X28225714Y-72588380D01*
X28511428Y-72588380D02*
X28511428Y-71588380D01*
X28416190Y-71731238D01*
X28320952Y-71826476D01*
X28225714Y-71874095D01*
X29273333Y-72588380D02*
X29463809Y-72588380D01*
X29559047Y-72540761D01*
X29606666Y-72493142D01*
X29701904Y-72350285D01*
X29749523Y-72159809D01*
X29749523Y-71778857D01*
X29701904Y-71683619D01*
X29654285Y-71636000D01*
X29559047Y-71588380D01*
X29368571Y-71588380D01*
X29273333Y-71636000D01*
X29225714Y-71683619D01*
X29178095Y-71778857D01*
X29178095Y-72016952D01*
X29225714Y-72112190D01*
X29273333Y-72159809D01*
X29368571Y-72207428D01*
X29559047Y-72207428D01*
X29654285Y-72159809D01*
X29701904Y-72112190D01*
X29749523Y-72016952D01*
G04 #@! TO.C,SW18*
X26130476Y-94130761D02*
X26273333Y-94178380D01*
X26511428Y-94178380D01*
X26606666Y-94130761D01*
X26654285Y-94083142D01*
X26701904Y-93987904D01*
X26701904Y-93892666D01*
X26654285Y-93797428D01*
X26606666Y-93749809D01*
X26511428Y-93702190D01*
X26320952Y-93654571D01*
X26225714Y-93606952D01*
X26178095Y-93559333D01*
X26130476Y-93464095D01*
X26130476Y-93368857D01*
X26178095Y-93273619D01*
X26225714Y-93226000D01*
X26320952Y-93178380D01*
X26559047Y-93178380D01*
X26701904Y-93226000D01*
X27035238Y-93178380D02*
X27273333Y-94178380D01*
X27463809Y-93464095D01*
X27654285Y-94178380D01*
X27892380Y-93178380D01*
X28797142Y-94178380D02*
X28225714Y-94178380D01*
X28511428Y-94178380D02*
X28511428Y-93178380D01*
X28416190Y-93321238D01*
X28320952Y-93416476D01*
X28225714Y-93464095D01*
X29368571Y-93606952D02*
X29273333Y-93559333D01*
X29225714Y-93511714D01*
X29178095Y-93416476D01*
X29178095Y-93368857D01*
X29225714Y-93273619D01*
X29273333Y-93226000D01*
X29368571Y-93178380D01*
X29559047Y-93178380D01*
X29654285Y-93226000D01*
X29701904Y-93273619D01*
X29749523Y-93368857D01*
X29749523Y-93416476D01*
X29701904Y-93511714D01*
X29654285Y-93559333D01*
X29559047Y-93606952D01*
X29368571Y-93606952D01*
X29273333Y-93654571D01*
X29225714Y-93702190D01*
X29178095Y-93797428D01*
X29178095Y-93987904D01*
X29225714Y-94083142D01*
X29273333Y-94130761D01*
X29368571Y-94178380D01*
X29559047Y-94178380D01*
X29654285Y-94130761D01*
X29701904Y-94083142D01*
X29749523Y-93987904D01*
X29749523Y-93797428D01*
X29701904Y-93702190D01*
X29654285Y-93654571D01*
X29559047Y-93606952D01*
G04 #@! TO.C,SW17*
X26130476Y-115720761D02*
X26273333Y-115768380D01*
X26511428Y-115768380D01*
X26606666Y-115720761D01*
X26654285Y-115673142D01*
X26701904Y-115577904D01*
X26701904Y-115482666D01*
X26654285Y-115387428D01*
X26606666Y-115339809D01*
X26511428Y-115292190D01*
X26320952Y-115244571D01*
X26225714Y-115196952D01*
X26178095Y-115149333D01*
X26130476Y-115054095D01*
X26130476Y-114958857D01*
X26178095Y-114863619D01*
X26225714Y-114816000D01*
X26320952Y-114768380D01*
X26559047Y-114768380D01*
X26701904Y-114816000D01*
X27035238Y-114768380D02*
X27273333Y-115768380D01*
X27463809Y-115054095D01*
X27654285Y-115768380D01*
X27892380Y-114768380D01*
X28797142Y-115768380D02*
X28225714Y-115768380D01*
X28511428Y-115768380D02*
X28511428Y-114768380D01*
X28416190Y-114911238D01*
X28320952Y-115006476D01*
X28225714Y-115054095D01*
X29130476Y-114768380D02*
X29797142Y-114768380D01*
X29368571Y-115768380D01*
G04 #@! TO.C,SW16*
X26130476Y-137310761D02*
X26273333Y-137358380D01*
X26511428Y-137358380D01*
X26606666Y-137310761D01*
X26654285Y-137263142D01*
X26701904Y-137167904D01*
X26701904Y-137072666D01*
X26654285Y-136977428D01*
X26606666Y-136929809D01*
X26511428Y-136882190D01*
X26320952Y-136834571D01*
X26225714Y-136786952D01*
X26178095Y-136739333D01*
X26130476Y-136644095D01*
X26130476Y-136548857D01*
X26178095Y-136453619D01*
X26225714Y-136406000D01*
X26320952Y-136358380D01*
X26559047Y-136358380D01*
X26701904Y-136406000D01*
X27035238Y-136358380D02*
X27273333Y-137358380D01*
X27463809Y-136644095D01*
X27654285Y-137358380D01*
X27892380Y-136358380D01*
X28797142Y-137358380D02*
X28225714Y-137358380D01*
X28511428Y-137358380D02*
X28511428Y-136358380D01*
X28416190Y-136501238D01*
X28320952Y-136596476D01*
X28225714Y-136644095D01*
X29654285Y-136358380D02*
X29463809Y-136358380D01*
X29368571Y-136406000D01*
X29320952Y-136453619D01*
X29225714Y-136596476D01*
X29178095Y-136786952D01*
X29178095Y-137167904D01*
X29225714Y-137263142D01*
X29273333Y-137310761D01*
X29368571Y-137358380D01*
X29559047Y-137358380D01*
X29654285Y-137310761D01*
X29701904Y-137263142D01*
X29749523Y-137167904D01*
X29749523Y-136929809D01*
X29701904Y-136834571D01*
X29654285Y-136786952D01*
X29559047Y-136739333D01*
X29368571Y-136739333D01*
X29273333Y-136786952D01*
X29225714Y-136834571D01*
X29178095Y-136929809D01*
G04 #@! TO.C,SW15*
X56610476Y-166520761D02*
X56753333Y-166568380D01*
X56991428Y-166568380D01*
X57086666Y-166520761D01*
X57134285Y-166473142D01*
X57181904Y-166377904D01*
X57181904Y-166282666D01*
X57134285Y-166187428D01*
X57086666Y-166139809D01*
X56991428Y-166092190D01*
X56800952Y-166044571D01*
X56705714Y-165996952D01*
X56658095Y-165949333D01*
X56610476Y-165854095D01*
X56610476Y-165758857D01*
X56658095Y-165663619D01*
X56705714Y-165616000D01*
X56800952Y-165568380D01*
X57039047Y-165568380D01*
X57181904Y-165616000D01*
X57515238Y-165568380D02*
X57753333Y-166568380D01*
X57943809Y-165854095D01*
X58134285Y-166568380D01*
X58372380Y-165568380D01*
X59277142Y-166568380D02*
X58705714Y-166568380D01*
X58991428Y-166568380D02*
X58991428Y-165568380D01*
X58896190Y-165711238D01*
X58800952Y-165806476D01*
X58705714Y-165854095D01*
X60181904Y-165568380D02*
X59705714Y-165568380D01*
X59658095Y-166044571D01*
X59705714Y-165996952D01*
X59800952Y-165949333D01*
X60039047Y-165949333D01*
X60134285Y-165996952D01*
X60181904Y-166044571D01*
X60229523Y-166139809D01*
X60229523Y-166377904D01*
X60181904Y-166473142D01*
X60134285Y-166520761D01*
X60039047Y-166568380D01*
X59800952Y-166568380D01*
X59705714Y-166520761D01*
X59658095Y-166473142D01*
G04 #@! TO.C,SW14*
X84550476Y-166520761D02*
X84693333Y-166568380D01*
X84931428Y-166568380D01*
X85026666Y-166520761D01*
X85074285Y-166473142D01*
X85121904Y-166377904D01*
X85121904Y-166282666D01*
X85074285Y-166187428D01*
X85026666Y-166139809D01*
X84931428Y-166092190D01*
X84740952Y-166044571D01*
X84645714Y-165996952D01*
X84598095Y-165949333D01*
X84550476Y-165854095D01*
X84550476Y-165758857D01*
X84598095Y-165663619D01*
X84645714Y-165616000D01*
X84740952Y-165568380D01*
X84979047Y-165568380D01*
X85121904Y-165616000D01*
X85455238Y-165568380D02*
X85693333Y-166568380D01*
X85883809Y-165854095D01*
X86074285Y-166568380D01*
X86312380Y-165568380D01*
X87217142Y-166568380D02*
X86645714Y-166568380D01*
X86931428Y-166568380D02*
X86931428Y-165568380D01*
X86836190Y-165711238D01*
X86740952Y-165806476D01*
X86645714Y-165854095D01*
X88074285Y-165901714D02*
X88074285Y-166568380D01*
X87836190Y-165520761D02*
X87598095Y-166235047D01*
X88217142Y-166235047D01*
G04 #@! TO.C,SW13*
X113760476Y-166520761D02*
X113903333Y-166568380D01*
X114141428Y-166568380D01*
X114236666Y-166520761D01*
X114284285Y-166473142D01*
X114331904Y-166377904D01*
X114331904Y-166282666D01*
X114284285Y-166187428D01*
X114236666Y-166139809D01*
X114141428Y-166092190D01*
X113950952Y-166044571D01*
X113855714Y-165996952D01*
X113808095Y-165949333D01*
X113760476Y-165854095D01*
X113760476Y-165758857D01*
X113808095Y-165663619D01*
X113855714Y-165616000D01*
X113950952Y-165568380D01*
X114189047Y-165568380D01*
X114331904Y-165616000D01*
X114665238Y-165568380D02*
X114903333Y-166568380D01*
X115093809Y-165854095D01*
X115284285Y-166568380D01*
X115522380Y-165568380D01*
X116427142Y-166568380D02*
X115855714Y-166568380D01*
X116141428Y-166568380D02*
X116141428Y-165568380D01*
X116046190Y-165711238D01*
X115950952Y-165806476D01*
X115855714Y-165854095D01*
X116760476Y-165568380D02*
X117379523Y-165568380D01*
X117046190Y-165949333D01*
X117189047Y-165949333D01*
X117284285Y-165996952D01*
X117331904Y-166044571D01*
X117379523Y-166139809D01*
X117379523Y-166377904D01*
X117331904Y-166473142D01*
X117284285Y-166520761D01*
X117189047Y-166568380D01*
X116903333Y-166568380D01*
X116808095Y-166520761D01*
X116760476Y-166473142D01*
G04 #@! TO.C,SW12*
X141700476Y-166520761D02*
X141843333Y-166568380D01*
X142081428Y-166568380D01*
X142176666Y-166520761D01*
X142224285Y-166473142D01*
X142271904Y-166377904D01*
X142271904Y-166282666D01*
X142224285Y-166187428D01*
X142176666Y-166139809D01*
X142081428Y-166092190D01*
X141890952Y-166044571D01*
X141795714Y-165996952D01*
X141748095Y-165949333D01*
X141700476Y-165854095D01*
X141700476Y-165758857D01*
X141748095Y-165663619D01*
X141795714Y-165616000D01*
X141890952Y-165568380D01*
X142129047Y-165568380D01*
X142271904Y-165616000D01*
X142605238Y-165568380D02*
X142843333Y-166568380D01*
X143033809Y-165854095D01*
X143224285Y-166568380D01*
X143462380Y-165568380D01*
X144367142Y-166568380D02*
X143795714Y-166568380D01*
X144081428Y-166568380D02*
X144081428Y-165568380D01*
X143986190Y-165711238D01*
X143890952Y-165806476D01*
X143795714Y-165854095D01*
X144748095Y-165663619D02*
X144795714Y-165616000D01*
X144890952Y-165568380D01*
X145129047Y-165568380D01*
X145224285Y-165616000D01*
X145271904Y-165663619D01*
X145319523Y-165758857D01*
X145319523Y-165854095D01*
X145271904Y-165996952D01*
X144700476Y-166568380D01*
X145319523Y-166568380D01*
G04 #@! TO.C,SW11*
X169640476Y-166520761D02*
X169783333Y-166568380D01*
X170021428Y-166568380D01*
X170116666Y-166520761D01*
X170164285Y-166473142D01*
X170211904Y-166377904D01*
X170211904Y-166282666D01*
X170164285Y-166187428D01*
X170116666Y-166139809D01*
X170021428Y-166092190D01*
X169830952Y-166044571D01*
X169735714Y-165996952D01*
X169688095Y-165949333D01*
X169640476Y-165854095D01*
X169640476Y-165758857D01*
X169688095Y-165663619D01*
X169735714Y-165616000D01*
X169830952Y-165568380D01*
X170069047Y-165568380D01*
X170211904Y-165616000D01*
X170545238Y-165568380D02*
X170783333Y-166568380D01*
X170973809Y-165854095D01*
X171164285Y-166568380D01*
X171402380Y-165568380D01*
X172307142Y-166568380D02*
X171735714Y-166568380D01*
X172021428Y-166568380D02*
X172021428Y-165568380D01*
X171926190Y-165711238D01*
X171830952Y-165806476D01*
X171735714Y-165854095D01*
X173259523Y-166568380D02*
X172688095Y-166568380D01*
X172973809Y-166568380D02*
X172973809Y-165568380D01*
X172878571Y-165711238D01*
X172783333Y-165806476D01*
X172688095Y-165854095D01*
G04 #@! TO.C,SW10*
X200120476Y-137310761D02*
X200263333Y-137358380D01*
X200501428Y-137358380D01*
X200596666Y-137310761D01*
X200644285Y-137263142D01*
X200691904Y-137167904D01*
X200691904Y-137072666D01*
X200644285Y-136977428D01*
X200596666Y-136929809D01*
X200501428Y-136882190D01*
X200310952Y-136834571D01*
X200215714Y-136786952D01*
X200168095Y-136739333D01*
X200120476Y-136644095D01*
X200120476Y-136548857D01*
X200168095Y-136453619D01*
X200215714Y-136406000D01*
X200310952Y-136358380D01*
X200549047Y-136358380D01*
X200691904Y-136406000D01*
X201025238Y-136358380D02*
X201263333Y-137358380D01*
X201453809Y-136644095D01*
X201644285Y-137358380D01*
X201882380Y-136358380D01*
X202787142Y-137358380D02*
X202215714Y-137358380D01*
X202501428Y-137358380D02*
X202501428Y-136358380D01*
X202406190Y-136501238D01*
X202310952Y-136596476D01*
X202215714Y-136644095D01*
X203406190Y-136358380D02*
X203501428Y-136358380D01*
X203596666Y-136406000D01*
X203644285Y-136453619D01*
X203691904Y-136548857D01*
X203739523Y-136739333D01*
X203739523Y-136977428D01*
X203691904Y-137167904D01*
X203644285Y-137263142D01*
X203596666Y-137310761D01*
X203501428Y-137358380D01*
X203406190Y-137358380D01*
X203310952Y-137310761D01*
X203263333Y-137263142D01*
X203215714Y-137167904D01*
X203168095Y-136977428D01*
X203168095Y-136739333D01*
X203215714Y-136548857D01*
X203263333Y-136453619D01*
X203310952Y-136406000D01*
X203406190Y-136358380D01*
G04 #@! TO.C,SW9*
X200596666Y-115720761D02*
X200739523Y-115768380D01*
X200977619Y-115768380D01*
X201072857Y-115720761D01*
X201120476Y-115673142D01*
X201168095Y-115577904D01*
X201168095Y-115482666D01*
X201120476Y-115387428D01*
X201072857Y-115339809D01*
X200977619Y-115292190D01*
X200787142Y-115244571D01*
X200691904Y-115196952D01*
X200644285Y-115149333D01*
X200596666Y-115054095D01*
X200596666Y-114958857D01*
X200644285Y-114863619D01*
X200691904Y-114816000D01*
X200787142Y-114768380D01*
X201025238Y-114768380D01*
X201168095Y-114816000D01*
X201501428Y-114768380D02*
X201739523Y-115768380D01*
X201930000Y-115054095D01*
X202120476Y-115768380D01*
X202358571Y-114768380D01*
X202787142Y-115768380D02*
X202977619Y-115768380D01*
X203072857Y-115720761D01*
X203120476Y-115673142D01*
X203215714Y-115530285D01*
X203263333Y-115339809D01*
X203263333Y-114958857D01*
X203215714Y-114863619D01*
X203168095Y-114816000D01*
X203072857Y-114768380D01*
X202882380Y-114768380D01*
X202787142Y-114816000D01*
X202739523Y-114863619D01*
X202691904Y-114958857D01*
X202691904Y-115196952D01*
X202739523Y-115292190D01*
X202787142Y-115339809D01*
X202882380Y-115387428D01*
X203072857Y-115387428D01*
X203168095Y-115339809D01*
X203215714Y-115292190D01*
X203263333Y-115196952D01*
G04 #@! TO.C,SW8*
X200596666Y-94130761D02*
X200739523Y-94178380D01*
X200977619Y-94178380D01*
X201072857Y-94130761D01*
X201120476Y-94083142D01*
X201168095Y-93987904D01*
X201168095Y-93892666D01*
X201120476Y-93797428D01*
X201072857Y-93749809D01*
X200977619Y-93702190D01*
X200787142Y-93654571D01*
X200691904Y-93606952D01*
X200644285Y-93559333D01*
X200596666Y-93464095D01*
X200596666Y-93368857D01*
X200644285Y-93273619D01*
X200691904Y-93226000D01*
X200787142Y-93178380D01*
X201025238Y-93178380D01*
X201168095Y-93226000D01*
X201501428Y-93178380D02*
X201739523Y-94178380D01*
X201930000Y-93464095D01*
X202120476Y-94178380D01*
X202358571Y-93178380D01*
X202882380Y-93606952D02*
X202787142Y-93559333D01*
X202739523Y-93511714D01*
X202691904Y-93416476D01*
X202691904Y-93368857D01*
X202739523Y-93273619D01*
X202787142Y-93226000D01*
X202882380Y-93178380D01*
X203072857Y-93178380D01*
X203168095Y-93226000D01*
X203215714Y-93273619D01*
X203263333Y-93368857D01*
X203263333Y-93416476D01*
X203215714Y-93511714D01*
X203168095Y-93559333D01*
X203072857Y-93606952D01*
X202882380Y-93606952D01*
X202787142Y-93654571D01*
X202739523Y-93702190D01*
X202691904Y-93797428D01*
X202691904Y-93987904D01*
X202739523Y-94083142D01*
X202787142Y-94130761D01*
X202882380Y-94178380D01*
X203072857Y-94178380D01*
X203168095Y-94130761D01*
X203215714Y-94083142D01*
X203263333Y-93987904D01*
X203263333Y-93797428D01*
X203215714Y-93702190D01*
X203168095Y-93654571D01*
X203072857Y-93606952D01*
G04 #@! TO.C,SW7*
X200596666Y-72540761D02*
X200739523Y-72588380D01*
X200977619Y-72588380D01*
X201072857Y-72540761D01*
X201120476Y-72493142D01*
X201168095Y-72397904D01*
X201168095Y-72302666D01*
X201120476Y-72207428D01*
X201072857Y-72159809D01*
X200977619Y-72112190D01*
X200787142Y-72064571D01*
X200691904Y-72016952D01*
X200644285Y-71969333D01*
X200596666Y-71874095D01*
X200596666Y-71778857D01*
X200644285Y-71683619D01*
X200691904Y-71636000D01*
X200787142Y-71588380D01*
X201025238Y-71588380D01*
X201168095Y-71636000D01*
X201501428Y-71588380D02*
X201739523Y-72588380D01*
X201930000Y-71874095D01*
X202120476Y-72588380D01*
X202358571Y-71588380D01*
X202644285Y-71588380D02*
X203310952Y-71588380D01*
X202882380Y-72588380D01*
G04 #@! TO.C,SW6*
X200596666Y-50950761D02*
X200739523Y-50998380D01*
X200977619Y-50998380D01*
X201072857Y-50950761D01*
X201120476Y-50903142D01*
X201168095Y-50807904D01*
X201168095Y-50712666D01*
X201120476Y-50617428D01*
X201072857Y-50569809D01*
X200977619Y-50522190D01*
X200787142Y-50474571D01*
X200691904Y-50426952D01*
X200644285Y-50379333D01*
X200596666Y-50284095D01*
X200596666Y-50188857D01*
X200644285Y-50093619D01*
X200691904Y-50046000D01*
X200787142Y-49998380D01*
X201025238Y-49998380D01*
X201168095Y-50046000D01*
X201501428Y-49998380D02*
X201739523Y-50998380D01*
X201930000Y-50284095D01*
X202120476Y-50998380D01*
X202358571Y-49998380D01*
X203168095Y-49998380D02*
X202977619Y-49998380D01*
X202882380Y-50046000D01*
X202834761Y-50093619D01*
X202739523Y-50236476D01*
X202691904Y-50426952D01*
X202691904Y-50807904D01*
X202739523Y-50903142D01*
X202787142Y-50950761D01*
X202882380Y-50998380D01*
X203072857Y-50998380D01*
X203168095Y-50950761D01*
X203215714Y-50903142D01*
X203263333Y-50807904D01*
X203263333Y-50569809D01*
X203215714Y-50474571D01*
X203168095Y-50426952D01*
X203072857Y-50379333D01*
X202882380Y-50379333D01*
X202787142Y-50426952D01*
X202739523Y-50474571D01*
X202691904Y-50569809D01*
G04 #@! TO.C,SW5*
X170116666Y-20470761D02*
X170259523Y-20518380D01*
X170497619Y-20518380D01*
X170592857Y-20470761D01*
X170640476Y-20423142D01*
X170688095Y-20327904D01*
X170688095Y-20232666D01*
X170640476Y-20137428D01*
X170592857Y-20089809D01*
X170497619Y-20042190D01*
X170307142Y-19994571D01*
X170211904Y-19946952D01*
X170164285Y-19899333D01*
X170116666Y-19804095D01*
X170116666Y-19708857D01*
X170164285Y-19613619D01*
X170211904Y-19566000D01*
X170307142Y-19518380D01*
X170545238Y-19518380D01*
X170688095Y-19566000D01*
X171021428Y-19518380D02*
X171259523Y-20518380D01*
X171450000Y-19804095D01*
X171640476Y-20518380D01*
X171878571Y-19518380D01*
X172735714Y-19518380D02*
X172259523Y-19518380D01*
X172211904Y-19994571D01*
X172259523Y-19946952D01*
X172354761Y-19899333D01*
X172592857Y-19899333D01*
X172688095Y-19946952D01*
X172735714Y-19994571D01*
X172783333Y-20089809D01*
X172783333Y-20327904D01*
X172735714Y-20423142D01*
X172688095Y-20470761D01*
X172592857Y-20518380D01*
X172354761Y-20518380D01*
X172259523Y-20470761D01*
X172211904Y-20423142D01*
G04 #@! TO.C,SW4*
X142176666Y-20470761D02*
X142319523Y-20518380D01*
X142557619Y-20518380D01*
X142652857Y-20470761D01*
X142700476Y-20423142D01*
X142748095Y-20327904D01*
X142748095Y-20232666D01*
X142700476Y-20137428D01*
X142652857Y-20089809D01*
X142557619Y-20042190D01*
X142367142Y-19994571D01*
X142271904Y-19946952D01*
X142224285Y-19899333D01*
X142176666Y-19804095D01*
X142176666Y-19708857D01*
X142224285Y-19613619D01*
X142271904Y-19566000D01*
X142367142Y-19518380D01*
X142605238Y-19518380D01*
X142748095Y-19566000D01*
X143081428Y-19518380D02*
X143319523Y-20518380D01*
X143510000Y-19804095D01*
X143700476Y-20518380D01*
X143938571Y-19518380D01*
X144748095Y-19851714D02*
X144748095Y-20518380D01*
X144510000Y-19470761D02*
X144271904Y-20185047D01*
X144890952Y-20185047D01*
G04 #@! TO.C,SW3*
X114236666Y-20470761D02*
X114379523Y-20518380D01*
X114617619Y-20518380D01*
X114712857Y-20470761D01*
X114760476Y-20423142D01*
X114808095Y-20327904D01*
X114808095Y-20232666D01*
X114760476Y-20137428D01*
X114712857Y-20089809D01*
X114617619Y-20042190D01*
X114427142Y-19994571D01*
X114331904Y-19946952D01*
X114284285Y-19899333D01*
X114236666Y-19804095D01*
X114236666Y-19708857D01*
X114284285Y-19613619D01*
X114331904Y-19566000D01*
X114427142Y-19518380D01*
X114665238Y-19518380D01*
X114808095Y-19566000D01*
X115141428Y-19518380D02*
X115379523Y-20518380D01*
X115570000Y-19804095D01*
X115760476Y-20518380D01*
X115998571Y-19518380D01*
X116284285Y-19518380D02*
X116903333Y-19518380D01*
X116570000Y-19899333D01*
X116712857Y-19899333D01*
X116808095Y-19946952D01*
X116855714Y-19994571D01*
X116903333Y-20089809D01*
X116903333Y-20327904D01*
X116855714Y-20423142D01*
X116808095Y-20470761D01*
X116712857Y-20518380D01*
X116427142Y-20518380D01*
X116331904Y-20470761D01*
X116284285Y-20423142D01*
G04 #@! TO.C,SW2*
X85026666Y-20470761D02*
X85169523Y-20518380D01*
X85407619Y-20518380D01*
X85502857Y-20470761D01*
X85550476Y-20423142D01*
X85598095Y-20327904D01*
X85598095Y-20232666D01*
X85550476Y-20137428D01*
X85502857Y-20089809D01*
X85407619Y-20042190D01*
X85217142Y-19994571D01*
X85121904Y-19946952D01*
X85074285Y-19899333D01*
X85026666Y-19804095D01*
X85026666Y-19708857D01*
X85074285Y-19613619D01*
X85121904Y-19566000D01*
X85217142Y-19518380D01*
X85455238Y-19518380D01*
X85598095Y-19566000D01*
X85931428Y-19518380D02*
X86169523Y-20518380D01*
X86360000Y-19804095D01*
X86550476Y-20518380D01*
X86788571Y-19518380D01*
X87121904Y-19613619D02*
X87169523Y-19566000D01*
X87264761Y-19518380D01*
X87502857Y-19518380D01*
X87598095Y-19566000D01*
X87645714Y-19613619D01*
X87693333Y-19708857D01*
X87693333Y-19804095D01*
X87645714Y-19946952D01*
X87074285Y-20518380D01*
X87693333Y-20518380D01*
G04 #@! TO.C,SW1*
X57086666Y-20470761D02*
X57229523Y-20518380D01*
X57467619Y-20518380D01*
X57562857Y-20470761D01*
X57610476Y-20423142D01*
X57658095Y-20327904D01*
X57658095Y-20232666D01*
X57610476Y-20137428D01*
X57562857Y-20089809D01*
X57467619Y-20042190D01*
X57277142Y-19994571D01*
X57181904Y-19946952D01*
X57134285Y-19899333D01*
X57086666Y-19804095D01*
X57086666Y-19708857D01*
X57134285Y-19613619D01*
X57181904Y-19566000D01*
X57277142Y-19518380D01*
X57515238Y-19518380D01*
X57658095Y-19566000D01*
X57991428Y-19518380D02*
X58229523Y-20518380D01*
X58420000Y-19804095D01*
X58610476Y-20518380D01*
X58848571Y-19518380D01*
X59753333Y-20518380D02*
X59181904Y-20518380D01*
X59467619Y-20518380D02*
X59467619Y-19518380D01*
X59372380Y-19661238D01*
X59277142Y-19756476D01*
X59181904Y-19804095D01*
G04 #@! TD*
M02*
